ply
format ascii 1.0
comment Exported from MorphoGraphX 2.0 9eafb9a
comment Cell Graph: each vertex is a cell, each edge a wall
element vertex 266
property int label
property float x
property float y
property float z
property list uchar float /Cell Axis PDG
property float Geometry/Area
element edge 1495
property uint source
property uint target
end_header
1 -50.5365 37.645 -6.12203 9 0.115928 0.838913 -0.531775 -0.989936 0.141338 0.00716154 0.0202814 0.000833936 0 35.1499 
238 44.1086 19.1499 -5.84691 9 -0.784651 0.275429 0.555393 0.0386986 -0.872377 0.4873 0.00861855 -0.00201368 0 34.9425 
2 -46.4922 34.0352 -5.08404 9 -0.847555 0.530674 0.00604846 -0.466988 -0.751158 0.466566 0.0260454 0.0166753 0 53.063 
56 -41.6564 38.5125 -9.53322 9 0.282076 -0.851805 0.441431 0.870124 0.0333261 -0.491706 0.0205482 0.00396295 0 54.2407 
57 -47.3243 41.9209 -9.94133 9 0.937581 0.0953167 -0.334449 -0.286113 0.758101 -0.586022 0.0142865 -0.00967615 0 46.2452 
3 -44.284 28.8958 -3.9316 9 0.239576 0.90008 -0.36395 -0.914408 0.335169 0.226979 0.0217068 0.00442088 0 59.201 
55 -38.7081 33.463 -8.06278 9 0.908826 -0.341306 -0.239885 -0.182623 -0.842493 0.506808 -0.0508101 0.0222736 0 35.7015 
231 21.5319 6.47702 9.78924 9 0.204944 0.952234 -0.22638 -0.941189 0.255209 0.22143 0.0168794 0.00734684 0 33.4463 
229 20.4552 2.80745 10.6384 9 0.000305742 0.997404 -0.0720147 -0.961639 0.0200482 0.273584 0.0179055 0.0066551 0 13.5885 
4 -47.624 24.3507 -1.90747 9 -0.118582 0.988244 -0.0964948 -0.958933 -0.0887609 0.269385 0.0218665 0.000540635 0 55.7862 
232 26.8543 9.14597 7.445 9 -0.12949 0.972491 -0.193632 -0.924858 -0.04803 0.377268 0.0124202 0.00659167 0 43.7794 
53 -40.3319 23.606 -4.01555 9 0.914255 -0.365001 -0.175819 -0.313379 -0.912166 0.264094 -0.0688378 0.0251454 0 31.9147 
54 -35.3968 30.8757 -7.6797 9 0.974555 -0.215375 0.0621013 -0.217812 -0.844509 0.489248 -0.0902633 0.0196892 0 34.8363 
5 -50.7323 17.4061 -0.740767 9 0.20041 0.979531 0.0188314 -0.944065 0.187944 0.270957 0.0233918 -0.00536937 0 59.7944 
42 -45.7106 15.6718 -2.15635 9 -0.86775 0.457465 0.194258 0.453251 0.888762 -0.0683055 -0.0480986 0.0204498 0 44.8248 
239 38.0562 22.9533 -2.95502 9 0.793304 -0.00168355 -0.608824 -0.194458 0.946916 -0.255999 0.0154835 -0.00173794 0 47.0077 
6 -53.089 9.66643 -1.42026 9 0.458556 0.87774 0.13892 -0.870854 0.412699 0.267008 0.0197719 -0.0130466 0 40.0332 
253 16.6395 12.041 9.77997 9 -0.117905 -0.949389 0.291135 0.964433 -0.179324 -0.194194 0.0150089 0.00949813 0 34.7736 
250 21.9082 11.9161 8.38358 9 -0.0202397 0.957963 -0.286178 -0.963166 0.0580861 0.262559 0.0137762 0.00895214 0 27.1558 
7 -49.8768 6.75914 -2.649 9 -0.823777 0.529667 0.2021 0.560127 0.815438 0.146009 -0.0680919 0.0210736 0 40.1233 
8 -51.9268 0.691302 -4.00836 9 -0.816051 0.576932 0.0347797 0.567223 0.787857 0.239872 -0.0823017 0.0203557 0 27.2262 
41 -45.3386 4.51436 -2.30426 9 -0.762306 0.576943 -0.293303 0.580026 0.810055 0.0859131 -0.102112 0.0195809 0 32.6863 
236 36.6028 12.3204 2.58317 9 -0.701041 -0.513149 0.495196 0.601888 -0.79819 0.0249558 0.0202179 0.00676101 0 37.0752 
237 41.0176 16.5337 -1.8733 9 0.778601 0.0980646 -0.619809 -0.309044 0.91955 -0.242731 0.0203033 0.00148602 0 41.7316 
240 36.3046 27.1845 -3.64186 9 -0.856316 0.15821 0.491622 0.0949679 -0.887452 0.45101 0.0248795 0.00516324 0 33.7601 
243 31.8799 24.5836 0.184537 9 0.913575 0.0208849 -0.406133 -0.16873 0.92813 -0.331821 0.0243095 0.0101262 0 25.8497 
244 36.8289 18.4995 0.0557975 9 0.797786 0.19234 -0.571439 -0.349114 0.920075 -0.177712 0.0233077 -0.00174762 0 17.9792 
218 40.4484 10.1643 1.18422 9 0.800351 0.192836 -0.567673 -0.312579 0.9422 -0.120638 0.0245445 0.0128204 0 40.186 
9 -54.7827 -3.11647 -5.27791 9 -0.767181 0.637616 0.0698513 0.622569 0.713979 0.320378 -0.0554571 0.0329486 0 35.9682 
23 -46.8806 -1.13004 -2.3186 9 -0.647063 0.587396 -0.486081 0.546058 0.801967 0.242219 -0.0878572 0.0218055 0 38.8836 
10 -51.3139 -8.28019 -4.96623 9 -0.607373 0.614667 -0.503273 0.490788 0.788484 0.370702 -0.0917542 0.0188989 0 33.3825 
224 37.9256 -3.17486 4.37878 9 0.30844 0.942342 -0.129831 -0.850385 0.334319 0.406296 0.0196425 0.0105275 0 37.485 
223 34.2751 -1.03186 6.01237 9 -0.0295937 0.999428 -0.0163521 -0.938783 -0.022173 0.343795 0.0195946 0.00529151 0 21.939 
11 -47.7557 -7.41601 -1.80454 9 -0.472078 0.566002 -0.675858 0.522041 0.79727 0.303041 -0.056558 0.0179354 0 34.1742 
12 -45.5808 -10.732 2.12219 9 0.541121 0.761573 0.356642 -0.395055 0.6046 -0.691658 0.0263743 0.00445171 0 51.8713 
245 33.555 18.3954 1.86301 9 0.861041 0.152445 -0.485149 -0.284589 0.935081 -0.211263 0.0204084 0.00320497 0 24.9075 
22 -43.2374 -5.65782 2.54027 9 0.702018 0.534425 0.470703 -0.176861 0.771076 -0.611688 0.0184981 -0.00277225 0 19.6671 
24 -42.2602 0.492195 0.673162 9 -0.467968 0.531773 -0.705849 0.594075 0.780608 0.194231 -0.0393006 0.0183507 0 41.8374 
13 -43.8637 -17.5512 5.28169 9 0.10053 0.990333 0.0955781 -0.680672 0.138523 -0.719372 0.0327996 0.0147654 0 52.3272 
14 -38.78 -15.2101 9.08617 9 0.832397 0.377506 0.405716 -0.258792 0.912163 -0.317783 0.0285145 0.0201694 0 54.8826 
21 -40.4545 -7.90217 6.00725 9 0.796005 -0.047998 0.603384 0.22693 0.947806 -0.223978 0.0271938 0.00804286 0 42.534 
246 29.4216 19.9471 3.00343 9 0.950165 -0.206787 -0.233294 0.0960309 0.906096 -0.412028 0.0124545 0.00586168 0 22.1177 
122 -42.9052 -24.138 5.02592 9 0.713071 -0.100881 0.693796 -0.101753 0.964224 0.244783 0.00992351 0.00336446 0 68.1541 
234 31.4102 7.03318 6.17106 9 -0.129194 0.977051 -0.169352 -0.921345 -0.055128 0.384817 0.013933 0.00219258 0 30.311 
227 29.6911 2.43295 7.66976 9 0.00522062 0.988339 -0.15218 -0.91882 0.0647994 0.38932 0.0207105 0.00507808 0 27.3835 
123 -36.7022 -22.1536 10.3376 9 0.567983 0.704197 0.426031 -0.676124 0.694381 -0.246354 0.0353823 -0.00792844 0 52.3773 
247 28.6246 15.7882 4.82488 9 0.654633 -0.755313 0.0309526 0.688464 0.578785 -0.437064 0.0111111 0.00603011 0 33.4699 
15 -32.0323 -13.7973 11.9452 9 0.888856 -0.314583 0.333126 0.34392 0.938473 -0.0314212 0.0158165 0.0105195 0 34.4724 
19 -35.6629 -10.4156 9.83886 9 0.806251 -0.359867 0.469526 0.40728 0.913303 0.000633523 0.0278621 0.0103935 0 22.5358 
233 32.6797 12.6851 4.20367 9 0.500141 0.757934 -0.418803 -0.783397 0.602108 0.154127 0.0106073 0.00720842 0 22.903 
241 36.4326 31.7159 -6.308 9 0.835534 -0.0983534 -0.540563 -0.144688 0.909735 -0.389163 0.0185474 -0.0148884 0 28.122 
17 -30.06 -9.44898 11.8481 9 0.802823 -0.478405 0.355814 0.51382 0.857878 -0.00588194 0.0186786 0.00701433 0 20.0193 
18 -29.497 -6.00632 11.1235 9 -0.747071 0.535733 -0.393542 -0.593094 -0.80455 0.0306423 0.0199972 0.00535912 0 29.2349 
20 -35.6605 -7.05112 8.85201 9 0.747941 -0.371923 0.54978 0.477225 0.876998 -0.0559512 0.0273111 0.00759716 0 22.6393 
251 19.19 16.7285 7.58724 9 0.67747 0.608277 -0.413562 -0.692131 0.717491 -0.0784993 0.00977809 0.00765046 0 31.4816 
29 -25.2592 -2.52261 11.5521 9 0.776716 -0.51286 0.365633 0.570864 0.818498 -0.0646119 0.0247971 0.00297189 0 30.9207 
28 -29.7243 -1.14727 9.6516 9 0.780074 -0.408357 0.474056 0.504428 0.858714 -0.0903474 0.0254726 0.00450469 0 29.6585 
26 -35.358 -3.21755 7.57102 9 0.801408 -0.205454 0.561724 0.353232 0.920457 -0.167291 0.021736 0.0042002 0 26.5038 
25 -38.4664 0.274902 3.99856 9 0.837525 0.276219 0.47144 -0.0586203 0.903255 -0.42508 0.0161859 0.00505217 0 43.7265 
252 18.856 20.957 6.04724 9 0.882316 -0.469641 -0.0309213 0.410033 0.799259 -0.439385 0.00848667 0.00590724 0 22.2019 
259 16.0685 24.3658 5.33038 9 -0.814137 0.577231 -0.0631317 -0.543362 -0.718964 0.433416 0.0127588 0.00533282 0 23.3514 
242 30.0755 29.5243 -1.68347 9 0.905249 0.06991 -0.41909 -0.240131 0.897911 -0.368908 0.0148597 -0.00655871 0 47.2131 
38 -37.4321 7.03586 1.39629 9 -0.521708 0.511179 -0.68302 0.622498 0.775552 0.104952 -0.0298675 0.0089202 0 45.9501 
27 -33.4123 0.987816 7.00013 9 0.830856 -0.118339 0.543759 0.287304 0.92805 -0.237024 0.0198542 0.00513736 0 23.9351 
37 -32.3745 5.87936 5.32136 9 0.837368 -0.15793 0.523328 0.322899 0.915388 -0.240418 0.0142723 -0.00297513 0 38.576 
249 24.8141 15.0065 6.42065 9 0.542302 -0.830558 0.126816 0.79332 0.456481 -0.402825 0.0107586 0.00511588 0 19.3296 
255 28.3396 23.906 1.76101 9 0.957223 -0.00405949 -0.289323 -0.102771 0.929937 -0.353064 0.0100268 0.00549479 0 17.5386 
219 35.0988 5.0355 5.13241 9 -0.289555 0.954615 -0.0697735 -0.900416 -0.246938 0.358153 0.0187371 0.00942281 0 26.2107 
36 -28.2735 3.78241 8.30052 9 0.79527 -0.342358 0.500337 0.470188 0.869284 -0.152538 0.0181394 -0.00282469 0 21.6664 
206 33.3992 -15.3958 4.08274 9 0.859245 0.446923 -0.248912 -0.327575 0.854417 0.40332 0.00533066 0.00207731 0 26.4981 
261 19.4768 29.348 2.09683 9 -0.831488 0.54986 -0.0792537 -0.519726 -0.719529 0.460612 0.0106769 0.00221071 0 18.5632 
256 24.6305 25.8584 2.16907 9 -0.750564 0.660319 -0.0251532 -0.582873 -0.64364 0.495971 0.00852291 0.0037291 0 25.365 
265 22.1682 31.1416 0.413921 9 0.91811 -0.388145 -0.0801079 0.297491 0.808482 -0.507795 0.0105733 -0.00532412 0 28.0362 
30 -20.937 0.433764 11.8086 9 0.739281 -0.595693 0.314029 0.639818 0.766786 -0.0517017 0.0215814 -0.00549579 0 32.6786 
254 23.7448 20.5746 4.62995 9 -0.718816 0.695154 -0.00799993 -0.612958 -0.628308 0.479074 0.00569788 0.0025883 0 29.1731 
264 17.2055 36.4926 -1.05572 9 0.2836 0.829257 -0.481565 0.938356 -0.34348 -0.0388618 -0.0211772 0.0113787 0 28.704 
262 14.6358 33.9031 0.768656 9 0.973742 -0.222157 -0.0497251 0.170192 0.855453 -0.489117 0.0122548 -0.00666966 0 27.4417 
35 -24.445 4.17765 9.72015 9 0.770485 -0.492659 0.404525 0.559906 0.82638 -0.0600103 0.0227118 -0.00639448 0 21.3678 
222 45.0556 -1.45751 0.127894 9 0.79301 0.118935 -0.597487 -0.125043 0.991653 0.0314354 0.023774 0.0140823 0 38.9992 
118 -15.9883 -4.47957 13.4226 9 -0.513262 0.845648 -0.146432 -0.852543 -0.521997 -0.0262774 0.0172011 -0.00651933 0 35.4368 
117 -16.2294 2.07859 12.3965 9 -0.73674 0.618086 -0.274196 -0.645802 -0.763369 0.0144446 0.0173252 -0.0066146 0 30.2117 
31 -19.8908 6.38946 10.5583 9 0.733178 -0.582365 0.351143 0.615122 0.788105 0.0226981 0.0200491 -0.00141584 0 23.7827 
116 -13.6626 8.77086 11.575 9 0.850725 -0.429666 0.302744 0.482336 0.867045 -0.124842 0.0156083 0.0123635 0 45.6794 
32 -18.6394 10.4249 9.90991 9 0.842383 -0.358975 0.401907 0.445856 0.883172 -0.145668 0.0205728 0.00787054 0 21.9079 
34 -24.7328 9.07712 7.90309 9 -0.755295 0.3985 -0.520314 -0.506003 -0.85913 0.0765274 0.0177551 -0.00228308 0 40.4205 
115 -14.9899 15.2784 9.22262 9 0.971481 0.138183 0.19269 -0.0692201 0.942515 -0.326917 0.0218642 0.00771066 0 40.6778 
33 -21.5013 14.6766 7.22724 9 0.893397 -0.125098 0.4315 0.254825 0.932108 -0.257369 0.0138849 0.00287351 0 34.2465 
271 37.9039 42.2442 -11.3584 9 -0.0461993 -0.97322 0.225185 -0.747895 0.183137 0.638054 -0.0206856 0.0197944 0 34.8627 
112 -19.6666 19.76 5.96367 9 0.888061 0.415343 0.197074 -0.280719 0.829397 -0.483009 0.0173994 0.0106002 0 45.7741 
50 -28.285 17.4857 2.56977 9 0.805017 -0.182352 0.564531 0.345423 0.917723 -0.196132 0.0106875 0.00292954 0 54.9491 
48 -27.5374 11.9028 5.45426 9 0.817038 -0.290756 0.497906 0.402147 0.906195 -0.130724 0.0149889 -0.00263196 0 26.8316 
225 32.4605 -5.67017 6.58582 9 0.0180889 0.998599 0.0497352 -0.921795 -0.00261024 0.387669 0.0184474 0.00358528 0 26.4817 
272 34.4481 39.7413 -8.06349 9 -0.844991 0.0818486 0.528479 0.043445 -0.974445 0.220383 0.0301582 -0.0178642 0 22.8006 
273 28.1066 37.3113 -4.14753 9 -0.931285 0.101709 0.349804 0.00810769 -0.954209 0.29903 0.025394 -0.0202238 0 28.4717 
277 32.4836 49.8123 -9.21419 9 0.870043 -0.352472 -0.344657 0.236941 0.912076 -0.334629 0.026806 0.00202578 0 25.762 
226 28.9096 -1.4847 8.26259 9 -0.0956302 0.992448 0.0768285 -0.919317 -0.117654 0.375518 0.0228761 0.00887312 0 23.7538 
129 -8.15488 -36.6358 7.49044 9 0.274842 0.800512 0.532581 -0.961203 0.242286 0.13186 0.0158672 -0.00542489 0 32.9377 
47 -31.1805 11.8483 3.44482 9 0.754006 -0.274759 0.596643 0.423525 0.897652 -0.121852 0.0121799 -0.00174185 0 23.3622 
46 -34.2901 12.9633 0.817485 9 -0.70617 0.292774 -0.644676 0.486164 0.862439 -0.14087 -0.0236756 0.00308815 0 30.1561 
220 38.5726 3.4214 3.81254 9 0.875352 -0.122272 -0.46777 0.0556456 0.986543 -0.153744 0.019191 0.0162227 0 26.1984 
45 -37.4474 12.4667 -1.07657 9 -0.742072 0.350119 -0.571617 0.478207 0.874083 -0.0854255 -0.0821845 0.00894878 0 19.7028 
40 -43.005 9.33998 -2.06758 9 -0.837716 0.528785 -0.136454 0.525412 0.848539 0.0626455 -0.098408 0.0189442 0 30.2234 
228 24.262 0.858662 9.64841 9 -0.0894284 0.994698 -0.0507792 -0.963542 -0.0734938 0.257266 0.0168343 0.00774264 0 29.526 
44 -38.8082 15.1902 -2.38937 9 -0.892558 0.382117 -0.239429 0.427399 0.886163 -0.179013 -0.0922338 0.0131695 0 21.9504 
43 -41.6569 15.7732 -2.66156 9 -0.896905 0.441909 -0.0166773 0.440131 0.888362 -0.130756 -0.0849688 0.0194061 0 26.0474 
52 -37.3421 22.8749 -4.3624 9 -0.952976 0.302344 -0.0206258 0.296327 0.915431 -0.272352 -0.104559 0.0172326 0 19.086 
51 -35.049 20.3127 -3.0573 9 -0.869513 0.170391 -0.463588 0.300107 0.927738 -0.221896 -0.0957551 0.00822028 0 25.5267 
49 -32.1249 20.573 -1.45519 9 -0.796139 0.0806431 -0.599716 0.293141 0.91842 -0.265655 -0.0441905 0.0107083 0 31.8857 
268 33.8473 35.7567 -6.48172 9 -0.863311 0.0534356 0.501835 0.10116 -0.955875 0.275808 0.023552 -0.0233424 0 32.534 
267 28.2366 32.9431 -2.54707 9 -0.089119 0.909387 -0.406292 0.933605 -0.0658614 -0.352198 -0.0190344 0.0174376 0 28.0311 
104 -27.394 24.575 -0.315844 9 0.309021 0.896525 -0.317412 -0.811512 0.0745251 -0.579564 0.0186567 0.00670153 0 42.596 
260 15.236 28.6698 3.505 9 -0.872591 0.48823 -0.0147267 -0.431824 -0.756986 0.490409 0.0161978 0.00433643 0 30.7433 
61 -29.9569 28.2494 -4.51531 9 -0.835387 -0.0182662 -0.549358 0.266779 0.860362 -0.434288 -0.0470152 0.0163312 0 31.3971 
113 -23.9962 22.1766 2.9143 9 0.874889 0.451573 0.175072 -0.305542 0.795084 -0.523913 0.016571 0.0138129 0 27.4761 
257 20.6356 25.1254 3.77891 9 0.7152 -0.692744 0.0927033 0.650434 0.611163 -0.451017 0.0104067 0.00578456 0 18.3533 
60 -33.1177 28.2827 -6.09718 9 -0.94367 0.104555 -0.313936 0.237011 0.87564 -0.42081 -0.0932714 0.018552 0 33.3704 
59 -29.8787 35.9006 -10.3839 9 -0.919849 -0.0219495 -0.391658 0.22205 0.793937 -0.566001 -0.0730448 0.0180508 0 32.47 
58 -34.1393 37.431 -11.9554 9 -0.973976 0.226602 0.0047245 0.178158 0.778308 -0.602077 -0.0763286 0.0259321 0 36.8893 
62 -26.1181 33.4865 -5.94045 9 0.230547 0.808915 -0.540836 -0.846464 -0.107421 -0.521497 0.0153265 -0.00848727 0 35.9504 
103 -23.7109 30.0186 -1.75891 9 0.840973 -0.145859 0.521046 0.381468 0.842766 -0.379773 0.0138325 0.0102306 0 44.5591 
136 25.3322 -20.6539 5.71481 9 -0.147475 -0.958515 -0.243926 -0.910401 0.0351666 0.41223 -0.0122763 0.00151317 0 23.4126 
102 -19.3259 34.6252 -3.01662 9 0.607427 -0.445527 0.657676 0.711115 0.673963 -0.200223 0.0167359 0.00733992 0 40.4288 
63 -22.9203 37.8686 -7.98705 9 -0.173502 -0.727657 0.663636 0.898858 0.158355 0.40863 0.013159 -0.000473511 0 35.2802 
101 -15.5666 38.9009 -4.8109 9 0.69908 -0.361419 0.616979 0.646969 0.687152 -0.330535 0.0216661 0.00416761 0 34.4625 
64 -18.5046 40.9433 -8.34516 9 0.536649 -0.354508 0.765723 0.730874 0.648801 -0.211849 0.0184334 0.00163489 0 21.5932 
278 34.3522 46.6858 -9.49409 9 -0.827379 0.303793 0.472392 -0.200448 -0.945418 0.256916 0.032945 -0.00461232 0 18.2908 
65 -14.0941 44.0193 -8.9924 9 0.425593 -0.491246 0.759965 0.82121 0.562437 -0.0963291 0.0277104 0.000149884 0 36.6748 
275 29.5154 46.1045 -7.10041 9 0.921786 -0.230692 -0.311595 0.142705 0.949168 -0.280564 0.0240368 -0.00854346 0 26.5529 
276 32.0486 42.1031 -7.34955 9 -0.909834 0.158824 0.383376 -0.0423624 -0.954581 0.294926 0.026787 -0.0135325 0 24.3501 
66 -9.64481 41.5391 -4.79097 9 0.826383 -0.284983 0.485671 0.518063 0.722779 -0.457385 0.0256489 -0.00516209 0 39.1554 
67 -7.35288 45.6047 -7.46259 9 0.177466 0.858574 -0.480995 0.947311 -0.0166 0.319885 -0.0679373 0.0203172 0 36.8829 
221 42.3573 1.58697 1.79959 9 0.781682 0.349092 -0.516826 -0.331539 0.934476 0.129753 0.0216604 0.0117 0 28.1763 
99 -10.6164 36.7622 -1.36911 9 0.853983 -0.288449 0.433024 0.464695 0.797193 -0.385411 0.0196077 0.00598356 0 23.6663 
97 -6.20392 37.3275 -0.888349 9 0.887709 -0.332923 0.318016 0.451336 0.765685 -0.458282 0.016944 0.00710225 0 26.5996 
96 -3.85693 41.0062 -3.35705 9 0.422057 0.741655 -0.521359 0.90143 -0.282175 0.328331 -0.0203542 0.0163817 0 23.9509 
87 -0.920412 42.8213 -4.21609 9 0.439748 0.800837 -0.40655 0.886525 -0.314543 0.339317 -0.033136 0.0106412 0 16.6038 
86 -0.287427 46.3474 -5.63654 9 0.895973 -0.321917 0.305944 0.393575 0.894706 -0.211187 0.0217856 -0.0204823 0 23.1946 
68 -1.08737 49.6273 -7.19872 9 0.734689 -0.481264 0.478139 0.6041 0.784818 -0.13829 0.0341523 -0.00230144 0 30.3527 
269 39.7523 33.6068 -9.87658 9 0.614301 -0.785099 -0.0790787 -0.536729 -0.489208 0.687457 -0.0259983 0.0010149 0 19.3018 
270 39.1103 37.1597 -11.015 9 0.332485 -0.94014 0.0747722 -0.692311 -0.189462 0.696283 -0.0327025 0.00695023 0 24.3317 
266 22.9439 34.7713 -1.55112 9 0.149875 0.883754 -0.443301 0.959623 -0.237972 -0.149978 -0.0200873 0.016251 0 21.0673 
82 6.24517 47.694 -5.22206 9 0.955032 -0.260013 0.142503 0.290692 0.915774 -0.277232 0.0132648 -0.0113014 0 20.4913 
69 4.73535 50.9667 -6.46118 9 -0.810669 0.519807 -0.269475 -0.579376 -0.778592 0.241078 0.0247922 -0.00014345 0 18.9092 
76 11.6901 49.8295 -5.48189 9 0.936993 -0.316386 0.148135 0.342692 0.914798 -0.213791 0.013362 -0.00345651 0 35.5392 
70 7.5346 53.4101 -6.96741 9 0.714763 -0.624399 0.315024 0.68096 0.724013 -0.109997 0.0270789 0.000932652 0 17.6745 
72 14.0797 54.2616 -6.74457 9 0.956484 -0.280853 0.0791229 0.291028 0.898734 -0.327993 0.0169473 0.000901237 0 32.0898 
71 7.98913 56.3078 -8.09734 9 0.836637 -0.415344 0.35711 0.516753 0.814713 -0.263079 0.0283975 -0.00781244 0 24.8007 
263 10.8328 37.3203 -0.513911 9 -0.947567 0.318142 -0.0300365 -0.294672 -0.833542 0.467308 0.0190093 -0.0129296 0 20.268 
75 19.1856 48.6656 -5.248 9 0.987299 -0.157518 -0.0206956 0.146141 0.951539 -0.270587 0.0187506 -3.98585e-05 0 42.3378 
73 20.7769 54.5743 -7.13687 9 -0.895168 0.440807 -0.0660577 -0.438594 -0.8447 0.306784 0.020188 -0.0147762 0 30.7813 
74 24.472 49.8857 -6.39433 9 0.935245 -0.312532 -0.166255 0.255729 0.921223 -0.293174 0.0269117 -0.00526804 0 36.2823 
274 26.0972 42.9587 -4.9965 9 0.940654 -0.128695 -0.31402 0.0376618 0.959178 -0.280284 0.0294704 -0.0076691 0 38.3592 
77 15.8241 45.4929 -4.14841 9 0.941706 -0.334882 0.0322971 0.33123 0.906032 -0.263426 0.0152321 -0.0108675 0 22.827 
78 21.5596 42.3856 -3.78725 9 -0.992901 0.115806 0.0271373 -0.105854 -0.964378 0.242424 0.0250681 -0.00983484 0 25.1883 
81 11.1153 43.9858 -3.51603 9 0.953529 -0.269597 0.134534 0.300049 0.890304 -0.342533 0.0188291 -0.0176085 0 31.6124 
80 15.9846 40.7228 -2.68972 9 -0.345495 -0.86534 0.363069 -0.929888 0.367748 -0.00838583 -0.0229937 0.0127978 0 32.5028 
79 22.6554 38.1181 -2.80293 9 0.15226 0.929987 -0.334575 0.97582 -0.195168 -0.0984102 -0.0213127 0.0190408 0 19.7501 
84 7.90808 39.6983 -1.65394 9 0.355447 0.824645 -0.440021 0.933968 -0.294772 0.202022 -0.0174233 0.0153979 0 23.243 
83 4.77098 43.6961 -3.79782 9 0.227998 0.905686 -0.35742 0.969254 -0.176232 0.171724 -0.0235518 0.0136496 0 36.8382 
88 1.64382 39.1337 -1.55663 9 0.477522 0.733072 -0.484333 0.878505 -0.389475 0.276654 -0.0152782 0.0121001 0 28.676 
89 6.56989 35.9087 0.50691 9 0.861277 -0.445785 0.243879 0.506793 0.71874 -0.475997 0.0117494 -0.00445339 0 21.9709 
95 -2.02274 35.3223 0.861463 9 0.709875 -0.559558 0.427753 0.701134 0.619181 -0.353591 0.0134575 0.00858243 0 33.37 
90 4.05279 34.1875 1.64813 9 0.751078 -0.583964 0.308006 0.660086 0.655042 -0.367704 0.0130125 0.00365364 0 23.4734 
175 10.0852 30.5959 3.2553 9 -0.988821 0.145424 -0.0329376 -0.143116 -0.863652 0.483345 0.0148913 0.00115626 0 45.7199 
217 43.8551 7.7122 -0.512429 9 0.618529 0.470636 -0.629224 -0.484866 0.85875 0.165688 0.0203681 0.0119761 0 41.4854 
91 1.87317 30.7715 3.5216 9 -0.996118 -0.0562602 0.0677055 0.0807713 -0.889957 0.448834 0.00849548 0.00496309 0 39.1498 
93 -3.75099 27.2234 5.1636 9 0.816799 -0.492769 0.300029 0.572529 0.756398 -0.316341 0.00887706 0.00454535 0 26.3728 
92 0.423826 26.4744 5.76572 9 0.810397 0.524806 -0.260452 -0.585793 0.718134 -0.375673 0.0133252 0.00171676 0 16.2109 
174 5.81422 27.008 5.4066 9 0.999122 -0.0408694 -0.00919516 0.0307747 0.865015 -0.500802 0.009853 0.00414547 0 24.5326 
94 -6.33596 31.9884 2.38851 9 0.583211 -0.66247 0.470105 0.806129 0.543317 -0.234441 0.0114542 0.00660906 0 35.3795 
173 3.13745 22.854 7.62897 9 0.628353 0.70441 -0.330119 -0.77786 0.563285 -0.278646 0.0150127 0.012865 0 28.319 
171 -2.60934 23.1211 7.15153 9 0.138564 -0.906992 0.3977 0.98426 0.170597 0.0461313 0.00662833 0.00158143 0 18.2577 
108 -9.57433 29.1014 3.57055 9 0.805327 -0.462549 0.370806 0.574662 0.762754 -0.296597 0.0152358 0.00175452 0 37.1168 
110 -8.4773 23.0647 6.72471 9 0.769683 -0.548694 0.326379 0.636387 0.700218 -0.323583 0.0102794 -0.000595887 0 39.3853 
100 -13.8059 34.1088 -0.405679 9 0.850284 -0.282596 0.444023 0.473342 0.779464 -0.410345 0.0199733 0.00632791 0 32.4999 
106 -17.0836 29.7785 1.407 9 0.858705 -0.191884 0.475191 0.39371 0.840587 -0.37203 0.0197503 0.00680852 0 32.4134 
105 -20.6871 26.1478 2.2234 9 0.921162 0.0938997 0.377682 0.117357 0.858262 -0.499613 0.0171139 0.0096311 0 25.4039 
111 -16.6031 24.3399 4.81686 9 0.974236 0.0541878 0.218927 0.0549212 0.884484 -0.463326 0.02334 0.00988342 0 23.4508 
107 -13.3805 27.0367 4.10086 9 0.918995 -0.263052 0.293688 0.365775 0.846864 -0.386043 0.0225714 0.00337379 0 21.7911 
114 -13.3466 20.8306 7.45002 9 0.985728 0.0749559 0.150738 0.00329521 0.886645 -0.46244 0.0262903 0.0142918 0 24.5002 
169 -9.68443 18.3424 8.97087 9 0.971372 0.227394 -0.0687642 -0.236658 0.900997 -0.36359 0.0183185 0.00964187 0 21.6083 
170 -5.34825 18.4526 8.96624 9 -0.518431 0.78769 -0.332827 -0.855115 -0.476296 0.204744 0.00484072 -0.00227697 0 19.2936 
168 -8.78272 13.1846 11.0331 9 0.857662 0.50584 -0.0924226 -0.500913 0.781254 -0.372463 0.0184888 0.0104032 0 29.9388 
167 -9.28182 6.63425 12.8581 9 0.210289 0.966201 -0.149112 -0.973827 0.193561 -0.119142 0.017314 0.0147269 0 29.7762 
166 -11.6692 1.79798 13.3327 9 0.735118 -0.652108 0.185356 0.664401 0.747354 -0.00570769 0.0148562 0.00596035 0 20.7941 
119 -11.4618 -4.23714 13.906 9 -0.47378 0.873323 -0.113315 -0.873238 -0.482542 -0.0678859 0.0112915 -0.00289617 0 25.3955 
120 -11.2404 -10.9898 14.1618 9 -0.408834 0.91198 -0.0338855 -0.909459 -0.410224 -0.0678228 0.0146835 -0.000132122 0 31.2337 
163 -6.78717 -8.73709 14.5493 9 -0.643658 0.762438 -0.0662715 -0.75989 -0.646987 -0.0630463 0.021496 0.00575155 0 24.8024 
164 -8.16942 -2.18451 14.1462 9 0.786472 -0.604407 0.127098 0.609283 0.792953 0.000648221 0.0110557 0.00732552 0 24.8146 
125 -14.6275 -26.4591 12.2297 9 -0.113794 0.959507 0.257676 -0.99345 -0.112619 -0.0193642 0.0308058 -0.0187753 0 22.7235 
124 -13.076 -21.7304 13.1811 9 -0.230581 0.967541 0.10343 -0.972611 -0.225965 -0.0544808 0.0188036 -0.0139195 0 26.5445 
121 -12.6264 -16.9671 13.7743 9 -0.397564 0.915623 0.0598172 -0.910434 -0.385514 -0.149962 0.0139807 -0.00366492 0 26.8528 
126 -10.7036 -27.4636 11.8938 9 -0.190517 0.934172 0.301705 -0.981669 -0.182959 -0.053394 0.024966 -0.00841864 0 27.6078 
159 -7.72131 -22.0431 13.2496 9 0.778388 -0.615095 -0.125583 0.627245 0.770284 0.115007 0.0169369 0.0136819 0 23.7292 
160 -8.87272 -16.8474 14.0306 9 0.836745 -0.541571 -0.080989 0.546203 0.835975 0.0530005 0.0228697 0.00680688 0 17.8482 
127 -7.63503 -30.6423 10.6869 9 0.108259 0.907495 0.405873 -0.993653 0.111324 0.0161285 0.0241682 0.00555424 0 24.5798 
156 -4.72453 -25.3509 12.2919 9 0.216446 0.945926 0.241609 -0.971253 0.183511 0.151631 0.01977 0.0116537 0 27.0188 
157 -4.44851 -19.0095 13.4322 9 0.786337 -0.59155 -0.178166 0.608387 0.791603 0.0568253 0.013407 0.00240853 0 18.217 
161 -5.56328 -13.508 14.2692 9 0.730902 -0.672533 -0.116108 0.681608 0.727934 0.074315 0.0200711 0.00316509 0 29.0804 
186 -6.71778 2.67613 13.742 9 0.887313 0.459896 0.0342238 -0.448535 0.877878 -0.167766 0.0119101 0.0102244 0 17.6365 
130 -4.40619 -35.3882 8.20608 9 0.804122 0.560712 0.19746 -0.587162 0.697241 0.411212 0.0234454 0.00625292 0 16.2223 
128 -4.14348 -30.6206 10.5875 9 0.350656 0.873964 0.336493 -0.931518 0.288466 0.2215 0.0248736 0.0142147 0 22.9783 
165 -3.11185 -2.89731 14.4595 9 0.848771 -0.526427 0.0496248 0.528663 0.846677 -0.0604467 0.0189766 0.00832978 0 49.8424 
187 -3.8074 4.73272 13.6121 9 0.559381 0.821872 -0.107793 -0.828057 0.548159 -0.117659 0.01709 0.0125917 0 21.8113 
185 -4.63718 11.1936 11.9746 9 -0.0338433 0.947865 -0.31687 -0.999423 -0.0330233 0.00795946 0.0178421 0.0120489 0 28.2089 
183 -3.72145 16.5493 9.79372 9 -0.500887 0.790794 -0.351792 -0.86529 -0.46674 0.18283 0.00414882 -0.00231207 0 11.1695 
131 0.435608 -33.4376 8.61215 9 0.660109 0.709002 0.248139 -0.734095 0.538857 0.413204 0.0175915 0.00685662 0 33.3589 
154 1.37446 -28.6572 10.446 9 -0.167263 0.92773 0.333676 -0.969943 -0.215511 0.112987 0.0196792 0.00775086 0 40.9525 
155 -1.04272 -22.8485 12.3344 9 -0.56645 0.794116 0.220258 -0.811037 -0.584586 0.0218697 0.0115399 0.000467665 0 20.847 
162 -0.203948 -16.6796 13.4338 9 -0.801149 0.577299 0.157752 -0.594756 -0.797327 -0.102642 0.0107727 0.00372373 0 42.2339 
148 0.391201 -9.72076 14.2361 9 -0.737955 0.661555 0.133291 -0.66605 -0.745777 0.0139307 0.0166867 0.00704954 0 43.4397 
191 2.38543 2.95367 13.6638 9 -0.169499 0.976863 -0.13042 -0.982739 -0.15758 0.0969153 0.015099 0.00726731 0 41.1529 
188 -0.626516 7.92186 12.9169 9 -0.193356 0.949244 -0.24809 -0.97942 -0.171832 0.105875 0.0190873 0.00966393 0 30.7867 
182 0.114576 15.0209 10.6378 9 -0.644651 0.710599 -0.281912 -0.764115 -0.610286 0.208998 0.013875 0.000841037 0 35.7845 
172 0.0624858 19.8856 8.74949 9 0.599344 -0.724539 0.340338 0.792826 0.59598 -0.127415 0.0115277 0.00322343 0 21.1597 
132 3.12702 -37.4443 6.13232 9 0.799411 0.581693 0.150254 -0.578498 0.677805 0.453785 0.022791 -0.00314011 0 30.6354 
152 3.78752 -22.2766 11.8305 9 0.576448 -0.771881 -0.268155 0.806915 0.589451 0.0378846 0.0131469 0.00667049 0 32.422 
149 4.57992 -14.8621 13.1706 9 0.978651 -0.0474085 -0.199988 0.0753367 0.988054 0.13444 0.0131512 0.010441 0 31.6096 
147 2.34631 -5.84202 14.2787 9 0.592606 -0.797771 -0.111262 0.793252 0.601995 -0.0913923 0.0185359 0.00741461 0 24.3593 
192 4.37644 -1.60728 13.9883 9 0.471864 -0.881645 -0.00679386 0.874546 0.469015 -0.123264 0.0196793 0.00610329 0 31.6221 
189 2.51654 12.2321 11.5479 9 -0.623528 0.755926 -0.199471 -0.781144 -0.59192 0.198609 0.0162277 0.00354385 0 14.5091 
133 7.84299 -33.1876 7.03485 9 0.845379 0.534154 -0.00371245 -0.466511 0.741673 0.481963 0.00966928 -0.00155706 0 41.7225 
153 6.82138 -27.7516 9.63773 9 -0.401412 0.827045 0.393529 -0.886049 -0.459454 0.0617974 0.0179109 0.00624866 0 28.9609 
146 8.04326 -7.18371 13.3482 9 0.481076 -0.864521 -0.145497 0.862935 0.496239 -0.0953423 0.0163558 0.00259355 0 26.3106 
190 5.51133 9.35876 12.1888 9 -0.50499 0.84704 -0.16586 -0.860947 -0.480685 0.166468 0.0159177 0.00542743 0 31.7778 
180 7.50233 14.1045 10.7077 9 0.95198 -0.304036 0.0359955 0.297784 0.892204 -0.339554 0.0152571 0.00861526 0 25.3271 
181 5.45831 17.7798 9.57064 9 0.895986 -0.435808 0.0853297 0.437191 0.831924 -0.341712 0.0157779 0.00669412 0 20.5712 
151 9.39895 -23.824 10.3089 9 -0.245689 0.910973 0.331309 -0.937492 -0.310208 0.157736 0.018779 0.00703677 0 26.5981 
150 7.97747 -19.0652 11.7348 9 -0.173756 0.964197 0.200332 -0.95692 -0.213361 0.196932 0.0107288 0.0100114 0 23.6152 
145 9.13672 -12.5321 12.5108 9 -0.685914 0.682403 0.252684 -0.694748 -0.717405 0.0515355 0.0102241 0.00196776 0 37.333 
193 10.6389 -2.68465 13.1316 9 -0.232699 0.967881 0.095174 -0.953299 -0.246372 0.174707 0.0209815 0.00711759 0 34.0711 
194 11.243 2.55647 12.6926 9 -0.250678 0.964094 -0.0876576 -0.952456 -0.229424 0.200479 0.0185051 0.00685621 0 41.5876 
195 8.10998 5.99289 12.6643 9 0.613007 -0.786713 0.0728391 0.780922 0.589328 -0.207012 0.0153943 0.00760873 0 23.7985 
177 7.98041 21.6274 8.01355 9 0.888364 -0.446238 0.108074 0.454871 0.823358 -0.339374 0.020398 0.0135797 0 25.922 
134 12.474 -27.6521 8.06559 9 0.256641 0.914719 0.312129 -0.926897 0.14143 0.347647 0.0118032 -0.00130252 0 26.4829 
144 12.0254 -18.0865 10.9376 9 -0.452455 0.853359 0.258964 -0.863593 -0.491711 0.11148 0.0109152 0.0044863 0 19.558 
197 12.218 9.38807 11.3343 9 0.30382 -0.941781 0.144021 0.940425 0.272232 -0.203693 0.0149109 0.0101763 0 29.8478 
179 12.2969 14.0472 10.1532 9 0.945728 -0.320466 -0.0538497 0.284876 0.897341 -0.337082 0.0145814 0.013665 0 15.5262 
178 12.7986 18.7963 8.26954 9 0.979642 -0.0534533 -0.193507 -0.0162791 0.939575 -0.341957 0.0115852 0.00583151 0 42.9188 
176 10.9387 24.4429 6.38535 9 -0.886243 0.457855 -0.0702945 -0.434981 -0.770404 0.466121 0.0204908 0.0100292 0 24.9978 
143 14.1078 -22.2525 9.47579 9 -0.179093 0.936442 0.301666 -0.951581 -0.242743 0.188598 0.0178499 0.00861043 0 24.2106 
142 16.0878 -16.4385 10.0771 9 -0.648338 0.698767 0.302296 -0.71369 -0.696069 0.0783271 0.0111369 -0.00291355 0 36.9505 
141 13.8178 -9.40264 11.79 9 -0.30373 0.929107 0.21097 -0.923437 -0.341586 0.174879 0.00688188 -0.00186812 0 40.5381 
135 18.4355 -23.07 7.70344 9 0.748376 0.654934 -0.104858 -0.565508 0.712654 0.415121 0.00795895 -0.00687785 0 40.902 
140 18.9961 -9.0095 10.752 9 -0.123899 0.974629 0.186403 -0.969437 -0.158977 0.186862 0.0146432 0.00737104 0 24.1463 
200 16.6702 -4.51675 11.8169 9 0.0698079 0.995213 0.0683965 -0.973535 0.0530095 0.222303 0.0213217 0.00437377 0 25.41 
199 17.5369 -0.28729 11.6199 9 -0.0282232 0.997627 -0.0628025 -0.96844 -0.0117244 0.24897 0.0202836 0.00543824 0 28.6348 
198 16.5417 5.05571 11.2924 9 -0.350481 0.933856 -0.0712463 -0.914077 -0.3245 0.243235 0.0154812 0.00632864 0 24.7775 
138 21.7985 -16.1822 8.50492 9 0.679274 -0.590729 -0.435461 0.659047 0.752061 0.00783029 0.0180752 -0.00101798 0 26.1346 
139 21.4688 -12.1812 9.56511 9 -0.551818 0.783685 0.285194 -0.799307 -0.594559 0.0872202 0.0173286 0.00791449 0 31.148 
201 21.5682 -4.58045 10.5172 9 0.0728403 0.997321 0.00677861 -0.962463 0.0685095 0.262622 0.0183436 0.00894797 0 21.0752 
137 24.074 -18.4615 6.93412 9 0.827782 -0.376571 -0.415899 0.444972 0.892154 0.0778571 0.00670095 -0.00450433 0 17.1733 
202 26.0718 -6.49076 8.94952 9 -0.203852 0.963011 0.176221 -0.919573 -0.25011 0.303037 0.0186808 0.00782834 0 47.9481 
205 26.9339 -12.661 7.58947 9 0.28469 -0.902483 -0.323228 0.889965 0.374129 -0.260749 0.0171405 0.00641703 0 22.4818 
204 28.9398 -15.2677 6.0198 9 -0.226408 0.880717 0.416026 -0.89967 -0.35277 0.25719 0.00725766 0.00310752 0 21.1455 
203 31.5134 -9.86831 6.37309 9 -0.00331533 0.973015 0.230718 -0.936572 -0.0838796 0.34029 0.0203021 0.00167259 0 26.0594 
207 36.3803 -10.1083 4.23856 9 -0.0361308 0.976166 0.213996 -0.924716 -0.113854 0.363232 0.0211046 0.00432057 0 30.0124 
208 38.3231 -13.1792 2.54954 9 0.165888 0.953279 0.252467 -0.880984 0.0282219 0.472305 0.0129051 0.0051323 0 19.8868 
209 43.0832 -10.3646 0.859254 9 0.788101 0.533937 -0.306282 -0.388972 0.817627 0.424485 0.02889 0.00153951 0 30.3143 
210 41.5977 -6.6622 2.41139 9 0.584928 0.780832 -0.219454 -0.660484 0.615595 0.429887 0.0278264 0.0183406 0 29.2448 
216 46.338 13.0143 -4.72218 9 0.687209 -0.621562 -0.376039 0.302767 0.715585 -0.6295 0.0142684 0.00474799 0 35.9027 
211 47.5711 -5.58584 -1.911 9 0.723511 0.1465 -0.674588 -0.0726833 0.987956 0.1366 0.0261951 0.0125031 0 31.0147 
214 48.0618 3.30199 -2.96757 9 -0.671164 -0.25656 0.695497 0.270234 -0.958319 -0.0927316 0.0220359 0.0164444 0 42.6891 
215 50.1195 6.54021 -6.12966 9 -0.455262 0.861682 0.224144 -0.478419 -0.449064 0.754623 0.0178511 -0.00128463 0 39.2431 
212 51.0621 -3.8676 -5.66139 9 0.446831 0.730467 -0.516489 -0.44881 0.682454 0.576911 0.0129116 0.00639826 0 44.6569 
213 52.7592 -0.0975451 -7.8736 9 -0.0839864 0.996392 -0.0122136 -0.586062 -0.0394792 0.809304 0.0189769 -0.0119296 0 27.1091 
1 2
1 56
1 57
238 239
238 237
238 216
2 3
2 55
2 56
2 1
56 2
56 55
56 58
56 57
56 1
57 56
57 1
3 4
3 53
3 54
3 55
3 2
55 3
55 54
55 58
55 56
55 2
231 228
231 232
231 250
231 253
231 198
231 229
229 231
229 198
229 199
229 228
229 231
4 3
4 5
4 42
4 53
4 3
232 231
232 228
232 227
232 234
232 233
232 247
232 249
232 250
232 231
53 4
53 42
53 43
53 52
53 54
53 3
54 53
54 52
54 60
54 59
54 58
54 55
54 3
5 6
5 42
5 4
42 5
42 6
42 7
42 40
42 43
42 53
42 4
239 237
239 238
239 240
239 243
239 245
239 244
239 237
6 7
6 42
6 5
253 250
253 251
253 178
253 179
253 197
253 198
253 231
250 231
250 232
250 249
250 251
250 253
7 8
7 41
7 40
7 42
7 6
8 7
8 9
8 23
8 41
8 7
41 8
41 23
41 24
41 38
41 40
41 7
236 237
236 244
236 245
236 233
236 234
236 219
236 218
236 237
237 244
237 236
237 218
237 216
237 238
237 239
240 243
240 239
240 241
240 242
240 243
243 242
243 255
243 246
243 245
243 239
243 240
244 237
244 239
244 245
244 236
244 237
218 237
218 236
218 219
218 220
218 217
218 216
218 237
9 10
9 23
9 8
23 9
23 10
23 11
23 24
23 41
23 8
10 11
10 23
10 9
224 223
224 225
224 207
224 210
224 222
224 221
224 220
224 223
223 224
223 220
223 219
223 227
223 226
223 225
223 224
11 12
11 22
11 24
11 23
11 10
12 13
12 14
12 21
12 22
12 11
245 244
245 239
245 243
245 246
245 247
245 233
245 236
22 12
22 21
22 25
22 24
22 11
24 22
24 25
24 38
24 41
24 23
24 11
13 122
13 123
13 14
13 12
14 13
14 123
14 15
14 19
14 21
14 12
21 14
21 19
21 20
21 26
21 25
21 22
21 12
246 245
246 243
246 255
246 254
246 247
246 245
122 123
122 13
234 219
234 236
234 233
234 232
234 227
227 234
227 232
227 228
227 226
227 223
227 219
227 234
123 122
123 14
123 13
247 233
247 245
247 246
247 254
247 249
247 232
247 233
15 17
15 19
15 14
19 15
19 17
19 20
19 21
19 14
233 232
233 234
233 236
233 245
233 247
241 269
241 268
241 242
241 240
17 18
17 20
17 19
17 15
18 29
18 28
18 26
18 20
18 17
20 18
20 26
20 21
20 19
20 17
251 252
251 178
251 253
251 250
251 249
251 254
29 30
29 35
29 36
29 28
29 18
28 29
28 36
28 27
28 26
28 18
26 18
26 28
26 27
26 25
26 21
26 20
25 26
25 27
25 37
25 38
25 24
25 22
25 21
252 259
252 178
252 251
252 254
252 257
252 259
259 257
259 260
259 176
259 178
259 252
242 243
242 240
242 241
242 268
242 267
242 265
242 256
242 255
242 243
38 25
38 37
38 47
38 46
38 45
38 40
38 41
38 24
27 26
27 28
27 36
27 37
27 25
37 27
37 36
37 34
37 48
37 47
37 38
37 25
249 247
249 254
249 251
249 250
249 232
249 247
255 246
255 243
255 242
255 256
255 254
255 246
219 218
219 236
219 234
219 227
219 223
219 220
36 28
36 29
36 35
36 34
36 37
36 27
206 208
206 207
206 203
206 204
261 265
261 262
261 260
261 257
261 256
256 261
256 257
256 254
256 255
256 242
256 265
265 256
265 242
265 267
265 266
265 264
265 262
265 261
30 118
30 117
30 31
30 35
30 29
254 251
254 249
254 247
254 246
254 255
254 256
254 257
254 252
254 251
264 262
264 265
264 266
264 79
264 80
264 263
264 262
262 264
262 263
262 89
262 175
262 260
262 261
262 265
262 264
35 30
35 31
35 34
35 36
35 29
222 224
222 210
222 211
222 212
222 214
222 221
222 224
118 120
118 119
118 117
118 30
117 118
117 119
117 166
117 116
117 31
117 30
31 117
31 116
31 32
31 34
31 35
31 30
116 117
116 166
116 167
116 168
116 115
116 32
116 31
32 116
32 115
32 33
32 34
32 31
34 32
34 33
34 48
34 37
34 36
34 35
34 31
115 116
115 168
115 169
115 114
115 112
115 33
115 32
33 115
33 112
33 50
33 48
33 34
33 32
271 278
271 276
271 272
271 270
112 115
112 114
112 111
112 105
112 113
112 50
112 33
50 112
50 113
50 104
50 49
50 46
50 47
50 48
50 33
48 33
48 50
48 47
48 37
48 34
225 223
225 226
225 202
225 203
225 207
225 224
225 223
272 273
272 268
272 270
272 271
272 276
272 273
273 268
273 272
273 276
273 274
273 79
273 266
273 267
277 74
277 275
277 278
226 227
226 228
226 202
226 225
226 223
226 227
129 130
129 127
47 48
47 50
47 46
47 38
47 37
46 47
46 50
46 49
46 51
46 45
46 38
220 219
220 223
220 224
220 221
220 217
220 218
220 219
45 46
45 51
45 44
45 40
45 38
40 41
40 38
40 45
40 44
40 43
40 42
40 7
228 229
228 199
228 201
228 202
228 226
228 227
228 232
228 231
228 229
44 45
44 51
44 52
44 43
44 40
43 40
43 44
43 52
43 53
43 42
52 44
52 51
52 60
52 54
52 53
52 43
51 45
51 46
51 49
51 61
51 60
51 52
51 44
49 50
49 104
49 61
49 51
49 46
268 267
268 242
268 241
268 269
268 270
268 272
268 273
267 273
267 266
267 265
267 242
267 268
104 50
104 113
104 105
104 103
104 61
104 49
260 261
260 262
260 175
260 176
260 259
260 257
260 261
61 104
61 103
61 62
61 59
61 60
61 51
61 49
113 112
113 105
113 104
113 50
257 259
257 252
257 254
257 256
257 261
257 260
257 259
60 61
60 59
60 54
60 52
60 51
59 60
59 61
59 62
59 58
59 54
58 59
58 56
58 55
58 54
62 61
62 103
62 102
62 63
62 59
103 104
103 105
103 106
103 102
103 62
103 61
136 204
136 137
136 135
102 103
102 106
102 100
102 101
102 63
102 62
63 102
63 101
63 64
63 62
101 102
101 100
101 99
101 66
101 65
101 64
101 63
64 101
64 65
64 63
278 271
278 277
278 275
278 276
278 271
65 64
65 101
65 66
65 67
275 278
275 277
275 74
275 274
275 276
276 275
276 274
276 273
276 272
276 271
276 278
276 275
66 101
66 99
66 97
66 96
66 67
66 65
67 66
67 96
67 87
67 86
67 68
67 65
221 224
221 222
221 214
221 217
221 220
221 224
99 101
99 100
99 94
99 97
99 66
97 99
97 94
97 95
97 96
97 66
96 97
96 95
96 88
96 87
96 67
96 66
87 96
87 88
87 83
87 86
87 67
86 87
86 83
86 82
86 68
86 67
68 86
68 82
68 69
68 67
269 268
269 241
269 270
270 269
270 271
270 272
270 268
270 269
266 267
266 273
266 79
266 264
266 265
266 267
82 86
82 83
82 81
82 76
82 69
82 68
69 82
69 76
69 70
69 68
76 82
76 81
76 77
76 75
76 72
76 70
76 69
70 69
70 76
70 72
70 71
72 76
72 75
72 73
72 71
72 70
71 70
71 72
263 264
263 80
263 84
263 89
263 262
75 76
75 77
75 78
75 274
75 74
75 73
75 72
73 75
73 74
73 72
74 75
74 274
74 275
74 277
74 73
274 276
274 275
274 74
274 75
274 78
274 79
274 273
77 76
77 81
77 80
77 78
77 75
78 77
78 80
78 79
78 274
78 75
81 82
81 83
81 84
81 80
81 77
81 76
80 81
80 84
80 263
80 264
80 79
80 78
80 77
79 80
79 264
79 266
79 273
79 274
79 78
84 81
84 83
84 88
84 89
84 263
84 80
83 82
83 86
83 87
83 88
83 84
83 81
88 87
88 96
88 95
88 90
88 89
88 84
88 83
89 88
89 90
89 175
89 262
89 263
89 84
95 96
95 97
95 94
95 91
95 90
95 88
90 95
90 91
90 175
90 89
90 88
175 90
175 91
175 174
175 176
175 260
175 262
175 89
217 220
217 221
217 214
217 215
217 216
217 218
217 220
91 90
91 95
91 94
91 93
91 92
91 174
91 175
93 91
93 94
93 108
93 110
93 171
93 92
93 91
92 93
92 171
92 173
92 174
92 91
174 92
174 173
174 177
174 176
174 175
174 91
94 95
94 97
94 99
94 100
94 108
94 93
94 91
173 92
173 171
173 172
173 181
173 177
173 174
171 93
171 110
171 170
171 172
171 173
171 92
108 94
108 100
108 106
108 107
108 110
108 93
110 108
110 107
110 111
110 114
110 169
110 170
110 171
110 93
100 99
100 101
100 102
100 106
100 108
100 94
106 102
106 103
106 105
106 111
106 107
106 108
106 100
105 104
105 113
105 112
105 111
105 106
105 103
111 112
111 114
111 110
111 107
111 106
111 105
107 111
107 110
107 108
107 106
114 110
114 111
114 112
114 115
114 169
114 110
169 114
169 115
169 168
169 170
169 110
170 169
170 168
170 183
170 172
170 171
170 110
168 116
168 167
168 185
168 183
168 170
168 169
168 115
167 116
167 166
167 186
167 187
167 185
167 168
167 116
166 117
166 119
166 164
166 186
166 167
166 116
119 118
119 120
119 163
119 164
119 166
119 117
120 121
120 160
120 161
120 163
120 119
120 118
163 120
163 161
163 148
163 165
163 164
163 119
164 163
164 165
164 186
164 166
164 119
125 126
125 124
124 125
124 126
124 159
124 121
121 124
121 159
121 160
121 120
126 124
126 125
126 127
126 156
126 159
159 121
159 124
159 126
159 156
159 157
159 160
160 121
160 159
160 157
160 161
160 120
127 129
127 130
127 128
127 156
127 126
156 127
156 128
156 154
156 155
156 157
156 159
156 126
157 162
157 161
157 160
157 159
157 156
157 155
161 120
161 160
161 157
161 162
161 148
161 163
161 120
186 165
186 187
186 167
186 166
186 164
130 129
130 131
130 128
130 127
128 130
128 131
128 154
128 156
128 127
165 192
165 191
165 187
165 186
165 164
165 163
165 148
165 147
187 191
187 188
187 185
187 167
187 186
187 165
185 187
185 188
185 182
185 183
185 168
185 167
183 185
183 182
183 172
183 170
183 168
131 130
131 132
131 133
131 154
131 128
154 131
154 133
154 153
154 152
154 155
154 156
154 128
155 162
155 157
155 156
155 154
155 152
162 161
162 157
162 155
162 152
162 149
162 148
148 146
148 147
148 165
148 163
148 161
148 162
148 149
148 145
191 192
191 194
191 195
191 190
191 188
191 187
191 165
188 185
188 187
188 191
188 190
188 189
188 182
182 183
182 185
182 188
182 189
182 180
182 181
182 172
172 183
172 182
172 181
172 173
172 171
172 170
132 133
132 131
152 162
152 155
152 154
152 153
152 151
152 150
152 149
149 148
149 162
149 152
149 150
149 145
147 146
147 192
147 165
147 148
192 193
192 194
192 191
192 165
192 147
192 146
189 182
189 188
189 190
189 180
133 132
133 134
133 153
133 154
133 131
153 134
153 151
153 152
153 154
153 133
146 193
146 192
146 147
146 148
146 145
146 141
190 180
190 189
190 188
190 191
190 195
190 197
190 180
180 181
180 182
180 189
180 190
180 197
180 179
180 178
181 182
181 180
181 178
181 177
181 173
181 172
151 134
151 143
151 144
151 150
151 152
151 153
150 144
150 145
150 149
150 152
150 151
150 144
145 141
145 146
145 148
145 149
145 150
145 144
145 142
145 141
193 200
193 199
193 194
193 192
193 146
193 141
194 192
194 193
194 199
194 198
194 197
194 195
194 191
195 191
195 194
195 197
195 190
177 181
177 178
177 176
177 174
177 173
134 135
134 143
134 151
134 153
134 133
144 145
144 150
144 151
144 143
144 142
197 180
197 190
197 195
197 194
197 198
197 253
197 179
179 253
179 178
179 180
179 197
179 253
178 177
178 181
178 180
178 179
178 253
178 251
178 252
178 259
178 176
176 177
176 178
176 259
176 260
176 175
176 174
143 135
143 142
143 144
143 151
143 134
142 138
142 139
142 141
142 145
142 144
142 143
142 135
141 140
141 200
141 193
141 146
141 145
141 142
141 139
135 136
135 137
135 138
135 142
135 143
135 134
140 202
140 201
140 200
140 141
140 139
200 201
200 199
200 193
200 141
200 140
199 200
199 201
199 228
199 229
199 198
199 194
199 193
198 231
198 253
198 197
198 194
198 199
198 229
198 231
138 137
138 205
138 139
138 142
138 135
139 205
139 202
139 140
139 141
139 142
139 138
201 202
201 228
201 199
201 200
201 140
137 136
137 204
137 205
137 138
137 135
202 205
202 203
202 225
202 226
202 228
202 201
202 140
202 139
205 204
205 203
205 202
205 139
205 138
205 137
204 206
204 203
204 205
204 137
204 136
203 205
203 204
203 206
203 207
203 225
203 202
207 206
207 208
207 210
207 224
207 225
207 203
208 209
208 210
208 207
208 206
209 211
209 210
209 208
210 208
210 209
210 211
210 222
210 224
210 207
216 238
216 237
216 218
216 217
216 215
211 212
211 222
211 210
211 209
214 213
214 215
214 217
214 221
214 222
214 212
215 216
215 217
215 214
215 213
212 211
212 213
212 214
212 222
212 211
213 215
213 214
213 212
