ply
format ascii 1.0
comment Exported from MorphoGraphX 2.0 9eafb9a
comment Cell Graph: each vertex is a cell, each edge a wall
element vertex 284
property int label
property float x
property float y
property float z
property list uchar float /Cell Axis PDG
property float Geometry/Area
element edge 1591
property uint source
property uint target
end_header
37 -50.9398 -2.53845 6.77761 9 -0.868685 0.483578 -0.107421 0.397086 0.809417 0.432629 -0.0565914 0.0325976 0 29.4631 
36 -49.7724 2.17251 8.65754 9 -0.843027 0.537787 -0.00951575 0.505062 0.797565 0.329852 -0.0415989 0.0234104 0 29.7831 
21 -51.034 33.2549 8.5011 9 0.547725 0.808393 -0.215635 -0.816756 0.46075 -0.347301 0.0157482 0.00296541 0 42.0301 
20 -49.955 39.7012 5.64324 9 0.81444 0.53124 -0.233392 -0.576599 0.69592 -0.428053 0.0412469 0.012227 0 27.0533 
19 -50.022 43.8292 2.64444 9 0.772633 0.480974 -0.41437 -0.634773 0.595603 -0.49226 0.0356221 0.00978513 0 37.7638 
2 -49.3029 52.2551 -7.18283 9 -0.263078 -0.446234 0.855374 0.962617 -0.180665 0.201812 0.0148086 -0.00104683 0 41.3935 
55 -47.1499 -21.3775 2.22395 9 -0.268913 0.903221 0.334482 -0.699863 0.0553494 -0.71213 0.0219086 -0.0161046 0 29.0814 
35 -47.4277 5.5441 9.85429 9 -0.809395 0.587264 0.000358783 0.571872 0.788042 0.22793 -0.0397916 0.0216286 0 23.2165 
32 -45.3366 11.4336 10.9033 9 -0.827678 0.554728 0.0850052 0.56116 0.819947 0.113082 -0.0359343 0.0193138 0 32.0375 
31 -47.4351 14.2832 11.4089 9 0.700704 0.711476 0.0530696 -0.712386 0.693653 0.106541 0.0210367 0.00307371 0 23.6308 
26 -48.5497 24.5355 11.4685 9 -0.819287 0.552297 -0.154067 -0.568546 -0.817328 0.0934313 0.0377764 0.0150304 0 38.5647 
22 -47.057 31.5103 9.66137 9 0.996333 0.0811344 -0.0271567 -0.0854595 0.928448 -0.361499 0.0371189 0.019227 0 40.7297 
1 -46.6741 47.4687 -1.31704 9 0.818722 0.274199 -0.504489 -0.54437 0.650133 -0.530084 0.0249969 0.0111822 0 49.6843 
54 -44.5319 -18.9117 6.45826 9 0.119031 0.824938 0.552548 -0.721531 0.454163 -0.522618 0.0258307 -0.00106514 0 37.0664 
38 -46.8072 -3.37471 8.263 9 -0.713848 0.596512 -0.366871 0.466623 0.795794 0.385973 -0.053626 0.0211099 0 27.5786 
39 -43.9526 -3.72565 9.98963 9 -0.685066 0.615664 -0.389412 0.520384 0.787664 0.329828 -0.0318113 0.0226716 0 24.794 
27 -45.2942 21.1763 11.6354 9 0.599508 0.79485 -0.0938322 -0.787399 0.606746 0.108919 0.0228277 0.0193498 0 32.6755 
18 -44.8008 40.5893 4.48771 9 0.885861 0.301896 -0.352291 -0.453925 0.720985 -0.523578 0.0268773 0.0163842 0 44.0444 
3 -45.0074 51.1192 -6.29526 9 0.393077 -0.585331 0.709139 0.882308 0.0229607 -0.470113 0.0288525 0.0226497 0 23.5309 
56 -42.6032 -25.0997 4.38639 9 -0.433003 0.855312 0.284519 -0.608038 -0.0441358 -0.79268 0.0258082 0.00669702 0 30.5308 
51 -41.9667 -6.72931 11.3993 9 0.487324 0.787568 0.377163 -0.66179 0.614889 -0.428888 0.0285838 -0.00490272 0 25.1322 
40 -43.1176 3.08241 10.643 9 -0.757378 0.589847 -0.280104 0.529689 0.805832 0.264697 -0.0506064 0.0198222 0 32.0822 
34 -41.7274 8.55183 11.1494 9 -0.811737 0.564179 -0.150949 0.556232 0.825622 0.0946295 -0.0535429 0.0225062 0 28.7755 
28 -41.6958 19.6185 11.0466 9 -0.86235 0.49035 0.12613 0.483147 0.871443 -0.084594 -0.0271644 0.0222725 0 34.6431 
24 -42.2397 27.2771 10.4381 9 0.543646 0.791559 -0.279076 -0.812515 0.579695 0.061425 0.0273963 0.0179066 0 34.9711 
23 -39.9812 31.5976 8.47576 9 0.209588 0.884105 -0.41765 -0.933465 0.308063 0.183688 0.028334 0.00282571 0 33.7996 
17 -42.2128 35.9 7.11438 9 0.91616 0.203331 -0.34541 -0.332663 0.866445 -0.372303 0.0277901 0.0190193 0 30.4227 
5 -39.7535 45.2336 -1.3046 9 0.0554627 0.644572 -0.76253 -0.962926 0.236463 0.129845 0.0200855 -0.00441337 0 41.3428 
4 -40.8769 48.5953 -4.83991 9 0.174067 0.52174 -0.835158 -0.938959 0.34351 0.0188964 0.0216497 -0.00125226 0 33.3748 
57 -40.0001 -23.1984 8.44062 9 0.101192 0.806069 0.583106 -0.812025 0.405548 -0.419699 0.0263615 0.0206802 0 31.95 
53 -40.2052 -17.4484 10.9185 9 0.179509 0.877905 0.443913 -0.76475 0.408378 -0.498381 0.0258643 0.0151005 0 32.5139 
52 -38.7251 -11.3836 13.1677 9 0.237494 0.940065 0.244695 -0.793936 0.332991 -0.508708 0.0191074 0.00727957 0 50.7587 
50 -38.811 -3.59738 13.3172 9 0.491178 0.836519 0.242858 -0.698478 0.544831 -0.463991 0.0143581 -0.00214045 0 34.9447 
41 -39.0948 3.79256 12.3898 9 -0.676825 0.557334 -0.480922 0.551696 0.816562 0.169875 -0.0357815 0.0189085 0 29.115 
33 -39.4446 13.0073 11.3452 9 -0.827784 0.544364 -0.135803 0.54877 0.835953 0.00589134 -0.0534362 0.0173012 0 26.1349 
29 -38.489 19.2331 10.748 9 -0.89783 0.440035 -0.0164308 0.438137 0.888985 -0.133199 -0.0498824 0.0214581 0 21.016 
16 -39.682 40.0432 3.71295 9 -0.0846719 0.843271 -0.530778 -0.920861 0.13724 0.364938 0.0269998 0.00735669 0 32.7155 
58 -35.4096 -23.3511 11.5052 9 -0.496038 0.846932 0.19145 -0.726955 -0.284491 -0.624981 0.0182829 0.0108299 0 50.8014 
62 -36.0562 -16.5871 14.0776 9 -0.113829 0.970731 0.211482 -0.881754 -0.000629246 -0.471709 0.0275479 0.0135838 0 27.553 
49 -34.8092 -5.37648 15.8576 9 0.565033 0.761863 0.316706 -0.642534 0.647117 -0.410352 0.0160432 0.0102112 0 27.4886 
42 -36.1605 3.17215 14.1103 9 0.560029 0.81854 0.127906 -0.705468 0.55211 -0.444397 0.020972 -0.010054 0 26.9638 
43 -34.952 9.89471 13.0791 9 -0.729623 0.504207 -0.461981 0.551038 0.833547 0.0394601 -0.0300718 0.00991344 0 30.3895 
30 -35.9119 18.7534 10.8886 9 -0.922839 0.367483 -0.115429 0.383351 0.905446 -0.182236 -0.0613913 0.0203985 0 20.257 
25 -36.2448 26.3863 9.09847 9 0.948274 -0.29193 -0.124717 -0.245119 -0.922975 0.296706 -0.0562586 0.0207883 0 39.3667 
15 -36.9146 36.0245 5.07747 9 -0.945296 0.241226 0.219604 0.0772833 0.819629 -0.567658 -0.0339681 0.0183539 0 21.1904 
7 -35.4801 43.5156 -1.0107 9 -0.975597 0.115189 0.186927 -0.057845 0.686426 -0.724896 -0.0397785 0.0303918 0 32.1399 
59 -31.4379 -20.1627 15.5273 9 0.318287 0.789264 0.525124 -0.819698 0.507397 -0.265787 0.0271664 0.0254731 0 36.4222 
61 -32.5044 -11.9147 16.8305 9 0.735155 -0.58577 0.341204 0.475086 0.804234 0.357072 0.018611 0.0159831 0 47.5942 
46 -33.1255 1.55412 15.8568 9 0.593316 0.794042 0.132188 -0.682036 0.583103 -0.441383 0.0175898 0.00320371 0 37.2121 
45 -31.0807 8.27249 15.2043 9 0.731799 0.670489 0.122124 -0.57411 0.703047 -0.419669 0.00781655 -0.00119932 0 27.8699 
44 -33.3853 15.5179 12.2395 9 -0.8586 0.359547 -0.36542 0.42637 0.896605 -0.119615 -0.0390724 0.0134607 0 34.697 
241 -32.7425 23.066 9.91166 9 -0.950212 0.225463 -0.215089 0.282518 0.914557 -0.28943 -0.0655417 0.00859069 0 19.6083 
12 -31.7098 30.9732 6.91748 9 -0.99137 0.0712676 -0.110026 0.111501 0.899794 -0.421827 -0.0680674 0.0181175 0 27.1705 
14 -33.9969 33.8219 5.59631 9 -0.989733 0.127344 0.0649081 0.0764876 0.8555 -0.512122 -0.0652848 0.0213288 0 30.9193 
9 -33.8156 39.7067 1.78367 9 0.988592 -0.0821196 -0.126265 0.00363961 -0.825029 0.565078 -0.0589303 0.025741 0 26.9168 
6 -34.0185 47.4391 -6.54643 9 0.988351 -0.0289775 -0.149411 0.102412 -0.599573 0.79374 -0.0626705 0.00395614 0 25.9791 
71 -29.6668 -26.7759 12.5816 9 0.84306 0.158811 0.513837 -0.396261 0.829391 0.393812 0.0159072 0.00743303 0 30.7547 
60 -28.4275 -16.7221 18.005 9 0.958357 -0.188835 0.214228 0.13595 0.961392 0.239256 0.0363109 0.0288375 0 23.0207 
48 -30.1897 -4.17105 18.085 9 0.917315 0.122479 0.378857 -0.085344 0.98988 -0.113373 0.0179694 0.0158003 0 34.6277 
47 -29.3591 1.4552 17.7023 9 0.699965 0.699972 0.141734 -0.599362 0.683666 -0.416373 0.0173951 0.0116644 0 21.8617 
240 -30.3087 23.0716 10.6567 9 -0.880999 0.0836354 -0.465666 0.234593 0.931957 -0.276446 -0.0512314 0.010646 0 21.4896 
13 -29.0111 30.2783 7.94132 9 -0.944446 -0.00786253 -0.328572 0.133831 0.90388 -0.406313 -0.0482261 0.0163552 0 22.2534 
10 -29.9547 37.9329 2.98512 9 -0.972208 -0.089402 -0.216378 0.0449226 0.83581 -0.547178 -0.0655765 0.0138618 0 21.561 
253 -30.0829 43.9049 -1.92344 9 0.990267 0.135966 0.0297422 0.0691148 -0.665874 0.742856 -0.0612996 0.0238424 0 36.0503 
69 -26.9409 -22.5771 16.2195 9 0.710359 0.542637 0.448258 -0.663356 0.729043 0.168687 0.0326325 0.0182038 0 32.4302 
63 -26.9452 -11.238 19.19 9 0.849652 -0.492748 0.187859 0.45597 0.86542 0.207698 0.030281 0.012329 0 44.1871 
104 -26.167 6.62033 17.6049 9 0.89126 -0.220441 0.39631 0.295651 0.945101 -0.139192 0.013403 0.00427801 0 32.1884 
238 -28.343 14.1127 14.6308 9 0.448946 0.889915 -0.0806187 -0.811695 0.368427 -0.453225 0.00510467 0.00106087 0 36.9282 
239 -27.4846 19.7828 13.1549 9 0.126532 0.952898 -0.275637 -0.921257 0.00985645 -0.38883 0.0110106 -0.00433308 0 36.8721 
242 -26.6053 26.716 10.6784 9 0.213975 0.90555 -0.366326 -0.920143 0.0609457 -0.38681 0.0140842 -0.0114584 0 28.8369 
249 -26.1039 35.1834 6.31496 9 0.933964 0.182037 0.307529 -0.0132003 -0.84238 0.538723 -0.0226272 0.0180553 0 28.5785 
11 -27.4831 40.2058 2.06014 9 -0.97821 -0.11657 -0.171803 0.0153554 0.784612 -0.619797 -0.0432687 0.0179972 0 17.2929 
72 -24.3002 -26.7514 14.8487 9 0.50401 0.674337 0.53967 -0.82597 0.558976 0.072931 0.0327564 0.0135434 0 25.0784 
68 -23.7615 -17.9783 18.4781 9 0.554078 0.77528 0.303215 -0.823747 0.563187 0.0652748 0.0183605 0.0124469 0 29.5266 
65 -25.3392 -6.27821 20.0102 9 -0.67293 0.712128 -0.200098 -0.68424 -0.702038 -0.197378 0.0297922 0.0143214 0 25.3639 
102 -24.3274 -0.710156 19.8113 9 0.614656 -0.733214 0.290853 0.737037 0.665223 0.119397 0.0211356 0.0153389 0 46.6451 
105 -24.9113 11.6125 16.6951 9 0.904236 -0.209767 0.371962 0.291993 0.939308 -0.180111 0.0117755 0.00268704 0 26.8007 
243 -24.0107 23.9934 12.9192 9 0.824238 -0.353009 0.442737 0.471598 0.860729 -0.191678 0.012667 0.0102148 0 19.8255 
248 -23.7403 31.6094 9.3254 9 -0.0366612 0.88252 -0.468845 -0.942697 -0.186234 -0.27684 0.0108313 -0.00160701 0 30.2996 
250 -23.5178 39.4666 4.52771 9 -0.071064 0.772444 -0.631095 -0.923962 -0.289361 -0.250129 0.0166142 -0.00686178 0 32.7408 
251 -23.996 43.381 1.04554 9 -0.920187 -0.316295 -0.230678 -0.0786584 0.726615 -0.682527 -0.017456 0.0162173 0 22.6587 
252 -25.4157 46.6065 -2.80298 9 -0.889305 -0.447142 -0.0959153 -0.216752 0.596809 -0.772553 -0.0262678 0.0153775 0 26.8187 
70 -21.0609 -23.6761 17.0139 9 0.440843 0.824357 0.355096 -0.886845 0.461048 0.0306699 0.027361 0.00719321 0 26.3642 
66 -20.9914 -11.4825 20.3187 9 -0.420633 0.900178 0.112903 -0.900708 -0.399466 -0.170741 0.0194108 0.00371883 0 28.191 
67 -20.8121 -16.6121 19.2531 9 -0.21004 0.954854 0.210089 -0.967781 -0.172534 -0.183391 0.0130254 0.00165004 0 13.91 
101 -19.504 -6.48345 21.1704 9 -0.227038 0.972684 0.0483629 -0.96301 -0.216825 -0.159993 0.0259556 0.00727832 0 33.9222 
103 -22.0832 3.65639 19.6205 9 0.804178 -0.521579 0.28505 0.562707 0.822535 -0.0824397 0.0182468 0.00543935 0 23.7909 
106 -20.4701 10.9957 18.2343 9 0.822581 -0.446106 0.352632 0.496693 0.865594 -0.0635892 0.00939568 0.00440032 0 37.2423 
237 -22.2717 17.1011 15.9443 9 0.936911 0.262659 0.230668 -0.17875 0.92705 -0.329585 0.0137591 0.00452756 0 25.2209 
244 -20.621 21.8591 14.8465 9 0.957145 -0.0578838 0.283766 0.146563 0.941902 -0.302224 0.0138574 0.0082835 0 30.3954 
245 -19.7687 27.0423 12.9096 9 0.87399 -0.300877 0.381595 0.407012 0.882256 -0.236569 0.013528 0.00482158 0 35.6634 
258 -20.13 36.0885 8.20611 9 0.747445 -0.414557 0.519104 0.588246 0.776112 -0.227196 0.0155259 0.00662494 0 29.4923 
254 -20.5358 46.3322 0.238814 9 -0.298065 0.618446 -0.727105 -0.885575 -0.463449 -0.0311639 0.0151178 -0.00571016 0 25.5882 
73 -17.3264 -27.0997 15.9677 9 0.305608 0.828666 0.468952 -0.945723 0.321333 0.0484983 0.0239032 0.00631664 0 36.3304 
96 -18.2312 -20.678 18.4615 9 0.0251943 0.945955 0.323317 -0.982878 0.0824909 -0.16476 0.0150201 0.00492597 0 17.6409 
97 -16.6714 -16.6824 19.8434 9 -0.535151 0.832805 0.141594 -0.834741 -0.495591 -0.239996 0.0129799 0.00930905 0 23.4995 
108 -18.0509 -0.724256 21.1393 9 0.376084 -0.909096 0.179181 0.917704 0.392159 0.0634886 0.0193988 0.00789495 0 29.5084 
107 -18.0195 5.22759 20.1274 9 0.69212 -0.651484 0.310707 0.678022 0.734444 0.0296308 0.0146707 -0.00349374 0 24.1017 
236 -17.1029 17.63 17.2023 9 0.913166 0.399193 0.082301 -0.345433 0.865148 -0.363585 0.0158861 0.00433639 0 30.2144 
247 -18.2908 31.5796 11.4135 9 0.818456 -0.342442 0.461371 0.500406 0.819437 -0.279495 0.0212731 0.0109939 0 24.5314 
257 -16.8549 40.5577 6.62725 9 0.709478 -0.453599 0.539341 0.642537 0.730705 -0.230687 0.0233606 0.00287903 0 30.9953 
256 -19.6032 42.7781 3.88909 9 -0.465528 0.55018 -0.693243 -0.807052 -0.58539 0.0773679 0.0196487 0.000980274 0 15.2421 
95 -14.8758 -21.6234 18.5282 9 0.249798 0.914902 0.317104 -0.966685 0.254523 0.0271597 0.0150377 0.0118218 0 18.7298 
99 -14.4749 -12.3275 21.0293 9 -0.660298 0.746168 0.0850837 -0.742641 -0.631881 -0.221837 0.0183282 0.00986483 0 40.9095 
185 -15.8333 11.7592 19.2774 9 0.960187 0.226362 0.16371 -0.172406 0.941274 -0.290308 0.0131466 0.011375 0 32.7424 
183 -14.4215 5.08406 20.9804 9 0.775 -0.5976 0.205547 0.614093 0.788936 -0.0216686 0.019812 0.00450057 0 16.3414 
235 -14.0715 21.7131 16.3203 9 0.971483 0.210363 0.109403 -0.156544 0.91558 -0.370415 0.0164729 0.00177894 0 36.209 
246 -15.4085 28.7943 13.3905 9 0.950445 -0.224332 0.215244 0.283726 0.908925 -0.30554 0.0230425 0.00885063 0 17.8257 
259 -15.2852 35.6596 9.98139 9 0.835911 -0.372494 0.403114 0.513071 0.79119 -0.33283 0.0192218 0.00453218 0 26.2102 
255 -15.6152 45.7063 3.45095 9 0.613964 -0.446705 0.650771 0.702671 0.684895 -0.1928 0.0256472 0.0013288 0 30.767 
291 -16.0162 49.4143 0.0340396 9 0.379469 -0.518219 0.766455 0.806282 0.591531 0.000761241 0.0201954 0.0017995 0 27.1988 
75 -8.96028 -34.083 12.8592 9 0.538157 0.643348 0.54451 -0.837344 0.481789 0.258331 0.0395126 0.00511695 0 34.5449 
74 -11.1648 -28.8546 15.7645 9 0.544161 0.736711 0.401429 -0.836207 0.515125 0.188159 0.0272327 0.00749064 0 39.2991 
94 -10.4545 -24.0801 17.8632 9 0.705383 0.658021 0.263522 -0.70852 0.665481 0.234807 0.0193363 0.00902682 0 34.7364 
98 -10.2398 -18.549 19.6673 9 0.978223 0.205077 0.0319724 -0.206172 0.942357 0.263545 0.0187947 0.00699686 0 41.8408 
100 -14.1854 -6.77006 21.9201 9 -0.175128 0.984546 -0.000298232 -0.975503 -0.17356 -0.135168 0.0269149 0.014072 0 27.9274 
109 -13.8465 -0.661956 21.7421 9 0.650731 -0.740492 0.167989 0.741662 0.667277 0.0684058 0.0177359 0.00631885 0 20.9607 
110 -11.0948 1.41075 21.821 9 0.741923 -0.662338 0.104201 0.669465 0.740362 -0.0606676 0.0168432 0.00457241 0 21.5308 
184 -12.1387 9.78569 20.5746 9 0.968331 -0.155034 0.195703 0.189663 0.966529 -0.172769 0.022719 0.0185008 0 26.0105 
186 -11.807 15.9261 18.7792 9 0.970663 0.230203 0.0694208 -0.189313 0.909706 -0.369589 0.0197205 0.00746663 0 24.362 
233 -11.2688 25.1495 15.3528 9 0.989491 0.143551 0.0173146 -0.124036 0.904257 -0.408577 0.0133183 0.00326879 0 31.9817 
260 -11.9448 30.9038 12.9304 9 0.905393 -0.336354 0.259094 0.409181 0.85409 -0.321093 0.0176299 0.00474112 0 29.2753 
262 -12.4467 38.269 9.14971 9 0.893349 -0.305991 0.329085 0.42121 0.82535 -0.376006 0.0201805 0.00254292 0 18.2709 
263 -11.3593 43.163 6.64095 9 0.869465 -0.313019 0.382165 0.45432 0.810455 -0.369806 0.0266623 0.00112345 0 33.0369 
265 -9.15413 47.2786 4.53081 9 -0.792087 0.424564 -0.43857 -0.578331 -0.751826 0.316687 0.0301529 -0.000246586 0 31.1379 
290 -10.1374 50.6171 1.93101 9 0.706361 -0.381803 0.596054 0.653715 0.674834 -0.342426 0.0310671 0.00507255 0 25.6998 
91 -6.92267 -15.6984 20.1905 9 0.982245 0.183829 -0.0374455 -0.167125 0.948096 0.270526 0.0159534 0.00154524 0 32.3869 
112 -9.21058 -9.20648 21.9284 9 -0.723529 0.674791 0.145476 -0.688901 -0.719234 -0.0900967 0.0282389 0.0176818 0 23.0923 
111 -9.90903 -4.70373 22.2477 9 -0.546248 0.837527 -0.0127033 -0.837591 -0.54603 0.017116 0.0275983 0.0137476 0 21.0726 
182 -8.4327 7.0147 21.3295 9 0.985602 0.168519 0.0137923 -0.165796 0.979228 -0.116724 0.0175755 0.0142467 0 36.0713 
187 -8.11287 14.0316 19.7514 9 0.977993 -0.197784 0.0664115 0.208574 0.919081 -0.334345 0.0191297 0.0140262 0 22.7442 
228 -7.93836 20.2671 17.4923 9 0.990959 -0.116721 0.0661566 0.132115 0.934827 -0.329613 0.0124493 0.00327674 0 28.5745 
261 -8.8348 33.7057 11.9633 9 0.84857 -0.457507 0.265737 0.524167 0.795266 -0.304633 0.0145863 0.00442419 0 28.0485 
268 -8.46795 38.8668 9.60126 9 0.902295 -0.275763 0.331387 0.395928 0.834212 -0.383838 0.022038 0.00668245 0 21.7688 
76 -6.40356 -31.4447 14.6989 9 0.641726 0.695213 0.323831 -0.765803 0.557936 0.319771 0.0355096 0.0105912 0 20.3794 
93 -4.30341 -26.7344 16.6183 9 0.791112 0.584315 0.180882 -0.605994 0.708516 0.36163 0.0203321 0.00945814 0 28.1808 
113 -4.28379 -11.7536 20.9317 9 0.991733 0.00996599 -0.127932 0.0221179 0.968782 0.246927 0.0169057 0.0113715 0 38.4545 
180 -6.50076 0.818067 22.0568 9 0.838561 -0.538283 0.0840665 0.541752 0.840191 -0.0241617 0.0221422 0.00815187 0 39.0032 
188 -4.43524 11.1103 20.5171 9 0.776261 -0.624099 0.0889899 0.624113 0.740905 -0.248077 0.0164236 0.0117908 0 25.3656 
232 -6.18601 25.4581 15.5298 9 0.895741 -0.40497 0.183432 0.443085 0.846968 -0.293803 0.00566664 0.0019171 0 14.787 
231 -5.50048 29.0273 14.1226 9 -0.950302 0.272596 -0.150394 -0.30902 -0.884641 0.349165 0.00578775 0.001477 0 35.2546 
267 -4.79793 36.9836 10.7349 9 0.91274 -0.386923 0.131132 0.405505 0.81897 -0.406022 0.0127492 0.00727326 0 28.6049 
264 -6.20729 42.5958 7.69251 9 0.926985 -0.313948 0.20527 0.37423 0.811274 -0.449206 0.0176771 -0.00228854 0 19.4061 
79 -2.85647 -40.2391 9.14417 9 0.791387 0.417953 0.446119 -0.581517 0.739759 0.338519 0.0541139 -0.0280496 0 37.3668 
77 -1.85088 -34.3792 12.7555 9 0.664963 0.659206 0.351101 -0.744373 0.546477 0.38376 0.0323691 -0.0108149 0 25.437 
78 -1.49038 -30.2745 14.7971 9 0.676538 0.70777 0.203368 -0.726851 0.597445 0.338744 0.0244008 0.000875758 0 23.9248 
90 -3.46594 -22.4213 18.0521 9 0.863866 0.502348 0.0371782 -0.49067 0.822494 0.287658 0.0179275 0.0112385 0 34.295 
88 -0.809619 -16.8787 19.0271 9 0.960809 0.245824 -0.128129 -0.20747 0.944213 0.25577 0.0124262 0.00185162 0 27.8206 
115 -3.45698 -5.60584 21.7445 9 0.710253 -0.686117 -0.157429 0.689318 0.723233 -0.0421267 0.0250388 0.00708991 0 39.6424 
181 -1.50017 6.23428 21.3001 9 -0.655679 0.749318 -0.0927707 -0.750535 -0.633429 0.188321 0.0193203 0.0115931 0 39.3614 
227 -3.63453 17.7347 18.4541 9 -0.712559 0.656539 -0.247421 -0.701487 -0.67334 0.233516 0.011731 0.00067427 0 30.6713 
229 -3.51266 22.4471 16.774 9 0.667585 -0.696242 0.263776 0.744466 0.628999 -0.223899 0.00710762 -3.49573e-05 0 17.469 
269 -1.57022 32.7613 12.6833 9 0.847957 0.492274 -0.196556 -0.529449 0.768724 -0.358815 0.00813344 0.00349795 0 31.0009 
266 -1.28531 40.9588 8.74884 9 0.955335 -0.228878 0.186949 0.289404 0.852647 -0.435016 0.00983236 -0.00173946 0 25.1519 
287 -3.69977 44.6378 6.7388 9 0.936794 -0.308652 0.164776 0.348044 0.870269 -0.348564 0.0149644 -0.0050865 0 14.1968 
288 -2.84046 48.1002 5.21478 9 0.843287 -0.466919 0.266183 0.535286 0.774162 -0.337848 0.02662 0.00615865 0 19.6688 
289 -3.74572 51.0075 3.43399 9 0.63839 -0.585227 0.499968 0.756093 0.598446 -0.264928 0.0401463 0.0102415 0 25.0046 
80 1.14798 -38.7138 10.4329 9 0.775673 0.552474 0.305128 -0.628493 0.720347 0.293424 0.0322771 -0.0305445 0 33.0047 
83 2.86902 -26.4753 15.4784 9 0.68086 0.725787 0.0983004 -0.698734 0.603442 0.384225 0.016735 -0.00397903 0 37.4864 
114 0.319608 -10.4424 20.278 9 0.782709 0.617153 -0.0805589 -0.560167 0.754946 0.340985 0.0106886 0.00635584 0 24.3884 
178 -1.23739 -2.05163 21.7822 9 0.723827 -0.666909 -0.176937 0.668713 0.741237 -0.0582379 0.0272137 0.010261 0 21.6617 
179 0.246522 1.95436 21.6131 9 -0.599446 0.794298 0.0987708 -0.774583 -0.606763 0.178493 0.0294 0.0139764 0 29.0937 
189 1.40026 12.3482 19.7715 9 -0.713973 0.691475 -0.110022 -0.695785 -0.683117 0.221887 0.0183169 0.00232374 0 31.1943 
226 -1.35666 15.252 19.2679 9 -0.711453 0.687793 -0.144137 -0.699943 -0.675302 0.232481 0.0174896 0.00308209 0 13.9367 
225 1.5258 20.341 17.5033 9 0.883784 -0.447555 0.136455 0.467867 0.842153 -0.268103 0.0166555 0.00445491 0 17.7468 
230 -0.889954 25.1405 15.8247 9 0.844828 -0.48418 0.227673 0.533151 0.797526 -0.282316 0.00932544 0.00353052 0 22.4014 
271 0.600571 35.9311 11.2103 9 0.999737 0.0222194 -0.00560173 -0.0223814 0.894411 -0.446686 0.00765627 0.00495781 0 17.7182 
286 1.33688 45.5615 6.47214 9 0.99641 -0.0780589 0.0327799 0.0845374 0.89631 -0.435296 0.0108469 0.000674055 0 31.3562 
81 2.7376 -32.1745 13.4139 9 0.682899 0.695888 0.222235 -0.722597 0.598819 0.345355 0.026687 -0.018765 0 18.3554 
87 1.65756 -21.5505 17.4401 9 0.831871 0.552671 -0.0504475 -0.502704 0.788919 0.353406 0.0154403 0.0110347 0 22.8305 
89 3.171 -14.0433 18.7815 9 0.794558 0.604989 -0.0516361 -0.573665 0.775836 0.262655 0.00530713 0.00235831 0 17.5781 
116 4.53783 -8.38857 19.6086 9 0.337611 0.936187 0.0978428 -0.909292 0.297498 0.291004 0.00784711 0.00250821 0 32.3059 
117 3.9246 -3.48701 20.5603 9 -0.347119 0.918952 0.187176 -0.912369 -0.377087 0.159335 0.0176628 0.00574785 0 23.0183 
190 3.98313 9.06544 20.1931 9 0.660082 -0.751053 0.0145469 0.73839 0.64515 -0.19637 0.0214665 0.00738924 0 20.7457 
191 3.30739 17.0026 18.3879 9 0.884135 -0.465894 0.0353277 0.456946 0.846421 -0.273444 0.0185048 0.00406016 0 21.6757 
224 4.98481 25.1848 15.6069 9 0.982982 -0.183017 -0.0158421 0.163393 0.91047 -0.379931 0.0208653 0.00592502 0 46.5152 
270 1.6267 29.148 14.2809 9 0.999853 0.011892 -0.0123395 -0.0156185 0.928682 -0.370548 0.0142451 0.00681014 0 21.8877 
272 2.70274 37.677 10.3249 9 0.964703 -0.256429 0.059944 0.257837 0.87344 -0.413066 0.0116296 0.00131828 0 16.3886 
278 3.97263 41.5349 8.51828 9 0.98817 -0.152978 0.0108175 0.14134 0.88108 -0.451354 0.0178733 0.00300856 0 20.1819 
285 2.70158 49.4713 4.47421 9 0.946399 -0.30216 0.114144 0.320273 0.832027 -0.452942 0.0132008 0.00578556 0 16.9769 
284 1.06758 52.5009 2.91771 9 0.639978 -0.672232 0.372198 0.768175 0.571265 -0.289074 0.0341081 0.010606 0 15.7026 
283 3.65496 55.9295 0.622937 9 0.67327 -0.563473 0.478754 0.737983 0.552111 -0.388013 0.0398614 0.00697554 0 38.1357 
82 5.9089 -32.0368 12.9559 9 -0.759376 0.575662 0.303252 0.638743 0.748323 0.178943 -0.0356829 0.0188057 0 30.912 
86 4.37766 -18.294 17.6396 9 -0.678158 0.656357 0.3306 -0.692734 -0.721115 0.0106644 0.0115149 0.00795637 0 20.532 
177 6.35343 0.685589 20.2511 9 0.251438 -0.960181 -0.121781 0.934743 0.27354 -0.226784 0.0208701 0.003974 0 32.8328 
176 6.92822 5.51688 20.0057 9 -0.332237 0.943125 -0.0115366 -0.919219 -0.321027 0.227987 0.0225835 0.00557867 0 34.7579 
196 8.29243 21.2501 16.4576 9 0.951712 -0.265671 -0.15383 0.206831 0.925183 -0.31821 0.0183952 0.00801403 0 35.8858 
273 5.54834 32.5963 12.5281 9 0.987709 -0.155625 -0.0145357 0.134863 0.895543 -0.424046 0.017887 0.00404195 0 37.3208 
277 6.48209 39.2427 9.30517 9 0.978991 -0.200115 -0.0391174 0.168023 0.900427 -0.401246 0.0174095 -0.00186508 0 15.9314 
279 6.71206 45.8411 6.19537 9 0.994993 -0.0989173 0.0143026 0.0939094 0.876294 -0.472535 0.0172937 0.00371006 0 29.1197 
281 7.15406 51.4694 3.19435 9 -0.9388 0.337019 -0.0712164 -0.333758 -0.838838 0.430066 0.0155891 0.0112634 0 27.504 
84 7.09066 -21.6216 15.8503 9 -0.713027 0.581044 0.392403 0.639813 0.768117 0.0252157 -0.00763734 0.00577981 0 20.5219 
85 7.89096 -15.3248 17.301 9 -0.356624 0.881447 0.30963 -0.89844 -0.41445 0.145043 0.00696508 0.00522467 0 36.7893 
118 9.14031 -5.55834 18.7654 9 -0.154169 0.968047 0.19778 -0.9389 -0.205881 0.275825 0.0077955 0.00042698 0 34.2457 
193 7.7568 12.0421 18.8645 9 0.692789 -0.721107 -0.00697792 0.685158 0.661209 -0.305551 0.0152561 0.00642828 0 30.3264 
195 7.98982 16.6174 17.8767 9 0.919335 -0.389465 -0.0560397 0.36282 0.894181 -0.2623 0.017843 0.00873464 0 13.0213 
223 10.353 30.7046 12.6128 9 -0.900805 0.433132 0.0307779 -0.380562 -0.821629 0.424381 0.0169449 0.00500473 0 27.2735 
274 9.48284 35.8918 10.4441 9 0.980172 -0.177395 -0.0882819 0.120382 0.887007 -0.445788 0.0139837 0.000216875 0 23.7664 
276 10.8357 42.6297 7.14393 9 0.916514 -0.397483 -0.0448356 0.344573 0.84146 -0.41619 0.0138462 0.0034343 0 25.3879 
282 9.02109 55.101 0.844367 9 -0.766032 0.59905 -0.233099 -0.615584 -0.579254 0.534341 0.0232236 0.0126847 0 23.8542 
120 12.804 -17.4441 15.3034 9 0.803963 0.584294 -0.110651 -0.514948 0.777081 0.361902 0.00732784 -0.00378562 0 31.8622 
119 10.8448 -11.7279 17.1973 9 -0.244822 0.944334 0.219764 -0.922674 -0.296556 0.246429 0.00581963 0.00362684 0 30.6914 
171 12.1425 -0.942821 18.5661 9 0.00473371 0.989178 0.146644 -0.967856 -0.0323439 0.249416 0.0169411 0.00193025 0 23.6771 
172 12.8577 2.87064 18.5672 9 -0.000498474 0.999371 -0.0354517 -0.959403 0.00952089 0.281879 0.0215663 0.00455629 0 22.7842 
175 11.7877 7.98405 18.5261 9 -0.424437 0.905349 -0.0139926 -0.873126 -0.40514 0.271132 0.016784 0.0055681 0 23.3051 
194 11.8994 14.9166 17.3216 9 -0.0605239 0.984778 -0.162941 -0.967587 -0.0177862 0.25191 0.00980097 0.00810273 0 29.541 
222 11.1428 26.5843 13.9784 9 0.898359 -0.430453 -0.0875268 0.370936 0.85014 -0.373723 0.0130342 0.00419902 0 19.6998 
275 11.8126 38.4327 8.79759 9 0.960502 -0.265205 -0.0842717 0.198956 0.866214 -0.458356 0.0124973 -0.0047007 0 24.3707 
280 10.5793 47.193 5.03864 9 0.978717 0.0722032 -0.192093 -0.149424 0.892343 -0.425906 0.0160142 0.00739603 0 19.8578 
212 13.291 49.9307 3.02431 9 0.940693 0.16327 -0.297386 -0.284118 0.858172 -0.427572 0.0135024 0.00628169 0 33.4275 
123 16.0193 -11.5658 15.5894 9 0.82184 -0.437514 -0.36491 0.487457 0.871544 0.0528862 0.0105073 -0.00105911 0 18.0087 
124 16.0995 -8.08354 16.3627 9 -0.662212 0.667575 0.34032 -0.695895 -0.716327 0.0510471 0.0128189 0.00394644 0 27.2233 
169 14.0474 -5.14199 17.4758 9 -0.134336 0.977854 0.160486 -0.959419 -0.168867 0.225832 0.011882 0.0023983 0 20.5862 
174 16.1945 8.24419 17.1964 9 0.24684 -0.968786 0.0228716 0.922396 0.227654 -0.312025 0.0141274 0.0042345 0 44.1825 
197 14.1617 19.1604 15.5904 9 0.442946 0.816282 -0.370787 -0.851996 0.512 0.109357 0.00979135 0.00529785 0 25.9104 
200 13.6588 23.2056 14.5335 9 -0.916395 0.390554 0.0876814 -0.333798 -0.866531 0.371083 0.0114576 0.00506921 0 19.3625 
221 15.3461 27.1308 12.692 9 -0.710638 0.697884 -0.089176 -0.668402 -0.630117 0.39521 0.0107099 0.00486012 0 14.5343 
220 14.0765 31.2467 11.4951 9 0.8651 -0.501407 -0.0139042 0.456346 0.798255 -0.393112 0.0128558 0.00513636 0 15.2381 
219 16.2463 33.0879 10.0953 9 0.845601 -0.533435 -0.020147 0.4572 0.743204 -0.488484 0.0101743 0.0027655 0 24.2599 
214 15.4922 44.4083 5.38953 9 0.973306 -0.213709 -0.0836959 0.155138 0.881337 -0.446294 0.0157706 0.00833608 0 22.9798 
211 14.2872 54.9759 -0.252583 9 0.793129 -0.592969 0.13905 0.565564 0.63232 -0.529441 0.0113926 -0.0093257 0 24.5621 
121 18.7557 -14.5037 13.8653 9 -0.167299 0.941189 0.293554 0.914572 0.259354 -0.310313 -0.0119769 0.00625385 0 33.8818 
168 20.5819 -2.81815 15.6972 9 0.106802 0.991178 0.0784819 -0.929033 0.0713594 0.36305 0.0167629 0.010796 0 39.9374 
170 16.6835 -0.998754 17.2366 9 0.179306 0.983739 0.0103863 -0.947278 0.169792 0.271727 0.0175466 0.00796791 0 17.827 
173 19.1252 3.99306 16.5338 9 -0.16776 0.985374 0.0298973 -0.938425 -0.168911 0.301375 0.0143255 0.00920302 0 25.5071 
198 16.8368 14.4945 16.0434 9 -0.256588 0.949567 -0.180237 -0.925732 -0.187847 0.328228 0.0137169 0.00885155 0 26.5412 
199 18.2314 22.7233 13.2959 9 -0.94014 0.188646 0.283811 -0.089355 -0.940128 0.328899 0.0122359 0.00354092 0 26.3716 
201 18.8039 27.8397 11.3877 9 -0.764112 0.644764 0.0203055 -0.569088 -0.688582 0.449437 0.0128124 0.00440007 0 21.2955 
217 16.7803 36.8276 8.32245 9 0.951178 -0.250717 -0.180002 0.160586 0.900066 -0.405084 0.0122762 -0.00126716 0 17.9498 
218 16.4168 40.2584 7.00116 9 0.982532 -0.0372119 -0.182336 -0.0367519 0.921705 -0.386147 0.0151945 0.00142389 0 19.1905 
210 17.6213 50.9184 1.30853 9 0.819788 -0.570794 0.0462819 0.499816 0.673711 -0.544333 0.0121635 -0.0011011 0 30.0535 
125 21.9067 -9.23402 13.9278 9 -0.917196 -0.000267491 0.398435 -0.0964134 -0.970132 -0.222595 0.00986162 0.0017223 0 34.5151 
165 21.4931 11.8374 14.986 9 -0.409518 0.910494 0.0574117 -0.835596 -0.399601 0.376959 0.016637 0.0108902 0 37.2441 
163 19.5359 17.4265 14.446 9 -0.826664 0.561479 0.0369904 -0.515444 -0.781975 0.350474 0.0121253 0.0111381 0 15.3543 
202 23.4099 31.5846 8.30095 9 -0.923443 -0.0482028 0.380696 0.170214 -0.940593 0.293788 0.0209651 0.00699996 0 40.3258 
216 21.5317 35.1218 7.58777 9 0.938118 0.0797377 -0.337012 -0.211172 0.902995 -0.374174 0.0218811 0.00176821 0 26.6268 
215 21.1203 39.4963 5.7792 9 0.91141 0.0349671 -0.410012 -0.170666 0.938769 -0.299309 0.0268911 -0.00471195 0 23.2901 
213 19.4039 44.6715 4.16567 9 0.951614 -0.209801 -0.224531 0.0795515 0.873951 -0.47946 0.0258805 0.00759688 0 29.2095 
122 25.9 -14.0557 11.0403 9 -0.0955603 0.980345 0.172603 0.926107 0.151133 -0.345666 -0.0150232 0.00782297 0 28.1747 
146 25.5103 -5.57408 13.3361 9 0.209419 0.966385 0.149142 -0.897437 0.129391 0.42174 0.0205409 0.0115564 0 18.7198 
167 23.7131 3.73458 14.7368 9 -0.201423 0.976058 0.0820884 -0.892081 -0.217409 0.396138 0.0128633 0.00985625 0 44.012 
162 22.9683 18.0145 13.0048 9 -0.895874 0.348875 0.275128 -0.223625 -0.889132 0.399294 0.0138042 0.0085082 0 29.0423 
159 23.2729 22.1471 11.5442 9 0.920434 -0.213094 -0.327707 0.108321 0.944558 -0.309962 0.0127937 -0.000836407 0 18.2059 
157 23.977 26.3214 10.0161 9 0.9293 -0.172726 -0.326445 0.0689757 0.949515 -0.306045 0.0180657 0.00509862 0 36.0515 
206 24.4724 43.8739 2.21415 9 0.870966 -0.162658 -0.463638 -0.0264345 0.926735 -0.374785 0.0360688 0.000682484 0 21.9752 
209 22.0461 47.5403 1.66698 9 0.945167 -0.229373 -0.23248 0.0839982 0.858635 -0.505658 0.0340144 0.00727576 0 22.6692 
126 26.6636 -10.2335 11.4951 9 0.158093 -0.928759 -0.33528 -0.883627 -0.284612 0.371752 -0.00927651 0.00613748 0 20.3511 
147 26.4811 -2.03611 13.3355 9 0.116974 0.993015 -0.0154585 -0.888582 0.111599 0.444936 0.0199066 0.0103512 0 22.7676 
164 25.7357 9.62899 13.5399 9 -0.161067 0.985523 -0.0529391 -0.897437 -0.123929 0.423377 0.0160589 0.0106363 0 26.418 
161 26.6278 14.887 12.2015 9 0.606762 0.659813 -0.443268 -0.672385 0.723467 0.156508 0.0155283 0.0129623 0 19.0757 
158 28.2963 20.5014 9.69024 9 -0.886495 -0.00355074 0.462725 0.132056 -0.960328 0.245626 0.0181053 0.000994725 0 39.4808 
204 26.2139 37.8778 3.95317 9 0.8481 -0.0294957 -0.529014 -0.216582 0.891922 -0.396948 0.0346261 -0.00650114 0 32.1506 
205 26.5874 41.6404 1.75077 9 0.82506 -0.0669649 -0.561063 -0.120295 0.949372 -0.290208 0.0319709 -0.00773885 0 17.2304 
131 30.3912 -16.8301 8.69791 9 0.885807 0.138595 -0.442874 -0.0777129 0.985186 0.152873 0.0172861 -0.00405243 0 20.2629 
145 30.3647 -6.71182 10.544 9 0.740057 0.633566 -0.22563 -0.499687 0.742528 0.446055 0.0133892 0.00438905 0 39.4003 
149 28.195 2.21796 12.7051 9 0.755488 -0.527202 -0.388967 0.482713 0.84933 -0.213604 0.0125881 0.0121661 0 18.4233 
150 30.4575 7.04145 11.3662 9 0.522734 0.791247 -0.317297 -0.705262 0.610474 0.360454 0.0154458 0.0145405 0 42.9478 
160 30.0983 14.4867 10.4406 9 0.765296 0.377873 -0.521089 -0.423835 0.905106 0.033882 0.0153506 0.0134906 0 28.5239 
155 30.8858 25.0563 6.57158 9 -0.682311 -0.368168 0.631589 0.441888 -0.895946 -0.0448929 0.0213744 0.00244108 0 38.681 
156 29.0741 29.2521 6.29415 9 0.751962 0.180967 -0.63388 -0.377575 0.90646 -0.189125 0.0328653 0.00669678 0 31.5831 
203 29.0877 33.8681 4.04849 9 -0.76647 0.049016 0.640407 0.187005 -0.936854 0.295523 0.0327699 0.00289404 0 28.1544 
207 29.4032 43.8079 -1.70151 9 0.679963 0.0737535 -0.729528 -0.297188 0.937266 -0.182241 0.0327899 -0.00476166 0 30.4842 
132 31.6338 -19.6363 7.64374 9 0.696122 0.651963 -0.300599 -0.51752 0.745897 0.419297 0.0143769 0.00157126 0 18.1325 
127 32.1555 -13.0739 8.2419 9 0.892893 0.0865822 -0.441867 -0.0107421 0.985155 0.171331 0.0147755 -0.0126296 0 32.9658 
148 31.466 0.375348 10.8417 9 0.718146 0.574508 -0.392691 -0.480539 0.817562 0.317294 0.0147288 0.0107566 0 29.9715 
152 33.4361 12.4839 8.90681 9 0.797488 0.196536 -0.570427 -0.283756 0.956543 -0.0671359 0.0215766 0.0167081 0 29.695 
154 33.661 18.4417 7.0068 9 0.780673 0.167528 -0.602067 -0.28874 0.951096 -0.109749 0.0249013 0.00554283 0 32.5466 
208 31.6351 44.7053 -4.82237 9 0.358161 0.389784 -0.848404 -0.518078 0.838928 0.16672 0.0485728 0.00992327 0 15.3809 
130 37.6211 -17.7643 4.22703 9 -0.157914 0.972986 0.168409 0.821976 0.224034 -0.523607 -0.0342999 0.0302266 0 24.0153 
129 38.4211 -13.7995 3.96037 9 -0.787023 -0.0892921 0.610427 0.0047341 -0.990315 -0.138758 0.0269487 -0.0254249 0 31.3962 
128 35.6834 -10.5595 6.72588 9 0.837432 0.187179 -0.51349 -0.068015 0.967914 0.241903 0.023881 -0.00370635 0 25.2449 
143 34.9788 -4.15349 8.30163 9 0.744637 0.510224 -0.430333 -0.385502 0.855073 0.346754 0.0222813 0.0102417 0 42.7258 
141 37.3203 2.00599 7.00592 9 0.787107 0.185568 -0.58824 -0.138696 0.982496 0.124355 0.0224972 0.0100349 0 26.9916 
142 35.1461 4.52824 8.55969 9 0.773626 0.304121 -0.555891 -0.271487 0.951777 0.14288 0.0203111 0.0102946 0 20.2922 
151 36.2409 9.92865 7.27589 9 -0.698336 -0.332088 0.63407 0.318673 -0.937466 -0.140017 0.0227241 0.0146606 0 30.6848 
134 39.1585 -7.58202 4.68833 9 0.75084 0.265979 -0.604561 -0.118713 0.95477 0.272619 0.0280218 0.00547844 0 35.2884 
135 39.3638 -1.80108 5.10293 9 0.695492 0.320759 -0.642965 -0.19757 0.945707 0.258078 0.0214678 0.00905753 0 20.9618 
140 39.8762 6.00603 4.58993 9 0.611703 0.453092 -0.648481 -0.368998 0.888514 0.272733 0.0190465 0.0136208 0 30.1416 
153 38.1944 15.0371 4.32746 9 -0.727348 0.203292 0.655467 0.00373647 -0.95393 0.300007 0.0191406 0.00808416 0 28.9021 
133 41.9839 -16.0638 0.41601 9 0.0624446 0.997751 -0.0243675 0.626799 -0.0582048 -0.777004 -0.0572389 0.0470647 0 25.6531 
136 42.3414 -0.363136 2.15944 9 -0.596084 -0.52472 0.607744 0.311214 -0.848735 -0.427545 0.0123148 0.005334 0 36.1871 
139 41.6365 8.86964 2.29088 9 -0.340009 0.91743 0.206679 -0.574 -0.376542 0.727145 0.0138081 0.00128187 0 31.3195 
137 43.9278 2.88044 0.379101 9 -0.162796 0.97908 0.122066 -0.615783 -0.197486 0.762765 0.0157901 -0.00230491 0 19.9765 
138 45.8899 3.76686 -1.99964 9 -0.620775 -0.334285 0.709149 -0.233818 0.942317 0.239518 -0.031835 0.0107766 0 20.254 
37 38
37 36
36 37
36 38
36 40
36 35
21 20
21 22
21 18
20 19
20 21
20 18
19 20
19 18
19 1
2 3
2 1
55 54
55 56
35 32
35 36
35 40
35 34
35 32
32 31
32 35
32 34
32 33
32 28
31 32
31 28
31 27
26 27
26 24
26 22
22 17
22 18
22 21
22 26
22 24
22 23
22 17
1 5
1 4
1 3
1 2
1 19
1 18
54 53
54 55
54 56
54 57
54 53
38 37
38 39
38 40
38 36
39 51
39 50
39 41
39 40
39 38
27 26
27 31
27 28
27 24
18 19
18 20
18 21
18 22
18 17
18 16
18 5
18 1
3 4
3 2
3 1
56 55
56 57
56 54
51 52
51 50
51 39
40 34
40 35
40 36
40 38
40 39
40 41
34 35
34 40
34 41
34 43
34 33
34 32
28 27
28 31
28 32
28 33
28 29
28 25
28 24
24 26
24 27
24 28
24 25
24 23
24 22
23 15
23 17
23 22
23 24
23 25
23 14
17 15
17 16
17 18
17 22
17 23
5 18
5 16
5 7
5 6
5 4
5 1
4 5
4 3
4 1
57 54
57 56
57 58
57 53
53 54
53 57
53 58
53 62
53 52
52 50
52 51
52 53
52 62
52 61
52 49
50 51
50 52
50 49
50 46
50 42
50 41
50 39
41 40
41 39
41 50
41 42
41 43
41 34
33 32
33 34
33 43
33 44
33 30
33 29
33 28
29 28
29 33
29 30
29 25
16 18
16 17
16 15
16 9
16 7
16 5
58 57
58 71
58 59
58 62
58 53
62 53
62 58
62 59
62 61
62 52
49 50
49 52
49 61
49 48
49 46
42 50
42 46
42 45
42 43
42 41
43 34
43 41
43 42
43 45
43 238
43 44
43 33
30 29
30 33
30 44
30 241
30 25
25 12
25 14
25 23
25 24
25 28
25 29
25 30
25 241
25 12
15 16
15 17
15 23
15 14
15 9
7 16
7 9
7 253
7 6
7 5
59 71
59 69
59 60
59 61
59 62
59 58
61 49
61 52
61 62
61 59
61 60
61 63
61 48
46 42
46 50
46 49
46 48
46 47
46 104
46 45
46 42
45 46
45 104
45 105
45 238
45 43
45 42
44 33
44 43
44 238
44 239
44 240
44 241
44 30
241 240
241 13
241 12
241 25
241 30
241 44
241 240
12 14
12 25
12 241
12 13
12 10
14 15
14 23
14 25
14 12
14 10
14 9
9 7
9 16
9 15
9 14
9 10
9 253
9 7
6 7
6 253
6 5
71 72
71 69
71 59
71 58
60 69
60 68
60 63
60 61
60 59
48 49
48 61
48 63
48 65
48 102
48 47
48 46
47 48
47 102
47 104
47 46
240 44
240 239
240 242
240 13
240 241
13 12
13 241
13 240
13 242
13 248
13 249
13 10
10 14
10 12
10 13
10 249
10 11
10 253
10 9
253 7
253 9
253 10
253 11
253 251
253 252
253 6
69 71
69 72
69 70
69 68
69 60
69 59
63 61
63 60
63 68
63 66
63 65
63 48
104 46
104 47
104 102
104 103
104 106
104 105
104 45
238 44
238 43
238 45
238 105
238 237
238 239
239 238
239 237
239 244
239 243
239 242
239 240
239 44
239 238
242 240
242 239
242 243
242 245
242 248
242 13
249 11
249 10
249 13
249 248
249 258
249 250
11 249
11 250
11 251
11 253
11 10
72 71
72 73
72 70
72 69
68 60
68 69
68 70
68 67
68 66
68 63
65 63
65 66
65 101
65 102
65 48
102 48
102 65
102 101
102 108
102 103
102 104
102 47
105 104
105 106
105 237
105 238
105 45
243 245
243 242
243 239
243 244
243 245
248 247
248 258
248 249
248 13
248 242
248 245
250 249
250 258
250 257
250 256
250 251
250 11
250 249
251 11
251 250
251 256
251 254
251 252
251 253
252 251
252 254
252 253
252 251
70 68
70 69
70 72
70 73
70 96
70 67
66 68
66 67
66 97
66 99
66 101
66 65
66 63
67 66
67 68
67 70
67 96
67 97
101 66
101 99
101 100
101 108
101 102
101 65
103 108
103 107
103 106
103 104
103 102
106 107
106 185
106 236
106 237
106 105
106 104
106 103
237 106
237 236
237 244
237 239
237 238
237 105
244 245
244 243
244 239
244 237
244 236
244 235
244 245
245 248
245 242
245 243
245 244
245 235
245 233
245 246
245 247
245 248
258 250
258 249
258 248
258 247
258 259
258 257
254 252
254 251
254 256
254 255
254 291
73 72
73 74
73 94
73 95
73 96
73 70
96 70
96 73
96 95
96 97
96 67
97 67
97 96
97 95
97 98
97 99
97 66
108 109
108 107
108 103
108 102
108 101
108 100
107 108
107 109
107 183
107 185
107 106
107 103
236 185
236 186
236 235
236 244
236 237
236 106
247 246
247 260
247 259
247 258
247 248
247 245
247 246
257 255
257 256
257 250
257 258
257 259
257 262
257 263
257 255
256 257
256 255
256 254
256 251
256 250
95 94
95 98
95 97
95 96
95 73
99 97
99 98
99 91
99 112
99 100
99 101
99 66
185 107
185 183
185 184
185 186
185 236
185 106
183 109
183 110
183 182
183 184
183 185
183 107
235 228
235 233
235 245
235 244
235 236
235 186
246 245
246 233
246 260
246 247
259 262
259 257
259 258
259 247
259 260
259 261
255 263
255 265
255 291
255 254
255 256
255 257
291 255
291 265
291 290
291 254
291 255
75 79
75 77
75 76
75 74
74 75
74 76
74 93
74 94
74 73
94 74
94 93
94 90
94 98
94 95
94 73
98 91
98 99
98 97
98 95
98 94
98 90
100 112
100 111
100 109
100 108
100 101
100 99
109 111
109 110
109 183
109 107
109 108
109 100
110 111
110 180
110 182
110 183
110 109
184 187
184 186
184 185
184 183
184 182
186 187
186 228
186 235
186 236
186 185
186 184
233 232
233 231
233 260
233 246
233 245
233 235
233 228
260 246
260 233
260 231
260 261
260 259
260 247
260 246
262 261
262 268
262 263
262 257
262 259
263 265
263 255
263 257
263 262
263 268
263 264
263 265
265 290
265 291
265 255
265 263
265 264
265 287
265 288
265 289
265 290
290 265
290 289
290 291
290 265
91 88
91 113
91 112
91 99
91 98
91 90
91 88
112 113
112 115
112 111
112 100
112 99
112 91
111 112
111 115
111 180
111 110
111 109
111 100
182 180
182 181
182 188
182 187
182 184
182 183
182 110
187 188
187 227
187 228
187 186
187 184
187 182
228 187
228 227
228 229
228 232
228 233
228 235
228 186
261 259
261 260
261 231
261 269
261 267
261 268
261 262
268 267
268 264
268 263
268 262
268 261
268 267
76 75
76 77
76 78
76 93
76 74
93 76
93 78
93 83
93 90
93 94
93 74
113 114
113 115
113 112
113 91
113 88
180 111
180 115
180 178
180 179
180 181
180 182
180 110
188 189
188 226
188 227
188 187
188 182
188 181
232 229
232 230
232 231
232 233
232 228
231 269
231 261
231 260
231 233
231 232
231 230
231 270
231 269
267 271
267 266
267 264
267 268
267 261
267 269
264 287
264 265
264 263
264 268
264 267
264 266
264 287
79 80
79 77
79 75
77 79
77 80
77 81
77 78
77 76
77 75
78 77
78 81
78 83
78 93
78 76
90 87
90 88
90 91
90 98
90 94
90 93
90 83
88 89
88 114
88 113
88 91
88 90
88 87
88 86
115 112
115 113
115 114
115 116
115 117
115 178
115 180
115 111
181 190
181 189
181 188
181 182
181 180
181 179
181 176
227 188
227 226
227 191
227 225
227 229
227 228
227 187
229 225
229 230
229 232
229 228
229 227
269 267
269 261
269 231
269 270
269 273
269 271
269 267
266 286
266 287
266 264
266 267
266 271
266 272
266 278
287 286
287 288
287 265
287 264
287 266
288 289
288 265
288 287
288 286
288 285
289 290
289 265
289 288
289 285
289 284
80 79
80 82
80 81
80 77
83 81
83 82
83 84
83 87
83 90
83 93
83 78
114 89
114 116
114 115
114 113
114 88
178 117
178 179
178 180
178 115
179 177
179 176
179 181
179 180
179 178
179 117
189 190
189 193
189 191
189 226
189 188
189 181
226 189
226 191
226 227
226 188
225 196
225 224
225 230
225 229
225 227
225 191
230 270
230 231
230 232
230 229
230 225
230 224
271 272
271 266
271 267
271 269
271 273
271 272
286 266
286 278
286 279
286 285
286 288
286 287
81 80
81 82
81 83
81 78
81 77
87 84
87 86
87 88
87 90
87 83
89 116
89 114
89 88
89 86
89 85
116 119
116 118
116 117
116 115
116 114
116 89
116 85
117 116
117 118
117 177
117 179
117 178
117 115
190 193
190 189
190 181
190 176
191 193
191 195
191 196
191 225
191 227
191 226
191 189
224 270
224 230
224 225
224 196
224 222
224 223
224 273
224 270
270 269
270 231
270 230
270 224
270 273
272 271
272 273
272 274
272 277
272 278
272 266
272 271
278 266
278 272
278 277
278 276
278 279
278 286
278 266
285 284
285 289
285 288
285 286
285 279
285 281
285 284
284 289
284 285
284 281
284 283
283 284
283 281
283 282
82 83
82 81
82 80
86 85
86 89
86 88
86 87
86 84
177 118
177 171
177 172
177 176
177 179
177 117
176 175
176 193
176 190
176 181
176 179
176 177
176 172
196 195
196 194
196 197
196 200
196 222
196 224
196 225
196 191
273 270
273 224
273 223
273 274
273 272
273 271
273 269
277 272
277 274
277 275
277 276
277 278
277 272
279 281
279 285
279 286
279 278
279 276
279 280
281 282
281 283
281 284
281 285
281 279
281 280
281 212
281 282
84 120
84 85
84 86
84 87
84 83
85 120
85 119
85 116
85 89
85 86
85 84
118 119
118 124
118 169
118 171
118 177
118 117
118 116
193 194
193 195
193 191
193 189
193 190
193 176
193 175
195 193
195 194
195 196
195 191
223 220
223 274
223 273
223 224
223 222
223 221
274 273
274 223
274 220
274 219
274 275
274 277
274 272
276 277
276 275
276 218
276 214
276 280
276 279
276 278
282 283
282 281
282 212
282 211
120 121
120 123
120 119
120 85
120 84
119 120
119 123
119 124
119 118
119 116
119 85
171 169
171 170
171 172
171 177
171 118
172 173
172 174
172 175
172 176
172 177
172 171
172 170
175 174
175 194
175 193
175 176
175 172
194 174
194 198
194 197
194 196
194 195
194 193
194 175
222 200
222 221
222 223
222 224
222 196
275 274
275 219
275 217
275 218
275 276
275 277
280 279
280 276
280 214
280 212
280 281
280 279
212 210
212 211
212 282
212 281
212 280
212 214
212 213
212 210
123 120
123 121
123 125
123 124
123 119
124 119
124 123
124 125
124 168
124 169
124 118
169 124
169 168
169 170
169 171
169 118
174 198
174 194
174 175
174 172
174 173
174 165
197 199
197 200
197 196
197 194
197 198
197 163
200 197
200 199
200 221
200 222
200 196
221 201
221 220
221 223
221 222
221 200
221 199
220 219
220 274
220 223
220 221
220 201
219 201
219 202
219 216
219 217
219 275
219 274
219 220
214 276
214 218
214 213
214 212
214 280
214 276
211 282
211 212
211 210
121 122
121 125
121 123
121 120
168 125
168 146
168 147
168 167
168 173
168 170
168 169
168 124
170 173
170 172
170 171
170 169
170 168
173 174
173 172
173 170
173 168
173 167
173 165
198 163
198 197
198 194
198 174
198 165
198 163
199 201
199 221
199 200
199 197
199 163
199 162
199 159
199 157
201 202
201 219
201 220
201 221
201 199
201 157
217 218
217 275
217 219
217 216
217 215
218 276
218 275
218 217
218 215
218 213
218 214
218 276
210 211
210 212
210 213
210 209
125 122
125 126
125 146
125 168
125 124
125 123
125 121
165 162
165 163
165 198
165 174
165 173
165 167
165 164
165 161
163 199
163 197
163 198
163 165
163 162
202 203
202 204
202 216
202 219
202 201
202 157
202 156
216 204
216 215
216 217
216 219
216 202
215 205
215 206
215 213
215 218
215 217
215 216
215 204
213 209
213 210
213 212
213 214
213 218
213 215
213 206
122 131
122 127
122 126
122 125
122 121
146 125
146 126
146 145
146 147
146 168
167 147
167 149
167 150
167 164
167 165
167 173
167 168
167 147
162 159
162 199
162 163
162 165
162 161
162 158
159 199
159 162
159 158
159 157
157 155
157 156
157 202
157 201
157 199
157 159
157 158
206 205
206 207
206 209
206 213
206 215
206 205
209 210
209 213
209 206
126 127
126 145
126 146
126 125
126 122
147 148
147 149
147 167
147 168
147 146
147 145
164 160
164 161
164 165
164 167
164 150
161 162
161 165
161 164
161 160
161 158
158 155
158 157
158 159
158 162
158 161
158 160
158 154
204 203
204 205
204 215
204 216
204 202
205 204
205 207
205 206
205 215
205 204
131 132
131 130
131 127
131 122
145 127
145 128
145 143
145 148
145 147
145 146
145 126
149 148
149 150
149 167
149 147
150 142
150 151
150 152
150 160
150 164
150 167
150 149
150 148
160 152
160 154
160 158
160 161
160 164
160 150
155 156
155 157
155 158
155 154
156 203
156 202
156 157
156 155
203 156
203 204
203 202
207 208
207 206
207 205
132 130
132 131
127 131
127 130
127 129
127 128
127 145
127 126
127 122
148 142
148 150
148 149
148 147
148 145
148 143
148 141
152 151
152 153
152 154
152 160
152 150
154 153
154 155
154 158
154 160
154 152
208 207
130 131
130 132
130 133
130 129
130 127
129 127
129 130
129 133
129 134
129 128
129 127
128 129
128 134
128 143
128 145
128 127
143 134
143 135
143 141
143 148
143 145
143 128
141 136
141 140
141 142
141 148
141 143
141 135
142 151
142 150
142 148
142 141
142 140
151 153
151 152
151 150
151 142
151 140
151 139
134 129
134 135
134 143
134 128
135 136
135 141
135 143
135 134
140 137
140 139
140 151
140 142
140 141
140 136
153 154
153 152
153 151
153 139
133 130
133 129
136 137
136 140
136 141
136 135
139 138
139 153
139 151
139 140
139 137
137 138
137 139
137 140
137 136
138 137
138 139
