ply
format ascii 1.0
comment Exported from MorphoGraphX 2.0 9eafb9a
comment Cell Graph: each vertex is a cell, each edge a wall
element vertex 254
property int label
property float x
property float y
property float z
property list uchar float /Cell Axis PDG
property float Geometry/Area
element edge 1428
property uint source
property uint target
end_header
52 -52.1441 13.9323 -2.51491 9 -0.902507 0.423974 0.0756835 0.405781 0.778222 0.479283 -0.0333369 0.0197362 0 43.758 
51 -47.1989 11.4107 -2.30084 9 -0.750387 0.656392 -0.0779094 0.57241 0.704231 0.420007 -0.0699544 0.0304415 0 33.0548 
50 -44.8775 15.815 -0.17487 9 -0.727634 0.684583 0.0435348 0.655317 0.674965 0.339089 -0.058818 0.0249969 0 31.9454 
53 -42.8538 10.0192 -0.524849 9 -0.556364 0.730819 -0.395427 0.612641 0.68227 0.398973 -0.0775779 0.0161101 0 28.4496 
54 -39.8312 9.49656 1.79807 9 -0.461181 0.686669 -0.561959 0.640838 0.695809 0.32431 -0.0504738 0.0186929 0 31.1335 
49 -41.9322 19.1466 1.09423 9 -0.736833 0.671594 0.0777063 0.665391 0.700029 0.259258 -0.064262 0.020937 0 26.0086 
48 -38.7546 24.8882 2.40074 9 -0.760742 0.63629 0.128093 0.648867 0.750309 0.126525 -0.0497362 0.0235773 0 35.4273 
47 -40.8717 28.0564 3.25583 9 -0.841908 0.493627 0.217999 0.523155 0.845683 0.105489 -0.0222057 0.0199131 0 30.3404 
63 -37.9079 6.27297 4.62225 9 0.64752 0.662776 0.376092 -0.398579 0.715196 -0.574134 0.0296142 -0.000350153 0 34.3567 
55 -37.7302 16.124 2.12294 9 -0.588902 0.720829 -0.365514 0.677873 0.686803 0.262279 -0.0741713 0.0229716 0 36.3963 
44 -37.0946 34.9883 3.46112 9 0.504854 0.861523 -0.0538522 -0.829926 0.5016 0.244172 0.0210013 -0.00222725 0 44.8555 
2 -38.7918 55.8843 -2.56326 9 -0.993716 0.0895372 0.0671623 -0.0385394 -0.837076 0.545727 0.0216827 -0.0108044 0 41.1393 
65 -37.4191 -5.88087 6.09806 9 0.714871 -0.276576 0.642235 0.135647 0.955857 0.260648 0.0139932 -0.00331717 0 50.9755 
64 -37.3337 0.0499138 6.40848 9 0.454734 0.825597 0.334075 -0.576256 0.558744 -0.596435 0.0288406 0.0166683 0 32.7973 
56 -35.3066 21.2786 2.52852 9 -0.687973 0.708645 -0.156575 0.698832 0.705066 0.120479 -0.0762004 0.0284456 0 31.0206 
66 -32.2283 -5.38401 10.1789 9 0.775126 0.381198 0.503854 -0.372571 0.919848 -0.122763 0.0284401 -0.000607936 0 35.2226 
67 -32.7822 1.01112 9.57962 9 0.790158 0.493365 0.363649 -0.362807 0.854713 -0.371264 0.0268822 0.0197599 0 42.0876 
62 -33.6519 8.85813 6.90205 9 0.841458 0.273203 0.466163 -0.0924015 0.922801 -0.374032 0.0166439 0.00374779 0 51.4181 
60 -33.1303 16.3224 4.40588 9 -0.457302 0.68642 -0.565422 0.742636 0.644537 0.181837 -0.0451871 0.0222579 0 34.4176 
59 -32.2543 25.5041 2.67211 9 -0.734787 0.672112 -0.0913986 0.677759 0.73288 -0.0594131 -0.0696627 0.0246066 0 30.8613 
43 -33.3104 32.5503 2.3497 9 -0.726671 0.664028 0.176115 0.648945 0.747617 -0.141207 -0.0385105 0.0198429 0 38.7761 
45 -33.0121 40.7634 2.12119 9 0.333475 0.92033 -0.204417 -0.889644 0.378952 0.25481 0.0290274 0.00720147 0 45.1451 
3 -30.8293 49.5327 -1.3888 9 0.899884 -0.354904 -0.253479 0.211931 0.863813 -0.457069 0.0239164 0.0195307 0 40.9107 
1 -32.2276 55.1813 -4.2017 9 0.932237 -0.0640257 -0.35614 -0.146023 0.833958 -0.532157 0.0235072 -0.00286613 0 62.5166 
73 -28.9106 6.33379 10.5348 9 0.820171 -0.273352 0.502592 0.355648 0.931715 -0.0736295 0.023483 0.012523 0 36.8247 
61 -29.6815 15.3945 6.89903 9 0.83551 0.501133 0.225361 -0.329729 0.785351 -0.52393 0.0196207 -0.000831189 0 35.787 
42 -29.9578 31.5515 1.77951 9 -0.796096 0.602662 0.0550405 0.585533 0.790052 -0.181571 -0.0702066 0.0186102 0 23.7075 
46 -29.6159 44.5248 -0.128123 9 0.346788 0.820896 -0.453727 -0.829563 0.494175 0.260032 0.0244179 0.00415054 0 46.4552 
68 -26.6851 1.21628 12.4845 9 0.838491 -0.427246 0.338222 0.443152 0.895838 0.0330089 0.0245108 0.0164305 0 29.7061 
74 -26.4001 13.1513 9.352 9 0.935152 0.0788062 0.34537 0.0525729 0.933271 -0.355303 0.0166216 0.00834608 0 42.7676 
58 -27.5531 21.9015 4.91802 9 -0.594892 0.567091 -0.569658 0.692838 0.721071 -0.00570676 -0.0339241 0.0104733 0 39.1104 
40 -26.5056 27.4824 2.8824 9 -0.772067 0.475161 -0.42206 0.570172 0.811218 -0.129725 -0.0717783 0.0104836 0 18.6665 
41 -27.2937 30.6358 1.73682 9 -0.838906 0.52982 -0.12461 0.543904 0.807602 -0.227918 -0.0845258 0.0139034 0 21.6034 
35 -27.2448 38.9605 0.00390644 9 -0.830411 0.51266 0.218169 0.43599 0.841733 -0.318431 -0.0608294 0.0229488 0 26.7899 
4 -26.5002 52.9613 -5.70651 9 0.0349554 0.820711 -0.570273 -0.858869 0.316436 0.402756 0.022621 -0.00373322 0 41.1114 
72 -24.1158 4.94348 12.7322 9 0.850505 -0.438865 0.289896 0.461928 0.886827 -0.0126775 0.0262461 0.00967735 0 16.0772 
71 -22.6457 7.9414 12.5152 9 0.625971 -0.689248 0.364825 0.723579 0.687807 0.0579192 0.0230759 0.0140426 0 27.9454 
80 -23.1976 19.7403 7.8449 9 0.865948 -0.242735 0.437279 0.374813 0.89385 -0.246066 0.012773 0.000337777 0 32.9149 
39 -23.5047 27.123 4.22406 9 -0.751099 0.39536 -0.528716 0.559839 0.805884 -0.192693 -0.030981 0.0083814 0 24.88 
36 -24.7759 37.5943 -0.377113 9 -0.874651 0.480392 0.0648846 0.436755 0.839026 -0.324468 -0.0942758 0.016745 0 18.7707 
34 -22.0088 45.0335 -3.90662 9 -0.934502 0.349138 0.0693504 0.271385 0.824888 -0.495893 -0.0783566 0.0179138 0 33.1101 
5 -24.5703 48.0675 -4.23225 9 -0.844974 0.432021 0.315242 0.224767 0.821733 -0.523674 -0.0435582 0.0221877 0 27.5634 
69 -22.0081 0.958645 13.8197 9 0.964445 0.149899 0.217661 -0.116112 0.980176 -0.160539 0.0172576 -0.00584431 0 13.8283 
75 -21.9484 12.6445 11.286 9 -0.766392 0.471792 -0.435955 -0.567974 -0.814719 0.116786 0.0191947 0.0104016 0 25.1477 
83 -21.0597 25.3285 6.19125 9 0.875959 -0.193235 0.44199 0.341404 0.895654 -0.285038 0.00906076 0.00403332 0 18.6603 
37 -23.1061 34.543 0.702256 9 -0.865578 0.346623 -0.361423 0.455233 0.845367 -0.279496 -0.0918364 0.0105064 0 20.9137 
38 -20.2757 34.1973 1.79857 9 -0.833851 0.250229 -0.492014 0.437898 0.842543 -0.313636 -0.0484093 0.0119687 0 30.744 
33 -20.1795 41.9348 -2.59254 9 -0.941292 0.258064 -0.21765 0.331735 0.826642 -0.45455 -0.0862993 0.0136126 0 30.0767 
6 -20.1328 51.0024 -7.96978 9 -0.945984 0.319279 0.0563446 0.220356 0.760647 -0.610622 -0.0644752 0.0303683 0 32.8739 
7 -20.6872 55.2592 -11.3701 9 -0.875186 0.469625 0.1162 0.225627 0.608684 -0.760655 -0.0534184 0.0293467 0 40.6013 
198 -16.653 -16.1612 12.011 9 0.177187 0.922899 0.341852 -0.983387 0.179935 0.0239331 0.0332873 -0.019734 0 34.8485 
70 -18.0508 3.52318 14.3145 9 0.934312 -0.307489 0.18031 0.317041 0.948054 -0.0260591 0.0196462 0.0058583 0 30.9287 
76 -18.0146 10.5845 12.9755 9 0.671072 -0.65146 0.353924 0.716742 0.692138 -0.0850061 0.0253108 0.0110791 0 28.6639 
79 -18.0549 16.926 10.6748 9 0.836632 -0.410132 0.363096 0.496271 0.848117 -0.185504 0.0162664 -0.000313347 0 39.6995 
82 -17.6947 24.7665 7.66372 9 0.859591 -0.313502 0.403511 0.426785 0.874732 -0.229561 0.014492 0.00261423 0 26.0255 
81 -15.4935 21.6256 9.56353 9 0.807915 -0.438942 0.393197 0.540464 0.817858 -0.197501 0.0145472 0.00144688 0 34.4477 
84 -17.2757 30.3406 5.13166 9 -0.443754 0.732265 -0.516595 -0.838862 -0.542222 -0.0480092 0.0100296 0.00507704 0 47.8757 
32 -17.2528 41.0195 -1.38677 9 -0.90559 0.200502 -0.373772 0.362569 0.823234 -0.436841 -0.0480783 0.0118789 0 27.4319 
199 -13.1399 -20.5796 10.0923 9 0.0981696 0.863907 0.493992 -0.993423 0.114473 -0.00277348 0.0201483 -0.00993385 0 43.865 
77 -14.6963 7.59619 14.2591 9 0.566622 -0.804279 0.179095 0.82261 0.564678 -0.0667283 0.026849 0.0131989 0 21.5637 
192 -13.3605 12.8168 12.9754 9 -0.683809 0.665332 -0.299565 -0.716231 -0.690453 0.10143 0.0192224 -0.00229527 0 28.8296 
87 -15.1317 37.0818 2.17339 9 0.367561 0.83369 -0.412141 -0.865647 0.144713 -0.479284 0.0151793 0.00150727 0 34.3528 
29 -16.3228 48.6302 -6.71295 9 -0.954989 0.137915 -0.262631 0.266105 0.789532 -0.553016 -0.0647436 0.0211924 0 26.7527 
8 -14.9338 54.3511 -12.2752 9 -0.993792 0.0636093 -0.0912806 0.11119 0.596516 -0.794862 -0.0663693 0.0307022 0 39.5359 
196 -12.8563 -13.448 12.9354 9 0.0532842 0.975862 0.211787 -0.998123 0.0584631 -0.0182628 0.0236777 -0.00235836 0 22.5759 
195 -10.4954 -9.14013 13.8761 9 -0.403362 0.904657 0.137461 -0.913709 -0.390103 -0.11382 0.0140303 0.00209253 0 27.1175 
181 -11.4941 18.3995 11.6976 9 -0.639143 0.704119 -0.309374 -0.7507 -0.658598 0.0519524 0.0184681 0.00374395 0 22.1271 
179 -11.5395 26.5842 8.53431 9 -0.917978 0.226307 -0.325734 -0.316057 -0.913545 0.256013 0.0122711 0.00174848 0 27.2161 
85 -12.6399 33.9752 4.93822 9 0.453264 -0.740837 0.495693 0.86602 0.497694 -0.0480667 0.0176246 0.0133844 0 24.3667 
31 -11.1259 41.4396 0.569082 9 0.691449 -0.476463 0.54303 0.683082 0.675873 -0.276758 0.0107851 0.0085619 0 38.3626 
30 -13.0665 45.2642 -3.00624 9 -0.893042 0.0861051 -0.441658 0.328276 0.795964 -0.508603 -0.0176126 0.0163113 0 30.4366 
28 -13.1011 50.3804 -7.60613 9 0.966033 -0.101678 0.237577 -0.237843 -0.70933 0.663537 -0.0369241 0.023925 0 19.1218 
200 -7.29913 -23.4457 9.02054 9 0.624934 0.644492 0.440554 -0.775663 0.576464 0.256975 0.0181071 0.00535551 0 46.2193 
197 -9.23461 -14.8528 12.6202 9 0.224344 0.933374 0.280148 -0.97406 0.206037 0.0935744 0.0216807 0.00493222 0 22.3688 
193 -8.99927 -4.64385 14.6526 9 -0.304988 0.947257 0.0984237 -0.949823 -0.295014 -0.10394 0.017228 0.00717471 0 26.9133 
190 -9.6805 7.54613 14.4169 9 -0.409141 0.900331 -0.148353 -0.910899 -0.412543 0.00850204 0.0185442 0.000717937 0 31.4382 
182 -8.77742 13.774 13.3139 9 -0.639338 0.726893 -0.250744 -0.76122 -0.644384 0.0728974 0.0179647 -0.000344382 0 27.9497 
178 -9.84281 22.099 10.6839 9 0.859015 -0.400539 0.318845 0.48628 0.833115 -0.263534 0.0140772 0.00582423 0 18.9547 
89 -9.13427 30.964 7.26341 9 0.902 -0.276316 0.331731 0.380313 0.872211 -0.307588 0.0142632 0.0120169 0 37.1019 
90 -7.23704 36.0488 4.94931 9 0.840296 -0.389699 0.376879 0.521806 0.769944 -0.367294 0.014311 0.00712919 0 43.06 
27 -9.35214 48.928 -4.9995 9 0.180283 0.712047 -0.678592 -0.958056 -0.0291321 -0.285097 0.0170306 -0.00680478 0 33.8914 
10 -8.97021 52.6782 -8.93855 9 -0.975203 -0.172646 -0.138467 -0.0103502 0.660555 -0.750707 -0.0203864 0.0134161 0 23.1718 
9 -9.49414 55.9152 -13.1331 9 0.955848 0.270821 0.114064 0.0624222 -0.566419 0.82175 -0.0293101 0.0213742 0 27.7153 
201 -6.87408 -18.1611 11.5722 9 0.469822 0.832489 0.293649 -0.880001 0.467966 0.0812796 0.0274948 0.00780403 0 20.3696 
220 -5.49296 -10.4109 13.6636 9 0.947489 -0.300958 -0.108115 0.31602 0.932941 0.172491 0.0143307 0.00940469 0 18.7356 
191 -6.49573 0.958473 15.0581 9 -0.195605 0.980376 -0.024543 -0.980613 -0.195828 -0.007006 0.0207079 0.00795578 0 28.658 
188 -5.26793 7.05025 14.6855 9 -0.488687 0.866413 -0.102532 -0.87134 -0.490629 0.00707305 0.015453 0.00488245 0 22.6159 
180 -5.35029 19.7691 12.0823 9 -0.727281 0.625485 -0.282542 -0.677337 -0.720561 0.148347 0.0152784 0.00862886 0 40.0491 
176 -5.66296 25.9613 9.8775 9 0.990721 -0.0201942 0.134404 0.0652781 0.938072 -0.340234 0.0175188 0.00451696 0 35.6249 
25 -5.18522 40.2393 2.83463 9 0.73841 -0.49756 0.455175 0.65348 0.694592 -0.300841 0.0168953 0.00376701 0 26.0036 
26 -6.4308 45.1517 -0.874638 9 -0.544262 0.591246 -0.595153 -0.817022 -0.534587 0.216082 0.0169018 0.00463731 0 34.6252 
204 -2.97361 -26.8773 7.29462 9 0.731814 0.585083 0.349466 -0.681446 0.621471 0.38653 0.0343558 0.00596105 0 23.2334 
202 -3.57811 -18.7863 11.381 9 0.562809 0.797022 0.219095 -0.821178 0.508854 0.25833 0.0285228 0.0152654 0 19.4377 
219 -3.37027 -13.8644 12.7024 9 0.851919 0.519258 0.0678635 -0.518935 0.819695 0.242501 0.0130874 0.0103272 0 26.026 
194 -5.43621 -5.24142 14.66 9 -0.710657 0.685297 0.15917 -0.699967 -0.711484 -0.0619411 0.0216541 0.0127042 0 16.8194 
221 -1.77695 -8.10117 13.826 9 0.788657 -0.579734 -0.204763 0.607606 0.785807 0.115421 0.0111115 0.00639487 0 19.4205 
222 -1.61561 -2.59776 14.7249 9 -0.374303 0.912218 0.166602 -0.923723 -0.382569 0.0194115 0.0222101 0.00590839 0 27.9295 
183 -4.70735 12.7627 13.8831 9 0.671864 -0.724754 0.152742 0.740188 0.664465 -0.102997 0.0194683 0.00498559 0 18.679 
187 -1.9539 8.3637 14.5317 9 -0.491496 0.868173 -0.0686133 -0.86877 -0.483302 0.107969 0.0125455 0.00524234 0 23.0637 
184 -1.66788 16.8853 13.1819 9 0.589406 -0.787514 0.180063 0.807566 0.580158 -0.106084 0.020911 0.0106831 0 27.7394 
91 -1.74515 29.5222 8.71594 9 0.999322 0.0358611 0.00835235 -0.0301619 0.927367 -0.372936 0.0156832 0.00580578 0 43.4586 
24 -2.09171 36.9978 5.19645 9 0.820642 -0.46793 0.328005 0.565554 0.747251 -0.348947 0.0217087 0.00410098 0 21.061 
18 -4.62021 51.3151 -5.71313 9 -0.436047 0.517806 -0.73603 -0.853771 -0.496587 0.156446 0.0175423 0.000182601 0 18.5942 
19 -2.17678 48.6345 -2.55245 9 0.578628 -0.558124 0.594716 0.790568 0.563056 -0.240769 0.0217823 0.00353828 0 32.7967 
11 -4.80963 54.9403 -9.7663 9 0.325015 -0.563856 0.759231 0.904325 0.420193 -0.0750639 0.0174729 -0.00673673 0 26.3072 
206 0.855422 -30.6196 4.8296 9 0.687964 0.581068 0.434816 -0.724994 0.577486 0.375358 0.0363904 -0.0119164 0 29.3698 
205 2.14318 -26.3777 7.2581 9 0.702038 0.673314 0.231929 -0.702483 0.601311 0.380713 0.0306744 -0.00390449 0 27.2806 
203 0.288501 -22.1671 9.50842 9 0.683006 0.69662 0.219599 -0.718853 0.58782 0.371102 0.0224255 0.0080798 0 32.7453 
210 2.04176 -17.8064 10.9001 9 -0.273263 0.900999 0.336939 -0.948968 -0.309829 0.0588776 0.0171189 0.00771269 0 35.9142 
218 0.891308 -12.0859 12.625 9 -0.591122 0.768838 0.24385 -0.796342 -0.604328 -0.0250377 0.00783657 0.00494037 0 20.253 
217 2.80403 -6.5354 13.6031 9 0.683257 -0.6978 -0.215023 0.721016 0.691269 0.0477737 0.0106705 0.00683172 0 36.3962 
224 -1.8027 2.10962 15.0024 9 -0.358404 0.932988 -0.032862 -0.931884 -0.355425 0.072559 0.0234195 0.00629677 0 22.2071 
185 0.149657 12.7333 13.9118 9 -0.669706 0.739377 -0.0693956 -0.741118 -0.659469 0.125871 0.0134005 0.00792334 0 16.0207 
175 -0.221168 23.0212 11.3306 9 0.981138 0.188329 -0.0435946 -0.191076 0.910641 -0.366364 0.0148443 0.0111373 0 25.4426 
92 1.71423 32.3891 7.37588 9 -0.787906 0.582342 -0.200203 -0.609269 -0.689998 0.390761 0.00974311 0.00130105 0 33.8087 
23 1.78081 38.2169 4.65606 9 0.746824 -0.58972 0.307384 0.664814 0.673616 -0.322899 0.0174603 -0.00123865 0 32.6032 
21 -1.29578 43.7412 1.23503 9 0.708595 -0.547966 0.444552 0.695605 0.648221 -0.309748 0.0182776 0.00409688 0 30.5552 
17 -0.0428225 53.4936 -6.37095 9 0.61777 -0.460159 0.637663 0.759662 0.558733 -0.332763 0.0222415 -0.00432502 0 33.062 
12 0.224294 57.1167 -10.1216 9 0.376115 -0.504383 0.777262 0.875134 0.468985 -0.119139 0.0242466 -0.0140798 0 28.1457 
223 4.68557 -0.158188 14.2728 9 -0.521622 0.83918 0.153909 -0.844184 -0.53378 0.0493304 0.0206098 0.00514692 0 42.6337 
225 2.78412 7.0211 14.4787 9 -0.417989 0.90478 -0.0816029 -0.908144 -0.41382 0.0634604 0.018323 0.00425961 0 45.0176 
186 3.21769 14.296 13.5265 9 0.513762 -0.852628 0.0952561 0.856287 0.502732 -0.118461 0.0109358 0.00951887 0 19.4109 
174 3.28293 20.5157 12.1684 9 -0.298717 0.917115 -0.263948 -0.952458 -0.269127 0.142811 0.0210598 0.0126585 0 25.4245 
22 5.29409 40.6349 3.50554 9 0.760613 -0.572105 0.306861 0.64913 0.677421 -0.346023 0.0164061 0.00814123 0 32.2818 
20 2.21183 45.7755 0.325709 9 0.800721 -0.453951 0.390863 0.593583 0.68911 -0.415676 0.0195506 0.00713494 0 21.0261 
16 3.93576 50.2958 -2.75859 9 0.800337 -0.415806 0.431932 0.591322 0.666385 -0.45417 0.0252502 -0.0035797 0 36.6069 
207 5.92232 -28.9778 5.47134 9 0.644264 0.708044 0.289132 -0.760716 0.554233 0.337841 0.0312333 -0.0290232 0 19.9227 
209 7.41209 -23.2857 7.63907 9 -0.663899 0.615216 0.425144 0.716885 0.685407 0.127641 -0.0119207 0.0114263 0 36.8582 
211 7.23863 -17.873 9.96918 9 -0.300357 0.864857 0.402254 -0.934863 -0.350603 0.055757 0.0149413 0.00773665 0 27.6319 
214 5.6096 -12.3271 11.9035 9 0.683454 -0.678294 -0.269831 0.716649 0.693794 0.0711554 0.0114919 0.00766265 0 29.3269 
216 7.67371 -5.70877 13.0231 9 0.944444 -0.218437 -0.245581 0.261023 0.952551 0.156565 0.0114672 0.00840612 0 28.548 
226 7.54482 3.24085 14.1951 9 -0.509829 0.847062 0.150201 -0.839595 -0.527983 0.127725 0.0234846 0.00822919 0 23.673 
228 8.77219 11.5496 13.4708 9 -0.446484 0.887213 -0.116214 -0.887873 -0.423159 0.180605 0.0129649 0.0101898 0 39.827 
229 6.57079 16.8034 12.7799 9 -0.161886 0.97445 -0.155691 -0.979416 -0.139384 0.146004 0.0139124 0.00990402 0 25.8361 
173 4.54733 26.7821 9.63318 9 0.741504 -0.633569 0.220819 0.668293 0.668175 -0.326997 0.00506802 0.00287343 0 31.0137 
93 8.35335 35.0425 5.94174 9 0.856969 -0.491419 0.155281 0.512986 0.784423 -0.348606 0.00415146 0.00327681 0 41.4761 
99 6.46755 45.6637 0.74589 9 0.846848 -0.443127 0.294087 0.53167 0.719154 -0.447375 0.023926 0.00971592 0 23.5854 
14 6.86029 53.8502 -5.16909 9 0.737856 -0.501003 0.452287 0.658663 0.680822 -0.320381 0.0273107 -0.0214296 0 33.1247 
13 6.32187 57.4612 -7.79894 9 0.563969 -0.525016 0.637414 0.780474 0.591073 -0.203699 0.0378794 -0.0102276 0 27.143 
208 9.0517 -29.5666 4.89847 9 -0.869876 0.456832 0.186066 0.492125 0.829443 0.26427 -0.0761586 0.0192187 0 33.1583 
213 10.5994 -14.835 10.2789 9 -0.128378 0.942843 0.307515 -0.960634 -0.195258 0.197628 0.0180158 0.00990084 0 22.4989 
245 10.0004 6.77616 13.8598 9 -0.392675 0.918579 0.0449447 -0.906553 -0.394835 0.149221 0.0272078 0.00861021 0 28.2948 
172 8.52353 23.3395 10.7764 9 -0.573913 0.773584 -0.268685 -0.815576 -0.510327 0.272768 0.0193125 0.00350863 0 33.7127 
170 9.46418 28.1234 8.84289 9 0.672779 -0.704849 0.224847 0.738471 0.621265 -0.26209 0.0108992 0.000686347 0 19.0411 
94 7.20896 31.4929 7.52431 9 -0.822001 0.523585 -0.223991 -0.569413 -0.761929 0.308598 0.0024574 0.000412511 0 15.9256 
98 10.1229 43.1224 1.93892 9 0.834914 -0.525459 0.163741 0.533248 0.698648 -0.477009 0.0143907 0.00725466 0 31.4077 
15 9.31779 48.8732 -1.60491 9 -0.822451 0.502482 -0.266622 -0.564253 -0.661271 0.494307 0.0208222 -0.0139101 0 21.004 
212 12.6325 -18.799 8.21353 9 -0.657587 0.624024 0.422107 0.71428 0.694563 0.0859432 -0.0135812 0.00920048 0 24.5183 
215 10.0881 -10.1513 11.5349 9 0.937837 -0.221572 -0.267146 0.260674 0.957856 0.120667 0.00878914 0.007867 0 21.5824 
249 12.4374 -4.31455 12.1706 9 -0.674001 0.671828 0.307196 -0.700022 -0.713686 0.0249336 0.00896544 0.00356728 0 36.5924 
246 12.5161 0.788588 12.9524 9 -0.332174 0.929506 0.160246 -0.921957 -0.355835 0.152894 0.0156178 0.00345387 0 22.5098 
230 12.9691 17.0533 11.7865 9 0.624863 -0.77704 0.0758639 0.763883 0.588403 -0.265077 0.0103156 0.00619281 0 33.5717 
231 10.4246 20.3164 11.5379 9 -0.472628 0.876901 -0.0875599 -0.858459 -0.435665 0.270636 0.0201288 0.00766718 0 15.8427 
95 12.6749 30.2413 7.70193 9 0.822923 -0.539694 0.177564 0.562403 0.729434 -0.389396 0.0111042 0.00376458 0 23.6398 
97 12.9159 38.2476 4.17895 9 0.650786 0.647395 -0.396684 -0.75097 0.625844 -0.210627 0.0113572 0.00565673 0 34.7424 
101 12.3338 50.2707 -2.5879 9 0.545302 0.740793 -0.392266 0.838221 -0.478748 0.261125 -0.021007 0.0159883 0 16.3706 
102 13.7069 53.5805 -4.09199 9 0.852454 -0.466655 0.235703 0.520438 0.800291 -0.297788 0.0236699 -0.0114153 0 20.9598 
103 13.304 56.7423 -5.63108 9 0.755872 -0.540323 0.369743 0.646854 0.703582 -0.294197 0.0348797 0.000526697 0 26.7109 
250 14.7778 -12.346 9.75227 9 -0.0234889 0.967415 0.252103 -0.966655 -0.0863004 0.241102 0.0115285 0.00464118 0 40.6263 
243 15.8189 4.62695 12.602 9 -0.0353447 0.993347 0.109602 -0.967989 -0.0612972 0.243393 0.0226013 0.00704151 0 33.7746 
242 17.0872 9.48065 12.1883 9 0.152234 -0.985433 0.0758089 0.959665 0.129038 -0.249783 0.0226775 0.00710291 0 38.8467 
232 14.7767 13.3566 12.2352 9 0.636225 -0.771246 -0.0199389 0.740217 0.617505 -0.266022 0.0147054 0.00945554 0 21.3348 
169 15.5153 21.3361 10.2641 9 0.676739 -0.733554 0.0626281 0.710638 0.628622 -0.315956 0.0142578 0.000233014 0 20.7016 
168 14.206 25.0142 9.49049 9 0.628775 -0.767171 0.126852 0.767736 0.586607 -0.257826 0.0185317 0.00304862 0 19.5774 
96 15.9709 33.9373 5.78503 9 0.992054 0.0384172 -0.119801 -0.0803244 0.926306 -0.368111 0.0120111 0.00565688 0 26.0353 
128 15.7165 40.9849 2.30209 9 -0.793548 0.568999 -0.215689 -0.596701 -0.65814 0.459129 0.00732247 0.000365149 0 21.5679 
100 14.2509 46.1597 -0.347273 9 0.634007 0.659363 -0.404073 0.769528 -0.589647 0.24524 -0.0118574 0.0108467 0 26.3776 
252 19.2275 -15.4136 7.48819 9 0.816557 0.571115 -0.0840397 -0.490655 0.76335 0.420185 0.00584537 -0.0034469 0 34.6362 
251 18.3321 -8.91109 9.57015 9 -0.476831 0.817697 0.322496 -0.831725 -0.538419 0.135416 0.00661197 0.00151138 0 34.1196 
248 17.5185 -2.07195 11.2628 9 -0.195235 0.949923 0.243986 -0.942615 -0.250445 0.220802 0.00942805 0.00225335 0 37.7391 
167 17.1181 28.3118 8.05486 9 -0.776267 0.618318 -0.122854 -0.61811 -0.708232 0.341097 0.0198922 0.0128429 0 25.1705 
129 18.2798 42.2451 1.20126 9 0.882459 -0.459071 0.102564 0.445128 0.744486 -0.497596 0.0113294 -0.00942712 0 17.2548 
109 17.8247 50.1757 -2.56815 9 0.915288 -0.382635 0.125853 0.39925 0.820406 -0.409309 0.0147319 -0.0104476 0 34.4378 
104 19.003 57.1196 -5.59519 9 0.741868 -0.622478 0.249304 0.669689 0.669025 -0.322369 0.0217618 -0.00704357 0 16.9525 
257 21.3945 1.87739 10.9058 9 0.106256 0.99119 0.0790718 -0.959465 0.0813292 0.269838 0.0194599 0.00598574 0 24.0329 
260 22.6165 5.67294 10.7121 9 0.0734768 0.996957 -0.0260496 -0.943789 0.0779516 0.321224 0.0217551 0.00419497 0 24.2615 
234 19.2143 15.8085 10.659 9 -0.739945 0.669254 0.0676734 -0.626829 -0.722527 0.291617 0.0112769 0.00383266 0 28.2642 
235 20.1324 20.3182 9.62774 9 0.837983 -0.543481 -0.0491156 0.507401 0.809136 -0.296382 0.0166984 0.00607083 0 15.2031 
164 21.2695 24.9022 8.14485 9 -0.770777 0.636643 0.0242495 -0.591825 -0.729572 0.342736 0.0164401 0.0114898 0 39.0369 
166 20.3759 30.6449 6.44884 9 0.939656 -0.32059 -0.119449 0.233462 0.856086 -0.461099 0.0185309 0.0120238 0 23.6708 
127 20.5615 36.7983 3.58317 9 0.930202 -0.365876 -0.0293039 0.308088 0.821684 -0.479496 0.0151082 0.00273804 0 39.4856 
110 20.087 45.8127 -0.698697 9 -0.904643 0.417976 -0.0831649 -0.414162 -0.816257 0.402733 0.0172556 -0.00901823 0 21.7183 
105 19.9072 53.795 -4.27129 9 0.910218 -0.405397 0.0845969 0.407159 0.838703 -0.361661 0.014895 -0.0117245 0 19.3399 
253 25.7967 -13.4051 5.8455 9 0.902802 -0.170466 -0.394828 0.264159 0.944286 0.196326 0.00804462 -0.00016714 0 38.1502 
254 23.5694 -9.71751 7.79903 9 -0.675725 0.619678 0.399244 -0.675309 -0.737533 0.00177756 0.0123715 0.00108167 0 20.561 
255 24.2015 -6.01446 8.51932 9 -0.451938 0.832964 0.319254 -0.8517 -0.509335 0.123232 0.0105988 0.00369808 0 27.5914 
256 22.4258 -2.76532 9.76284 9 0.0955514 0.975582 0.197762 -0.960334 0.0380602 0.276244 0.0126904 0.00340505 0 21.3888 
241 22.6099 11.0303 10.4794 9 0.216586 -0.97357 0.0724695 0.933565 0.184828 -0.307076 0.0171632 0.00578338 0 25.5402 
236 23.8885 17.7997 9.00497 9 -0.94533 0.18644 0.267565 -0.13703 -0.971607 0.19288 0.0118475 0.00424317 0 33.2314 
165 25.2259 29.6832 5.38404 9 0.756275 -0.654228 0.00582462 0.582035 0.668702 -0.46268 0.0149362 0.0072412 0 21.3168 
131 25.1391 33.8893 3.66093 9 -0.875971 0.477232 0.0701786 -0.39347 -0.791096 0.468347 0.0154817 0.00216146 0 30.3089 
126 25.3152 39.0691 1.21322 9 -0.914189 0.391541 0.104659 -0.298568 -0.825252 0.479392 0.0129983 -0.00583284 0 25.6499 
130 22.5128 43.0419 0.116989 9 0.91273 -0.408361 -0.0128461 0.363046 0.825068 -0.432967 0.0183334 -0.0102622 0 18.8292 
108 23.7282 49.5027 -2.81585 9 0.8992 -0.431323 0.0734873 0.422188 0.81123 -0.404554 0.0181802 -0.00992145 0 28.9856 
106 25.4112 54.8766 -5.05806 9 0.925162 -0.376009 0.0518921 0.373152 0.875933 -0.305776 0.015691 -0.0156469 0 31.7685 
259 29.6277 -1.56878 7.67853 9 -0.0358025 0.982874 0.180769 -0.943497 -0.0928728 0.3181 0.01702 0.0107373 0 45.4158 
258 25.7282 0.883504 9.39418 9 0.183931 0.981578 0.0517141 -0.933224 0.157866 0.322757 0.0173966 0.0058495 0 18.668 
240 26.1089 8.05304 9.66845 9 -0.00624398 0.999299 0.036899 -0.956409 -0.0167414 0.29155 0.0238751 0.00818089 0 14.9911 
238 27.6673 11.4198 8.75327 9 0.00601014 0.985471 -0.169737 -0.937676 0.0645328 0.341468 0.0152609 0.00725168 0 30.8598 
163 26.9821 21.6899 7.13948 9 -0.692459 -0.604391 0.39397 0.623302 -0.776167 -0.095178 0.012063 0.0078534 0 26.9566 
162 27.2546 25.8377 6.06529 9 -0.511411 0.856917 -0.0644423 -0.787866 -0.437615 0.433313 0.0157346 0.0128995 0 21.9453 
125 28.2064 41.1313 -0.653231 9 0.294254 0.834818 -0.465288 0.901949 -0.403572 -0.153683 -0.0153451 0.0104249 0 26.5532 
111 27.7365 45.4965 -2.13851 9 -0.867362 0.494498 0.0561688 -0.439254 -0.813706 0.380709 0.0146014 -0.0119557 0 30.0509 
107 28.4236 49.9151 -3.74422 9 0.885755 -0.464013 -0.0113645 0.430505 0.83045 -0.353579 0.0185597 -0.00792679 0 21.5586 
264 29.7957 -8.5361 5.79461 9 -0.756669 0.451406 0.472953 -0.532995 -0.844846 -0.0463724 0.0122619 0.00152942 0 38.2272 
239 29.1562 5.53206 8.50997 9 0.124224 0.992109 -0.0169586 -0.940908 0.123206 0.315455 0.016626 0.0081169 0 27.5994 
237 28.776 16.5733 7.51192 9 0.888337 0.266621 -0.37386 -0.31842 0.944294 -0.0831742 0.00915385 0.00500359 0 27.1951 
160 29.7509 29.5226 3.72922 9 0.705151 -0.709002 0.00883128 0.617725 0.60816 -0.498555 0.0148 0.00545064 0 16.935 
132 29.2155 33.8389 2.28054 9 -0.8305 0.551114 0.0808835 -0.466403 -0.767412 0.439939 0.0155003 0.00199028 0 16.9595 
266 33.343 -14.3076 2.32412 9 -0.425752 0.795691 0.430827 0.814666 0.544289 -0.200173 -0.0128562 0.00747394 0 30.6363 
153 33.9325 4.6253 6.49887 9 -0.0677239 0.995862 0.0605991 -0.902517 -0.0870409 0.421768 0.0157022 0.00911488 0 46.8854 
154 33.0156 13.1459 6.40112 9 -0.417769 0.907151 0.0504687 -0.812601 -0.397917 0.425842 0.0127743 0.0087253 0 38.5066 
156 32.0897 18.996 5.72771 9 0.806004 0.462926 -0.36886 -0.501164 0.865304 -0.00913165 0.0116252 0.00728752 0 16.8989 
161 31.8522 24.5848 4.38303 9 -0.143103 0.9718 -0.187422 -0.887266 -0.0420673 0.459335 0.00973296 0.00830066 0 29.3305 
159 33.5669 29.4378 1.99519 9 -0.762331 0.6334 0.132876 -0.493507 -0.70175 0.513807 0.0115226 0.00170841 0 22.9228 
133 31.9241 35.1186 0.58964 9 -0.844542 0.507083 0.17209 -0.37124 -0.786043 0.494285 0.0131579 -0.00245964 0 28.0093 
124 33.3746 38.5554 -1.39326 9 0.898807 -0.409064 -0.157521 0.296962 0.832558 -0.467612 0.0182519 -0.0131304 0 19.0213 
123 33.4362 41.9295 -2.60443 9 0.924079 -0.35525 -0.140979 0.283966 0.88504 -0.368874 0.0190405 -0.0160136 0 19.1979 
112 33.145 46.1927 -3.767 9 0.908587 -0.392953 -0.141626 0.329912 0.88308 -0.333659 0.0191057 -0.00787335 0 23.4507 
113 31.884 52.457 -5.29298 9 -0.966 0.210264 0.150442 -0.153151 -0.934182 0.322256 0.0191093 -0.00864559 0 36.6356 
265 34.6463 -10.559 2.90098 9 0.19933 0.954336 0.222507 0.883729 -0.0769515 -0.461629 -0.00293196 0.000550989 0 23.566 
262 34.1425 -5.484 4.9543 9 0.0942593 0.956712 0.275348 -0.91545 -0.0253975 0.401629 0.0186268 0.00755936 0 21.7357 
261 35.6061 -1.72571 5.12566 9 0.278815 0.960344 -0.00114092 -0.822437 0.23939 0.516032 0.0214429 0.00785324 0 24.7137 
152 36.8628 10.2479 5.00653 9 -0.0383353 0.99542 -0.087574 -0.898944 0.00391808 0.438046 0.0158195 0.0109487 0 29.3357 
155 35.681 19.1194 4.05627 9 0.856355 0.186286 -0.481616 -0.259155 0.961745 -0.0888022 0.0143606 0.00808444 0 31.1818 
157 37.0231 23.0126 2.34019 9 0.898157 -0.21343 -0.384398 0.0809532 0.939605 -0.33255 0.0143919 0.006639 0 20.1255 
121 37.8413 35.8314 -2.50944 9 0.880376 -0.295115 -0.371275 0.10464 0.884397 -0.454854 0.0206779 -0.0125132 0 26.8438 
114 37.0413 52.5913 -6.82521 9 0.912459 -0.339767 -0.227985 0.248389 0.902738 -0.351236 0.0217858 -0.00751824 0 34.1106 
263 38.9948 -7.39249 1.91628 9 0.521243 0.851263 0.0604802 -0.753684 0.425931 0.500543 0.0132369 -0.000550194 0 44.8206 
148 38.3068 2.13312 4.26266 9 0.192976 0.981156 -0.00971101 -0.870478 0.175758 0.459758 0.0154331 0.0095149 0 21.0372 
149 40.2578 7.80652 3.38449 9 -0.0415521 0.998787 0.026429 -0.868745 -0.0491823 0.492811 0.0192098 0.0129785 0 26.6866 
151 39.0035 15.3963 3.07555 9 0.777268 0.392923 -0.491393 -0.41754 0.906381 0.0643024 0.0142476 0.0101312 0 22.7727 
158 38.5798 26.9868 0.253178 9 -0.870837 0.24331 0.427133 -0.109165 -0.942937 0.314566 0.0165355 0.00425298 0 40.1104 
134 39.0657 32.1869 -1.88463 9 -0.875331 0.152409 0.458876 0.0206459 -0.936377 0.350387 0.0155678 -0.000600957 0 45.1721 
122 38.2253 40.098 -4.04817 9 -0.844701 0.33451 0.417831 -0.213529 -0.926441 0.310019 0.0274437 -0.0168178 0 25.6833 
117 37.3784 45.8679 -5.06851 9 0.907775 -0.328795 -0.260456 0.230924 0.910109 -0.344057 0.0270588 -0.00101083 0 33.2281 
147 41.2417 -0.30531 2.29001 9 0.563789 0.799736 -0.206314 -0.660922 0.58666 0.467987 0.0160626 0.00746659 0 33.2722 
146 42.9651 5.46873 1.77111 9 0.559384 0.740302 -0.372883 -0.63573 0.67183 0.38012 0.0176638 0.0146183 0 21.9129 
150 42.5991 14.2575 1.12065 9 0.688206 0.475528 -0.547947 -0.503315 0.856881 0.111484 0.0159104 0.0112604 0 32.2826 
138 41.7764 20.5061 0.0708627 9 0.821263 -0.0498743 -0.568366 -0.0869395 0.9736 -0.211057 0.0137847 -0.000181094 0 41.677 
120 43.2808 37.7081 -6.56291 9 0.0830363 0.942622 -0.323371 0.833117 -0.243719 -0.496505 -0.0169032 0.0158945 0 30.3524 
118 42.6792 44.0221 -7.42621 9 0.839689 -0.308975 -0.446607 0.163532 0.928064 -0.334595 0.0304327 -0.00708585 0 24.3071 
116 40.9903 48.2481 -7.3457 9 -0.826051 0.440718 0.351294 -0.309945 -0.875825 0.369951 0.0271752 -0.00123406 0 24.809 
145 45.9743 3.33622 -0.365716 9 0.798019 0.140239 -0.586088 -0.0808837 0.988671 0.126438 0.0208313 0.0144996 0 24.5577 
140 45.6233 11.5475 -0.445689 9 -0.794397 0.182068 0.57947 -0.0789033 -0.976867 0.19876 0.0194155 0.0174152 0 33.5318 
137 45.3743 24.39 -3.63937 9 0.0183004 0.968236 -0.249369 -0.803641 0.162627 0.572463 0.00675511 0.00272183 0 41.6892 
136 44.2469 28.8474 -4.13954 9 0.750313 0.139732 -0.646147 -0.307086 0.939224 -0.15348 0.00868437 0.00679666 0 30.3414 
135 45.1572 33.2951 -6.57325 9 0.786888 -0.0794734 -0.611957 -0.0784275 0.970751 -0.226915 0.0131214 -0.00964982 0 26.5712 
119 44.3333 41.2982 -8.14168 9 -0.77936 0.1869 0.598053 -0.100475 -0.979403 0.175142 0.0256017 -0.013521 0 20.0611 
144 47.7414 0.113529 -2.17135 9 -0.743661 0.0946515 0.661823 -0.157729 -0.986822 -0.0361019 0.0207991 0.010214 0 33.0974 
141 48.2004 8.50968 -2.32036 9 0.660254 0.434137 -0.612854 -0.341112 0.900327 0.270285 0.016595 0.015535 0 34.1984 
139 47.0344 17.492 -3.00872 9 -0.762905 0.404856 0.504052 -0.187926 -0.884854 0.426283 0.0152135 0.00234099 0 35.9691 
143 51.2266 3.85614 -5.0959 9 -0.684319 0.115853 0.719921 -0.107807 -0.992522 0.057246 0.0222235 0.0131272 0 34.9893 
142 53.6822 6.42284 -8.01716 9 -0.522602 0.537587 0.66173 -0.308001 -0.84278 0.441427 0.0171758 -0.0111156 0 36.2201 
52 50
52 51
52 50
51 52
51 53
51 50
50 49
50 52
50 51
50 53
50 55
50 49
53 51
53 54
53 55
53 50
54 63
54 62
54 60
54 55
54 53
49 48
49 50
49 55
49 56
48 47
48 49
48 56
48 59
48 43
47 44
47 48
47 43
63 64
63 67
63 62
63 54
55 50
55 53
55 54
55 60
55 56
55 49
44 43
44 45
44 47
2 1
65 66
65 64
64 65
64 66
64 67
64 63
56 49
56 55
56 60
56 58
56 59
56 48
66 67
66 64
66 65
67 63
67 64
67 66
67 68
67 73
67 62
62 63
62 67
62 73
62 74
62 61
62 60
62 54
60 62
60 61
60 58
60 56
60 55
60 54
59 41
59 42
59 43
59 48
59 56
59 58
59 40
43 45
43 44
43 47
43 48
43 59
43 42
43 35
45 35
45 46
45 44
45 43
3 1
3 46
3 5
3 4
3 1
1 3
1 4
1 2
1 3
73 67
73 68
73 72
73 71
73 74
73 62
61 60
61 62
61 74
61 80
61 58
42 43
42 59
42 41
42 36
42 35
46 45
46 35
46 34
46 5
46 3
68 69
68 72
68 73
68 67
74 62
74 73
74 71
74 75
74 79
74 80
74 61
58 40
58 59
58 56
58 60
58 61
58 80
58 83
58 39
40 41
40 59
40 58
40 39
40 37
41 42
41 59
41 40
41 37
41 36
35 46
35 45
35 43
35 42
35 36
35 34
4 3
4 5
4 6
4 7
4 1
72 69
72 70
72 71
72 73
72 68
71 76
71 75
71 74
71 73
71 72
71 70
80 61
80 74
80 79
80 81
80 82
80 83
80 58
39 40
39 58
39 83
39 84
39 38
39 37
36 33
36 34
36 35
36 42
36 41
36 37
34 46
34 35
34 36
34 33
34 29
34 6
34 5
5 46
5 34
5 6
5 4
5 3
69 70
69 72
69 68
75 76
75 79
75 74
75 71
83 58
83 80
83 82
83 84
83 39
37 33
37 36
37 41
37 40
37 39
37 38
37 32
38 32
38 37
38 39
38 84
38 87
33 34
33 36
33 37
33 32
33 29
6 5
6 34
6 29
6 8
6 7
6 4
7 4
7 6
7 8
198 196
198 199
198 196
70 69
70 77
70 76
70 71
70 72
70 69
76 77
76 192
76 79
76 75
76 71
76 70
79 75
79 76
79 192
79 181
79 81
79 80
79 74
82 80
82 81
82 179
82 84
82 83
81 79
81 181
81 178
81 179
81 82
81 80
81 79
84 39
84 83
84 82
84 179
84 89
84 85
84 87
84 38
32 33
32 37
32 38
32 87
32 31
32 30
32 29
199 198
199 200
199 201
199 197
199 196
77 190
77 192
77 76
77 70
192 76
192 77
192 190
192 182
192 181
192 79
87 32
87 38
87 84
87 85
87 90
87 31
29 6
29 34
29 33
29 32
29 30
29 28
29 8
29 6
8 29
8 28
8 10
8 9
8 7
8 6
196 198
196 199
196 197
196 195
195 193
195 196
195 197
195 220
195 193
181 192
181 182
181 180
181 178
181 81
181 79
179 178
179 176
179 89
179 84
179 82
179 81
85 89
85 90
85 87
85 84
31 26
31 30
31 32
31 87
31 90
31 25
30 27
30 28
30 29
30 32
30 31
30 26
28 29
28 30
28 27
28 10
28 8
200 204
200 203
200 202
200 201
200 199
197 196
197 199
197 201
197 219
197 220
197 195
193 191
193 195
193 220
193 194
193 191
190 191
190 188
190 182
190 192
190 77
182 181
182 192
182 190
182 188
182 183
182 180
178 181
178 180
178 176
178 179
178 81
89 179
89 176
89 91
89 90
89 85
89 84
90 25
90 31
90 87
90 85
90 89
90 91
90 92
90 24
27 10
27 28
27 30
27 26
27 19
27 18
27 10
10 28
10 27
10 18
10 11
10 9
10 8
9 10
9 11
9 8
201 199
201 200
201 202
201 219
201 197
220 219
220 221
220 194
220 193
220 195
220 197
220 219
191 190
191 193
191 194
191 222
191 224
191 188
188 190
188 191
188 224
188 187
188 183
188 182
180 175
180 176
180 178
180 181
180 182
180 183
180 184
180 175
176 89
176 179
176 178
176 180
176 175
176 91
176 89
25 26
25 31
25 90
25 24
25 23
25 21
26 19
26 27
26 30
26 31
26 25
26 21
26 19
204 206
204 205
204 203
204 200
202 203
202 210
202 219
202 201
202 200
219 220
219 197
219 201
219 202
219 210
219 218
219 221
219 220
194 193
194 220
194 221
194 222
194 191
221 217
221 222
221 194
221 220
221 219
221 218
222 224
222 191
222 194
222 221
222 217
222 223
183 182
183 188
183 187
183 185
183 184
183 180
187 188
187 224
187 225
187 185
187 183
184 175
184 180
184 183
184 185
184 186
184 174
91 176
91 175
91 173
91 92
91 90
91 89
24 25
24 90
24 92
24 23
18 27
18 19
18 17
18 11
18 10
19 17
19 18
19 27
19 26
19 21
19 20
19 16
11 10
11 18
11 17
11 12
11 9
206 207
206 205
206 204
205 204
205 206
205 207
205 209
205 203
203 204
203 205
203 209
203 210
203 202
203 200
210 203
210 209
210 211
210 214
210 218
210 219
210 202
218 221
218 219
218 210
218 214
218 217
218 221
217 216
217 223
217 222
217 221
217 218
217 214
224 223
224 225
224 187
224 188
224 191
224 222
224 223
185 187
185 225
185 186
185 184
185 183
175 176
175 180
175 184
175 174
175 173
175 91
92 24
92 90
92 91
92 173
92 94
92 93
92 23
23 25
23 24
23 92
23 93
23 22
23 21
21 26
21 25
21 23
21 22
21 20
21 19
17 18
17 19
17 16
17 14
17 12
17 11
12 17
12 14
12 13
12 11
223 225
223 224
223 222
223 217
223 216
223 249
223 246
223 226
225 226
225 245
225 228
225 186
225 185
225 187
225 224
225 223
186 184
186 185
186 225
186 228
186 229
186 174
174 173
174 175
174 184
174 186
174 229
174 172
22 21
22 23
22 93
22 97
22 98
22 99
22 20
20 19
20 21
20 22
20 99
20 16
16 14
16 17
16 19
16 20
16 99
16 15
207 206
207 208
207 209
207 205
209 205
209 207
209 208
209 212
209 211
209 210
209 203
211 212
211 213
211 214
211 210
211 209
214 217
214 218
214 210
214 211
214 213
214 215
214 216
214 217
216 249
216 223
216 217
216 214
216 215
216 249
226 223
226 246
226 245
226 225
228 230
228 229
228 186
228 225
228 245
228 242
228 232
229 231
229 172
229 174
229 186
229 228
229 230
229 231
173 175
173 174
173 172
173 170
173 94
173 92
173 91
93 23
93 92
93 94
93 95
93 96
93 97
93 22
99 16
99 20
99 22
99 98
99 15
14 17
14 16
14 15
14 101
14 102
14 103
14 13
14 12
13 14
13 103
13 12
208 209
208 207
213 250
213 215
213 214
213 211
213 212
213 250
245 228
245 225
245 226
245 246
245 243
245 242
245 228
172 170
172 173
172 174
172 229
172 231
172 169
172 168
170 173
170 172
170 168
170 95
170 94
94 92
94 173
94 170
94 95
94 93
98 99
98 22
98 97
98 128
98 100
98 15
15 16
15 99
15 98
15 100
15 101
15 14
212 252
212 250
212 213
212 211
212 209
215 250
215 249
215 216
215 214
215 213
215 250
249 223
249 216
249 215
249 250
249 251
249 248
249 246
246 249
246 248
246 243
246 245
246 226
246 223
246 249
230 232
230 234
230 169
230 231
230 229
230 228
230 232
231 230
231 169
231 172
231 229
231 230
95 94
95 170
95 168
95 167
95 96
95 93
97 93
97 96
97 127
97 128
97 98
97 22
101 15
101 100
101 109
101 102
101 14
102 101
102 109
102 105
102 103
102 14
103 14
103 102
103 105
103 104
103 13
250 251
250 249
250 215
250 213
250 212
250 252
243 242
243 245
243 246
243 248
243 257
243 260
243 242
242 232
242 228
242 245
242 243
242 260
242 241
242 234
232 234
232 230
232 228
232 242
169 168
169 172
169 231
169 230
169 234
169 235
169 164
168 170
168 172
168 169
168 164
168 167
168 95
96 95
96 167
96 166
96 127
96 97
96 93
128 97
128 127
128 129
128 100
128 98
128 97
100 98
100 128
100 129
100 110
100 109
100 101
100 15
252 253
252 254
252 251
252 250
252 212
251 252
251 254
251 255
251 248
251 249
251 250
248 257
248 243
248 246
248 249
248 251
248 255
248 256
248 257
167 168
167 164
167 166
167 96
167 95
129 128
129 127
129 126
129 130
129 110
129 100
109 110
109 108
109 105
109 102
109 101
109 100
104 105
104 106
104 103
257 260
257 243
257 248
257 256
257 258
260 258
260 239
260 240
260 241
260 242
260 243
260 257
234 242
234 241
234 236
234 235
234 169
234 230
234 232
235 234
235 236
235 164
235 169
235 234
164 162
164 165
164 166
164 167
164 168
164 169
164 235
164 236
164 163
166 167
166 164
166 165
166 131
166 127
166 96
127 166
127 131
127 126
127 129
127 128
127 97
127 96
110 129
110 130
110 111
110 108
110 109
110 100
105 109
105 108
105 106
105 104
105 103
105 102
253 266
253 264
253 254
253 252
253 266
254 264
254 255
254 251
254 252
254 253
254 264
255 256
255 248
255 251
255 254
255 264
255 259
255 256
256 255
256 259
256 258
256 257
256 248
256 255
241 242
241 260
241 240
241 238
241 236
241 234
241 242
236 238
236 237
236 163
236 164
236 235
236 234
236 241
236 238
165 166
165 164
165 162
165 160
165 131
131 127
131 166
131 165
131 160
131 132
131 126
126 130
126 129
126 127
126 131
126 132
126 133
126 125
130 129
130 126
130 125
130 111
130 110
108 109
108 110
108 111
108 107
108 106
108 105
106 105
106 108
106 107
106 113
106 104
259 256
259 255
259 264
259 262
259 261
259 153
259 239
259 258
258 257
258 256
258 259
258 239
258 260
240 238
240 241
240 260
240 239
238 237
238 236
238 241
238 240
238 239
238 154
238 237
163 161
163 162
163 164
163 236
163 237
163 156
162 165
162 164
162 163
162 161
162 160
125 130
125 126
125 133
125 124
125 123
125 111
111 108
111 110
111 130
111 125
111 123
111 112
111 107
107 108
107 111
107 112
107 113
107 106
264 266
264 265
264 262
264 259
264 255
264 254
264 253
264 266
239 240
239 260
239 258
239 259
239 153
239 154
239 238
237 238
237 154
237 156
237 163
237 236
237 238
160 165
160 162
160 161
160 159
160 132
160 131
132 131
132 160
132 159
132 133
132 126
266 265
266 264
266 253
266 265
153 259
153 261
153 148
153 149
153 152
153 154
153 239
153 259
154 155
154 156
154 237
154 238
154 239
154 153
154 152
154 151
156 155
156 161
156 163
156 237
156 154
161 157
161 158
161 159
161 160
161 162
161 163
161 156
161 155
159 160
159 161
159 158
159 134
159 133
159 132
133 124
133 125
133 126
133 132
133 159
133 134
133 121
124 121
124 122
124 123
124 125
124 133
123 125
123 124
123 122
123 117
123 112
123 111
112 111
112 123
112 117
112 113
112 107
113 107
113 112
113 117
113 114
113 106
265 266
265 263
265 262
265 264
265 266
262 263
262 261
262 259
262 264
262 265
262 263
261 259
261 262
261 263
261 147
261 148
261 153
261 259
152 150
152 151
152 154
152 153
152 149
155 157
155 161
155 156
155 154
155 151
155 138
157 158
157 161
157 155
157 138
121 122
121 124
121 133
121 134
121 120
114 117
114 116
114 113
263 262
263 265
263 147
263 261
263 262
148 149
148 153
148 261
148 147
148 146
149 150
149 152
149 153
149 148
149 146
149 140
151 155
151 154
151 152
151 150
151 138
158 159
158 161
158 157
158 138
158 137
158 136
158 134
134 121
134 133
134 159
134 158
134 136
134 135
134 120
122 123
122 124
122 121
122 120
122 119
122 118
122 117
117 123
117 122
117 118
117 116
117 114
117 113
117 112
147 145
147 146
147 148
147 261
147 263
147 144
146 149
146 148
146 147
146 145
146 141
146 140
150 151
150 152
150 149
150 140
150 139
150 138
138 137
138 158
138 157
138 155
138 151
138 150
138 139
138 137
120 122
120 121
120 134
120 135
120 119
118 117
118 122
118 119
118 116
116 117
116 118
116 114
145 146
145 147
145 144
145 143
145 141
140 150
140 149
140 146
140 141
140 139
137 136
137 158
137 138
137 139
137 136
136 158
136 137
136 135
136 134
135 134
135 136
135 120
119 118
119 122
119 120
144 143
144 145
144 147
141 146
141 145
141 143
141 142
141 140
139 137
139 138
139 150
139 140
143 145
143 144
143 142
143 141
142 141
142 143
