ply
format ascii 1.0
comment Exported from MorphoGraphX 2.0 1843
comment Cell Graph: each vertex is a cell, each edge a wall
element vertex 50
property int label
property float x
property float y
property float z
property int parent
property float cellArea
property float aspectRatio
property float growthRate
element edge 250
property uint source
property uint target
property float wallLength
property int newWall
property float wallElongation
property float angle
end_header
1 -16.3795 43.6813 0 0 0 0 0
36 -31.6478 42.3739 0 0 0 0 0
12 16.3136 32.6372 0 0 0 0 0
26 6.42621 14.6873 0 0 0 0 0
31 -15.7762 17.9598 0 0 0 0 0
27 -1.79627 31.6845 0 0 0 0 0
30 -17.5274 31.4718 0 0 0 0 0
4 21.2661 -3.81629 0 0 0 0 0
40 10.5233 -7.11888 0 0 0 0 0
14 23.3552 16.7925 0 0 0 0 0
35 -18.3652 -36.9948 0 0 0 0 0
46 -21.8177 -45.5758 0 0 0 0 0
29 -4.4373 -37.7751 0 0 0 0 0
21 0.602819 -14.0819 0 0 0 0 0
38 2.09601 1.50971 0 0 0 0 0
33 17.1306 -22.5417 0 0 0 0 0
7 5.97578 -41.0848 0 0 0 0 0
24 2.40182 -25.1463 0 0 0 0 0
44 -46.3594 -45.8 0 0 0 0 0
43 -35.1687 -45.6272 0 0 0 0 0
13 -40.612 -34.1123 0 0 0 0 0
3 -46.0795 -18.1494 0 0 0 0 0
23 -45.4657 0.959776 0 0 0 0 0
17 -28.7666 -22.2898 0 0 0 0 0
20 -14.9126 -24.4737 0 0 0 0 0
47 -26.9069 -5.92519 0 0 0 0 0
15 -38.1219 -12.3816 0 0 0 0 0
8 -31.6825 6.87149 0 0 0 0 0
19 -9.87857 -3.94742 0 0 0 0 0
25 -14.4564 -13.2171 0 0 0 0 0
49 -43.7352 16.6926 0 0 0 0 0
9 -29.4043 24.54 0 0 0 0 0
10 -42.0966 30.8862 0 0 0 0 0
2 -44.3151 44.5723 0 0 0 0 0
18 3.17284 45.2107 0 0 0 0 0
5 -13.16 6.7133 0 0 0 0 0
6 39.4517 9.70531 0 0 0 0 0
39 37.0232 24.57 0 0 0 0 0
32 30.2659 39.3712 0 0 0 0 0
34 19.2093 46.3922 0 0 0 0 0
48 40.7532 45.6472 0 0 0 0 0
22 45.7635 32.4308 0 0 0 0 0
45 35.2985 -4.11097 0 0 0 0 0
11 33.3291 -18.9944 0 0 0 0 0
37 46.2026 -7.92448 0 0 0 0 0
42 35.8504 -33.6625 0 0 0 0 0
41 22.4711 -38.1044 0 0 0 0 0
28 41.6828 -45.0021 0 0 0 0 0
16 46.2937 -26.3576 0 0 0 0 0
50 16.4376 -47.0003 0 0 0 0 0
1 36 0 0 0 0
1 30 0 0 0 0
1 27 0 0 0 0
1 18 0 0 0 0
36 2 0 0 0 0
36 10 0 0 0 0
36 9 0 0 0 0
36 30 0 0 0 0
36 1 0 0 0 0
12 26 0 0 0 0
12 14 0 0 0 0
12 39 0 0 0 0
12 32 0 0 0 0
12 34 0 0 0 0
12 18 0 0 0 0
12 27 0 0 0 0
26 27 0 0 0 0
26 31 0 0 0 0
26 5 0 0 0 0
26 38 0 0 0 0
26 40 0 0 0 0
26 4 0 0 0 0
26 14 0 0 0 0
26 12 0 0 0 0
31 27 0 0 0 0
31 30 0 0 0 0
31 9 0 0 0 0
31 8 0 0 0 0
31 5 0 0 0 0
31 26 0 0 0 0
27 12 0 0 0 0
27 18 0 0 0 0
27 1 0 0 0 0
27 30 0 0 0 0
27 31 0 0 0 0
27 26 0 0 0 0
30 36 0 0 0 0
30 9 0 0 0 0
30 31 0 0 0 0
30 27 0 0 0 0
30 1 0 0 0 0
4 26 0 0 0 0
4 40 0 0 0 0
4 33 0 0 0 0
4 11 0 0 0 0
4 45 0 0 0 0
4 6 0 0 0 0
4 14 0 0 0 0
40 26 0 0 0 0
40 38 0 0 0 0
40 21 0 0 0 0
40 33 0 0 0 0
40 4 0 0 0 0
14 26 0 0 0 0
14 4 0 0 0 0
14 6 0 0 0 0
14 39 0 0 0 0
14 12 0 0 0 0
35 46 0 0 0 0
35 29 0 0 0 0
35 20 0 0 0 0
35 17 0 0 0 0
35 13 0 0 0 0
46 13 0 0 0 0
46 43 0 0 0 0
46 29 0 0 0 0
46 35 0 0 0 0
29 46 0 0 0 0
29 7 0 0 0 0
29 24 0 0 0 0
29 20 0 0 0 0
29 35 0 0 0 0
21 38 0 0 0 0
21 19 0 0 0 0
21 25 0 0 0 0
21 20 0 0 0 0
21 24 0 0 0 0
21 33 0 0 0 0
21 40 0 0 0 0
38 26 0 0 0 0
38 5 0 0 0 0
38 19 0 0 0 0
38 21 0 0 0 0
38 40 0 0 0 0
33 40 0 0 0 0
33 21 0 0 0 0
33 24 0 0 0 0
33 7 0 0 0 0
33 41 0 0 0 0
33 42 0 0 0 0
33 11 0 0 0 0
33 4 0 0 0 0
7 24 0 0 0 0
7 29 0 0 0 0
7 50 0 0 0 0
7 41 0 0 0 0
7 33 0 0 0 0
24 21 0 0 0 0
24 20 0 0 0 0
24 29 0 0 0 0
24 7 0 0 0 0
24 33 0 0 0 0
44 43 0 0 0 0
44 13 0 0 0 0
43 46 0 0 0 0
43 13 0 0 0 0
43 44 0 0 0 0
13 35 0 0 0 0
13 17 0 0 0 0
13 15 0 0 0 0
13 3 0 0 0 0
13 44 0 0 0 0
13 43 0 0 0 0
13 46 0 0 0 0
3 23 0 0 0 0
3 13 0 0 0 0
3 15 0 0 0 0
23 15 0 0 0 0
23 8 0 0 0 0
23 49 0 0 0 0
23 3 0 0 0 0
17 35 0 0 0 0
17 20 0 0 0 0
17 25 0 0 0 0
17 47 0 0 0 0
17 15 0 0 0 0
17 13 0 0 0 0
20 29 0 0 0 0
20 24 0 0 0 0
20 21 0 0 0 0
20 25 0 0 0 0
20 17 0 0 0 0
20 35 0 0 0 0
47 8 0 0 0 0
47 15 0 0 0 0
47 17 0 0 0 0
47 25 0 0 0 0
47 19 0 0 0 0
47 5 0 0 0 0
15 3 0 0 0 0
15 13 0 0 0 0
15 17 0 0 0 0
15 47 0 0 0 0
15 8 0 0 0 0
15 23 0 0 0 0
8 5 0 0 0 0
8 31 0 0 0 0
8 9 0 0 0 0
8 49 0 0 0 0
8 23 0 0 0 0
8 15 0 0 0 0
8 47 0 0 0 0
19 38 0 0 0 0
19 5 0 0 0 0
19 47 0 0 0 0
19 25 0 0 0 0
19 21 0 0 0 0
25 20 0 0 0 0
25 21 0 0 0 0
25 19 0 0 0 0
25 47 0 0 0 0
25 17 0 0 0 0
49 8 0 0 0 0
49 9 0 0 0 0
49 10 0 0 0 0
49 23 0 0 0 0
9 30 0 0 0 0
9 36 0 0 0 0
9 10 0 0 0 0
9 49 0 0 0 0
9 8 0 0 0 0
9 31 0 0 0 0
10 9 0 0 0 0
10 36 0 0 0 0
10 2 0 0 0 0
10 49 0 0 0 0
2 36 0 0 0 0
2 10 0 0 0 0
18 1 0 0 0 0
18 27 0 0 0 0
18 12 0 0 0 0
18 34 0 0 0 0
5 47 0 0 0 0
5 19 0 0 0 0
5 38 0 0 0 0
5 26 0 0 0 0
5 31 0 0 0 0
5 8 0 0 0 0
6 4 0 0 0 0
6 45 0 0 0 0
6 37 0 0 0 0
6 22 0 0 0 0
6 39 0 0 0 0
6 14 0 0 0 0
39 6 0 0 0 0
39 22 0 0 0 0
39 32 0 0 0 0
39 12 0 0 0 0
39 14 0 0 0 0
32 34 0 0 0 0
32 12 0 0 0 0
32 39 0 0 0 0
32 22 0 0 0 0
32 48 0 0 0 0
34 12 0 0 0 0
34 32 0 0 0 0
34 48 0 0 0 0
34 18 0 0 0 0
48 32 0 0 0 0
48 22 0 0 0 0
48 34 0 0 0 0
22 6 0 0 0 0
22 48 0 0 0 0
22 32 0 0 0 0
22 39 0 0 0 0
45 4 0 0 0 0
45 11 0 0 0 0
45 37 0 0 0 0
45 6 0 0 0 0
11 33 0 0 0 0
11 42 0 0 0 0
11 16 0 0 0 0
11 37 0 0 0 0
11 45 0 0 0 0
11 4 0 0 0 0
37 45 0 0 0 0
37 11 0 0 0 0
37 16 0 0 0 0
37 6 0 0 0 0
42 41 0 0 0 0
42 28 0 0 0 0
42 16 0 0 0 0
42 11 0 0 0 0
42 33 0 0 0 0
41 33 0 0 0 0
41 7 0 0 0 0
41 50 0 0 0 0
41 28 0 0 0 0
41 42 0 0 0 0
28 50 0 0 0 0
28 16 0 0 0 0
28 42 0 0 0 0
28 41 0 0 0 0
16 42 0 0 0 0
16 28 0 0 0 0
16 37 0 0 0 0
16 11 0 0 0 0
50 41 0 0 0 0
50 7 0 0 0 0
50 28 0 0 0 0
