ply
format ascii 1.0
comment Exported from MorphoGraphX 2.0 1843
comment Triangle mesh
element vertex 152
property float x
property float y
property float z
property int label
property float signal
property int parent
property int cellNr
element face 276
property list uchar int vertex_index
property int label
end_header
-16.3795 43.6813 0 1 0.5 0 0
-31.6478 42.3739 0 36 0.5 0 0
16.3136 32.6372 0 12 0.5 0 0
6.42621 14.6873 0 26 0.5 0 0
-15.7762 17.9598 0 31 0.5 0 0
-1.79627 31.6845 0 27 0.5 0 0
-17.5274 31.4718 0 30 0.5 0 0
21.2661 -3.81629 0 4 0.5 0 0
10.5233 -7.11888 0 40 0.5 0 0
23.3552 16.7925 0 14 0.5 0 0
-18.3652 -36.9949 0 35 0.5 0 0
-21.8177 -45.5758 0 46 0.5 0 0
-4.4373 -37.7751 0 29 0.5 0 0
0.602819 -14.0819 0 21 0.5 0 0
2.09601 1.50971 0 38 0.5 0 0
17.1306 -22.5417 0 33 0.5 0 0
5.97578 -41.0848 0 7 0.5 0 0
2.40182 -25.1463 0 24 0.5 0 0
-46.3594 -45.8 0 44 0.5 0 0
-35.1687 -45.6272 0 43 0.5 0 0
-40.612 -34.1123 0 13 0.5 0 0
-46.0795 -18.1494 0 3 0.5 0 0
-45.4657 0.959776 0 23 0.5 0 0
-28.7666 -22.2898 0 17 0.5 0 0
-14.9126 -24.4737 0 20 0.5 0 0
-26.9069 -5.92519 0 47 0.5 0 0
-38.1219 -12.3816 0 15 0.5 0 0
-31.6825 6.87149 0 8 0.5 0 0
-9.87857 -3.94742 0 19 0.5 0 0
-14.4564 -13.2171 0 25 0.5 0 0
-43.7352 16.6926 0 49 0.5 0 0
-29.4043 24.54 0 9 0.5 0 0
-42.0966 30.8862 0 10 0.5 0 0
-44.3151 44.5723 0 2 0.5 0 0
3.17284 45.2107 0 18 0.5 0 0
-13.16 6.7133 0 5 0.5 0 0
39.4517 9.70531 0 6 0.5 0 0
37.0232 24.57 0 39 0.5 0 0
30.2659 39.3712 0 32 0.5 0 0
19.2093 46.3922 0 34 0.5 0 0
40.7532 45.6472 0 48 0.5 0 0
45.7635 32.4308 0 22 0.5 0 0
35.2985 -4.11097 0 45 0.5 0 0
33.3291 -18.9944 0 11 0.5 0 0
46.2026 -7.92448 0 37 0.5 0 0
35.8504 -33.6625 0 42 0.5 0 0
22.4711 -38.1044 0 41 0.5 0 0
41.6828 -45.0021 0 28 0.5 0 0
46.2937 -26.3576 0 16 0.5 0 0
16.4376 -47.0003 0 50 0.5 0 0
-24.3862 50 0 -1 0.5 0 0
-25.2575 36.9796 0 -1 0.5 0 0
-10.4324 37.3854 0 -1 0.5 0 0
-6.4574 43.6169 0 -1 0.5 0 0
-8.28093 50 0 -1 0.5 0 0
-40.5284 39.216 0 -1 0.5 0 0
-36.3648 50 0 -1 0.5 0 0
-50 50 0 -1 0.5 0 0
-50 37.6102 0 -1 0.5 0 0
-45.3564 -7.62225 0 -1 0.5 0 0
-50 -8.00889 0 -1 0.5 0 0
-50 -27.8398 0 -1 0.5 0 0
-39.5188 -24.1734 0 -1 0.5 0 0
17.6608 7.3867 0 -1 0.5 0 0
13.5034 4.12443 0 -1 0.5 0 0
16.4873 -13.6109 0 -1 0.5 0 0
24.2409 -15.5583 0 -1 0.5 0 0
28.3542 -11.5997 0 -1 0.5 0 0
27.3421 3.72667 0 -1 0.5 0 0
25.4231 5.70154 0 -1 0.5 0 0
-22.062 1.56414 0 -1 0.5 0 0
-19.3485 -1.49165 0 -1 0.5 0 0
-5.7187 3.23622 0 -1 0.5 0 0
-3.5479 9.35798 0 -1 0.5 0 0
-5.66702 15.0184 0 -1 0.5 0 0
-22.1111 9.55618 0 -1 0.5 0 0
45.1853 1.91649 0 -1 0.5 0 0
50 4.88401 0 -1 0.5 0 0
50 17.44 0 -1 0.5 0 0
49.2503 17.8323 0 -1 0.5 0 0
33.1521 16.9013 0 -1 0.5 0 0
10.4692 -30.9618 0 -1 0.5 0 0
4.64542 -32.4632 0 -1 0.5 0 0
-3.99511 -50 0 -1 0.5 0 0
4.92717 -50 0 -1 0.5 0 0
14.1135 -41.019 0 -1 0.5 0 0
12.2122 -31.8985 0 -1 0.5 0 0
-26.8542 15.3328 0 -1 0.5 0 0
-34.8856 16.2613 0 -1 0.5 0 0
-41.5975 8.0216 0 -1 0.5 0 0
-38.9376 -1.91511 0 -1 0.5 0 0
-37.3687 -2.42683 0 -1 0.5 0 0
-20.851 24.6033 0 -1 0.5 0 0
-27.1395 34.6929 0 -1 0.5 0 0
-32.993 33.8164 0 -1 0.5 0 0
-37.0629 21.2566 0 -1 0.5 0 0
-50 26.1095 0 -1 0.5 0 0
26.158 -27.0035 0 -1 0.5 0 0
40.4779 -24.8647 0 -1 0.5 0 0
43.4335 -17.2623 0 -1 0.5 0 0
40.135 -12.542 0 -1 0.5 0 0
8.03712 25.6844 0 -1 0.5 0 0
14.1791 22.0869 0 -1 0.5 0 0
26.6112 28.297 0 -1 0.5 0 0
27.7698 30.4524 0 -1 0.5 0 0
21.3912 41.419 0 -1 0.5 0 0
12.5761 42.6312 0 -1 0.5 0 0
7.22208 37.8092 0 -1 0.5 0 0
-29.8032 -37.369 0 -1 0.5 0 0
-29.4526 -32.6356 0 -1 0.5 0 0
-38.6183 -24.3582 0 -1 0.5 0 0
-50 -39.6644 0 -1 0.5 0 0
-41.8917 -44.0294 0 -1 0.5 0 0
-30.6445 -38.6855 0 -1 0.5 0 0
-30.2136 -13.3333 0 -1 0.5 0 0
46.6939 -37.2919 0 -1 0.5 0 0
50 -37.9019 0 -1 0.5 0 0
50 -17.3299 0 -1 0.5 0 0
-24.1089 -29.3649 0 -1 0.5 0 0
-20.7636 -17.7064 0 -1 0.5 0 0
-22.851 -13.5271 0 -1 0.5 0 0
12.0721 50 0 -1 0.5 0 0
-1.9006 -6.60956 0 -1 0.5 0 0
-18.7139 -5.19924 0 -1 0.5 0 0
-6.36487 -11.3481 0 -1 0.5 0 0
-10.7684 -31.1062 0 -1 0.5 0 0
-6.75016 -26.809 0 -1 0.5 0 0
-6.40374 -20.3186 0 -1 0.5 0 0
-6.85233 -19.4826 0 -1 0.5 0 0
2.45775 -6.72509 0 -1 0.5 0 0
8.7494 -18.6611 0 -1 0.5 0 0
10.1545 -16.1878 0 -1 0.5 0 0
50 44.7504 0 -1 0.5 0 0
39.7069 37.8564 0 -1 0.5 0 0
38.0536 34.21 0 -1 0.5 0 0
-50 10.0676 0 -1 0.5 0 0
-4.70216 20.037 0 -1 0.5 0 0
13.3235 4.08737 0 -1 0.5 0 0
-10.2005 25.3635 0 -1 0.5 0 0
29.4278 -49.4865 0 -1 0.5 0 0
29.4147 -50 0 -1 0.5 0 0
50 -50 0 -1 0.5 0 0
31.9589 -44.3768 0 -1 0.5 0 0
-9.0937 -47.9797 0 -1 0.5 0 0
-7.90396 -50 0 -1 0.5 0 0
29.0512 49.7997 0 -1 0.5 0 0
25.7472 -27.8914 0 -1 0.5 0 0
29.0717 50 0 -1 0.5 0 0
-42.1533 -50 0 -1 0.5 0 0
-28.7317 -50 0 -1 0.5 0 0
-50 -50 0 -1 0.5 0 0
50 50 0 -1 0.5 0 0
3 0 50 51 1
3 0 51 52 1
3 0 52 53 1
3 0 53 54 1
3 0 54 50 1
3 1 50 56 36
3 1 56 55 36
3 1 55 94 36
3 1 94 93 36
3 1 93 51 36
3 1 51 50 36
3 2 101 102 12
3 2 102 103 12
3 2 103 104 12
3 2 104 105 12
3 2 105 106 12
3 2 106 107 12
3 2 107 101 12
3 3 101 136 26
3 3 136 74 26
3 3 74 73 26
3 3 73 137 26
3 3 137 64 26
3 3 64 63 26
3 3 63 102 26
3 3 102 101 26
3 4 136 138 31
3 4 138 92 31
3 4 92 87 31
3 4 87 75 31
3 4 75 74 31
3 4 74 136 31
3 5 101 107 27
3 5 107 53 27
3 5 53 52 27
3 5 52 138 27
3 5 138 136 27
3 5 136 101 27
3 6 51 93 30
3 6 93 92 30
3 6 92 138 30
3 6 138 52 30
3 6 52 51 30
3 10 108 143 35
3 10 143 125 35
3 10 125 118 35
3 10 118 109 35
3 10 109 108 35
3 11 108 113 46
3 11 113 149 46
3 11 149 144 46
3 11 144 143 46
3 11 143 108 46
3 13 129 122 21
3 13 122 124 21
3 13 124 128 21
3 13 128 127 21
3 13 127 130 21
3 13 130 131 21
3 13 131 129 21
3 14 137 73 38
3 14 73 72 38
3 14 72 122 38
3 14 122 129 38
3 14 129 137 38
3 15 65 131 33
3 15 131 130 33
3 15 130 81 33
3 15 81 86 33
3 15 86 146 33
3 15 146 97 33
3 15 97 66 33
3 15 66 65 33
3 16 81 82 7
3 16 82 83 7
3 16 83 84 7
3 16 84 85 7
3 16 85 86 7
3 16 86 81 7
3 33 55 56 2
3 33 56 57 2
3 33 57 58 2
3 33 58 55 2
3 53 34 54 18
3 58 96 32 10
3 58 32 55 10
3 60 21 59 3
3 60 59 22 23
3 61 111 20 13
3 61 20 62 13
3 61 62 21 3
3 61 21 60 3
3 62 59 21 3
3 62 20 110 13
3 62 110 26 15
3 62 26 59 15
3 63 64 7 4
3 63 9 102 14
3 65 7 64 4
3 65 64 8 40
3 65 8 131 40
3 66 7 65 4
3 67 43 100 11
3 67 100 42 45
3 67 42 68 45
3 67 68 7 4
3 67 7 66 4
3 67 66 43 11
3 68 36 69 6
3 68 69 7 4
3 69 9 63 14
3 69 63 7 4
3 71 35 70 5
3 71 70 25 47
3 71 25 123 47
3 71 123 28 19
3 71 28 72 19
3 71 72 35 5
3 72 28 122 19
3 73 35 72 5
3 74 75 35 5
3 74 35 73 5
3 75 87 27 8
3 75 27 70 8
3 75 70 35 5
3 76 36 68 6
3 76 68 42 45
3 77 36 76 6
3 77 76 44 37
3 78 132 41 22
3 78 41 79 22
3 78 79 36 6
3 78 36 77 6
3 79 37 80 39
3 79 80 36 6
3 80 9 69 14
3 80 69 36 6
3 81 130 17 24
3 82 81 17 24
3 83 82 12 29
3 83 12 144 29
3 85 84 49 50
3 85 49 139 50
3 85 139 46 41
3 85 46 86 41
3 86 46 146 41
3 87 92 31 9
3 88 89 27 8
3 88 27 87 8
3 88 87 31 9
3 88 30 89 49
3 89 22 90 23
3 89 90 27 8
3 90 22 59 23
3 90 59 26 15
3 90 26 91 15
3 90 91 27 8
3 91 114 25 47
3 91 25 70 47
3 91 70 27 8
3 91 26 114 15
3 93 94 31 9
3 93 31 92 9
3 94 55 32 10
3 94 32 95 10
3 94 95 31 9
3 95 30 88 49
3 95 88 31 9
3 96 135 30 49
3 96 30 95 49
3 96 95 32 10
3 97 146 45 42
3 97 43 66 11
3 98 43 97 11
3 98 97 45 42
3 99 43 98 11
3 99 98 48 16
3 100 44 76 37
3 100 76 42 45
3 100 43 99 11
3 100 99 44 37
3 103 9 80 14
3 103 80 37 39
3 103 102 9 14
3 104 38 105 32
3 104 103 37 39
3 105 38 145 32
3 105 145 39 34
3 105 39 106 34
3 106 34 107 18
3 107 34 53 18
3 109 20 108 13
3 110 20 109 13
3 110 109 23 17
3 110 23 114 17
3 110 114 26 15
3 111 18 112 44
3 111 112 20 13
3 112 18 148 44
3 112 148 19 43
3 113 20 112 13
3 113 112 19 43
3 113 19 149 43
3 113 108 20 13
3 115 48 98 16
3 115 98 45 42
3 115 45 142 42
3 115 142 47 28
3 116 117 48 16
3 116 48 115 16
3 116 115 47 28
3 117 77 44 37
3 117 44 99 37
3 117 99 48 16
3 118 23 109 17
3 118 125 24 20
3 119 23 118 17
3 119 118 24 20
3 120 114 23 17
3 120 23 119 17
3 120 119 29 25
3 120 29 123 25
3 120 123 25 47
3 120 25 114 47
3 121 54 34 18
3 121 34 106 18
3 121 106 39 34
3 123 29 124 25
3 123 124 28 19
3 124 122 28 19
3 125 143 12 29
3 126 24 125 20
3 126 125 12 29
3 126 12 82 29
3 126 82 17 24
3 127 126 17 24
3 127 17 130 24
3 127 128 24 20
3 127 24 126 20
3 128 124 29 25
3 128 29 119 25
3 128 119 24 20
3 129 131 8 40
3 129 8 137 40
3 132 40 133 48
3 132 133 41 22
3 133 40 145 48
3 133 145 38 32
3 134 41 133 22
3 134 133 38 32
3 134 38 104 32
3 134 104 37 39
3 134 37 79 39
3 134 79 41 22
3 135 60 22 23
3 135 22 89 23
3 135 89 30 49
3 137 8 64 40
3 140 47 139 28
3 140 139 49 50
3 140 49 84 50
3 141 116 47 28
3 141 47 140 28
3 142 46 139 41
3 142 139 47 28
3 142 45 146 42
3 142 146 46 41
3 144 12 143 29
3 147 121 39 34
3 147 39 145 34
3 147 145 40 48
3 148 149 19 43
3 150 148 18 44
3 150 18 111 44
3 151 147 40 48
3 151 40 132 48
