ply
format ascii 1.0
comment Exported from MorphoGraphX 2.0 b722c27
comment Cell Graph: each vertex is a cell, each edge a wall
element vertex 120
property int label
property float x
property float y
property float z
property float Geometry/Area
property list uchar float /Cell Axis curv10microns
element edge 673
property uint source
property uint target
end_header
300 -35.8391 25.4669 7.81821 23.7421 9 -0.796734 0.555514 0.237947 0.542786 0.830905 -0.122394 -0.0438905 0.0207125 0 
301 -33.5127 24.7376 7.41034 15.8933 9 -0.871348 0.489027 0.0400591 0.478507 0.864982 -0.151123 -0.0627731 0.0191471 0 
303 -35.3484 18.6532 7.95881 24.7054 9 -0.756135 0.653479 -0.0349909 0.650889 0.756528 0.063312 -0.0602899 0.0220449 0 
302 -40.2477 18.4867 7.79464 23.8631 9 -0.683466 0.706829 0.182395 0.729451 0.670841 0.133695 -0.0458581 0.0225783 0 
311 -37.0567 9.33571 8.3183 23.8215 9 -0.592891 0.680265 -0.430953 0.676077 0.711226 0.192554 -0.041085 0.0172393 0 
350 -22.7155 -8.36417 14.8661 30.3018 9 0.506436 0.828891 0.23762 -0.841832 0.534937 -0.07184 0.0191167 0.00119338 0 
346 -24.8592 9.89707 13.0229 28.3426 9 0.549454 -0.758273 0.350888 0.779597 0.616339 0.111148 0.013568 0.00441254 0 
305 -29.7703 20.0423 8.36882 28.0547 9 -0.822699 0.524156 -0.220064 0.550192 0.831549 -0.0762551 -0.0468076 0.00648529 0 
304 -31.5625 23.4831 7.53271 16.5961 9 -0.87965 0.468517 -0.0819023 0.475552 0.863426 -0.168362 -0.0659028 0.0178064 0 
353 -33.5772 -6.84349 11.5532 42.2889 9 -0.571873 0.795128 -0.201823 -0.683149 -0.597802 -0.419452 0.0209183 0.0157442 0 
319 -30.273 0.0174874 13.1656 33.614 9 0.89237 0.330744 0.307057 -0.284216 0.940364 -0.186916 0.0223296 0.0212909 0 
315 -38.1626 2.22313 8.88987 31.2748 9 0.63994 0.727916 0.2462 -0.604746 0.674752 -0.423075 0.0167576 -0.00452206 0 
318 -34.8049 -0.295266 11.0812 25.8869 9 0.483541 0.84954 0.210882 -0.716363 0.522517 -0.462385 0.0187127 0.0146053 0 
321 -32.0311 6.19008 11.3577 35.0354 9 0.787198 0.568505 0.239001 -0.456001 0.797495 -0.395049 0.0172926 0.00498923 0 
307 -38.1305 14.7073 7.55835 22.6441 9 -0.705351 0.703191 -0.089453 0.697193 0.710997 0.09168 -0.0641189 0.0205027 0 
249 -23.645 47.9078 -3.84654 30.5606 9 -0.999536 -0.0267297 -0.0146112 -0.00966097 0.733036 -0.680121 -0.0615191 0.0215147 0 
347 -24.5187 2.69909 14.5558 39.774 9 -0.636292 0.724229 -0.265752 -0.734395 -0.674134 -0.0787879 0.0203564 0.0105289 0 
312 -34.655 8.17605 9.77922 22.9266 9 0.697911 0.695303 0.171679 -0.590338 0.694223 -0.411772 0.0201353 -0.0133809 0 
308 -43.3438 13.2206 6.77102 21.4651 9 -0.636816 0.77073 0.0209941 0.754914 0.617749 0.220205 -0.0439619 0.0278409 0 
314 -45.2116 4.25627 4.47265 24.1063 9 -0.539957 0.802001 -0.255423 0.666503 0.592734 0.452151 -0.0505218 0.0209989 0 
357 -30.6862 -12.2687 11.8781 21.2291 9 0.725414 0.551993 0.411192 -0.595063 0.803177 -0.0284085 0.0223865 0.00732812 0 
356 -34.159 -14.9393 9.51902 31.0054 9 0.528105 0.67959 0.509178 -0.727734 0.671199 -0.141051 0.0259786 -0.0032799 0 
329 -22.9923 14.6337 12.2701 25.8716 9 0.808812 -0.451067 0.377308 0.524444 0.843536 -0.115783 0.0121879 0.00159755 0 
255 -31.5857 50.3971 -3.41968 33.0505 9 0.0165275 0.704579 -0.709433 -0.903502 0.314432 0.291232 0.0241117 -0.0177464 0 
317 -39.4941 -5.24779 8.17675 46.9427 9 0.551609 0.717821 0.424807 -0.623276 0.693178 -0.361983 0.0188239 0.00946013 0 
306 -32.3199 14.5628 9.08934 27.977 9 -0.644132 0.621014 -0.446582 0.683077 0.729749 0.0295406 -0.0409476 0.0127684 0 
323 -29.105 12.4044 10.9585 26.6239 9 0.775592 0.625107 0.0877355 -0.551419 0.738598 -0.387828 0.011368 -0.000211754 0 
309 -46.1119 10.4032 5.5929 23.0049 9 -0.633362 0.771162 0.0645218 0.742416 0.581989 0.331824 -0.0420835 0.0392008 0 
355 -38.3199 -17.1068 6.06591 45.865 9 -0.216561 0.913181 0.345255 -0.836151 0.00905381 -0.548424 0.019058 0.00178714 0 
274 -26.2611 35.1439 4.00267 22.9037 9 -0.973509 0.131267 -0.187216 0.198903 0.890022 -0.410242 -0.0826965 0.0135964 0 
275 -24.0033 33.8954 4.94767 19.8142 9 -0.969093 0.126837 -0.21159 0.196017 0.916671 -0.348269 -0.0492704 0.0123493 0 
271 -29.7751 40.917 2.28517 15.6582 9 -0.885836 0.298016 0.355641 0.121991 0.889091 -0.441174 -0.0599177 0.0217335 0 
269 -35.7559 46.5362 2.00675 34.2211 9 0.242023 0.732307 -0.636515 -0.916853 0.387276 0.0969427 0.0193458 0.0160115 0 
256 -32.4764 53.8398 -6.67024 25.9737 9 0.103858 -0.616789 0.780247 0.904049 -0.268489 -0.332579 0.021086 -0.0137613 0 
258 -37.135 53.4606 -3.20965 41.9654 9 -0.384065 -0.535839 0.751911 0.855295 -0.513237 0.0711202 0.0233898 0.0136421 0 
257 -38.2117 57.8143 -8.41321 56.7157 9 0.784755 -0.51525 0.344494 0.525697 0.258888 -0.810321 0.0203524 -0.0029348 0 
259 -43.5534 54.7747 -2.01754 47.433 9 0.592996 -0.651672 0.472948 0.779112 0.316059 -0.541379 0.0249032 0.0205812 0 
260 -46.7441 59.0451 -6.93594 44.5703 9 0.998702 -0.0226214 -0.045631 -0.0302448 0.457439 -0.888727 0.0253532 0.0144734 0 
268 -40.0585 48.959 1.87919 52.4589 9 0.653638 0.491068 -0.575855 -0.708878 0.663744 -0.238613 0.0242602 0.0099667 0 
261 -49.3949 56.1883 -2.57458 38.6483 9 -0.261191 0.623895 -0.736569 -0.964875 -0.191045 0.180329 0.0363891 0.0124214 0 
262 -49.8892 50.9863 2.1584 49.6315 9 -0.153192 -0.807035 0.570286 0.987893 -0.139375 0.0681363 0.033158 0.0156883 0 
267 -44.9349 48.5603 3.36083 27.2419 9 0.635442 0.628484 -0.448578 -0.765705 0.58779 -0.261147 0.0325905 0.0131186 0 
194 -3.6858 11.0025 15.6679 25.0298 9 0.10023 0.98382 -0.148502 -0.99292 0.108465 0.0484181 0.0184054 0.00467018 0 
196 -2.12762 17.518 14.0191 28.8782 9 -0.362982 0.879543 -0.307649 -0.93176 -0.345529 0.111504 0.0110885 -0.00318168 0 
352 -28.3739 -7.24085 13.5806 37.0709 9 0.838731 -0.51235 0.184466 0.460693 0.848234 0.261268 0.0205585 0.0157704 0 
348 -26.0188 -2.80995 14.7191 23.067 9 -0.262622 0.964057 -0.0403028 -0.923397 -0.263225 -0.279376 0.0269736 0.0194092 0 
244 -12.1164 43.0622 2.82227 43.6127 9 0.756753 0.625091 -0.191274 0.612428 -0.575624 0.541838 -0.0259488 0.0160022 0 
279 -15.0929 38.2731 5.08173 28.9353 9 -0.335567 0.787601 -0.516798 -0.922062 -0.386938 0.00901982 0.0141632 0.00612641 0 
320 -28.5908 5.48226 12.9404 18.2508 9 0.963764 0.155014 0.217096 -0.10321 0.967134 -0.232379 0.0174049 0.0129487 0 
324 -25.8117 17.7589 10.2275 34.2221 9 -0.724075 0.504463 -0.470354 0.590714 0.805607 -0.0453318 -0.0109461 -0.0015984 0 
295 -52.5961 30.6334 8.43995 33.8769 9 0.382562 0.921293 0.0697477 -0.885601 0.387164 -0.256544 0.0297562 -0.0050813 0 
263 -52.3015 45.757 4.82129 49.7545 9 0.350458 0.886891 -0.301003 -0.932711 0.301317 -0.198138 0.0246044 0.00138161 0 
264 -50.6418 39.3334 7.06409 39.6083 9 0.547787 0.818743 -0.172012 -0.828419 0.502117 -0.248193 0.0163987 -0.00290112 0 
297 -46.717 18.197 7.88909 39.7538 9 0.78709 0.578716 0.213487 -0.615771 0.757516 0.216785 0.021739 0.00102984 0 
294 -48.264 26.9421 9.38439 45.7123 9 0.959775 -0.24707 0.133375 0.23874 0.968148 0.0754529 0.0295393 0.0238087 0 
265 -47.1772 35.8761 8.4667 45.1331 9 0.607601 0.778597 -0.156872 -0.787544 0.565009 -0.246048 0.0216165 0.0113244 0 
289 -34.8612 33.1588 7.43047 27.4359 9 0.34976 0.906578 -0.236186 -0.866407 0.408921 0.286572 0.0346309 0.000142996 0 
241 -4.64277 34.1578 8.39235 27.0644 9 0.803765 -0.5438 0.241337 0.594401 0.751367 -0.286592 0.0139339 -0.000920033 0 
243 -7.4453 39.1471 6.03601 17.9748 9 0.862599 -0.413879 0.290907 0.499649 0.787042 -0.361823 0.0214993 0.00491187 0 
248 -26.7879 52.1684 -8.07661 20.125 9 0.979838 -0.0334704 -0.196968 0.12506 -0.666093 0.735309 -0.0637799 0.00334654 0 
195 -0.29981 14.7454 14.8427 13.8166 9 -0.660512 0.741533 -0.117697 -0.747836 -0.635803 0.191038 0.0407368 0.00918964 0 
343 -18.2095 1.41236 15.79 28.8666 9 0.679663 -0.728009 0.0897812 0.728828 0.684062 0.0294659 0.0157395 0.00691137 0 
234 -1.26188 22.1306 12.626 17.0922 9 -0.106529 0.954332 -0.279108 -0.994236 -0.105649 0.0182382 0.00395752 0.00264325 0 
236 -11.392 23.0139 12.0484 36.5237 9 0.986894 -0.0988909 0.12752 0.135267 0.937871 -0.319533 0.0136728 0.00111862 0 
237 -8.25459 25.9782 11.2321 27.7932 9 0.911561 -0.370697 0.177876 0.409376 0.858579 -0.308631 0.00999304 0.00274116 0 
286 -28.253 27.2487 6.75105 16.7112 9 -0.932845 0.324642 -0.156227 0.353018 0.91025 -0.216388 -0.0695563 0.0166329 0 
335 -11.275 10.7777 15.6727 21.427 9 -0.367622 0.917778 -0.150128 -0.925268 -0.377186 -0.0401278 0.0247976 0.0159156 0 
296 -43.7613 24.7349 9.44582 39.3568 9 0.962815 0.269187 -0.0229299 -0.262197 0.951516 0.160843 0.0313154 0.0231124 0 
266 -44.9379 43.7554 5.77582 34.0747 9 0.776865 0.568637 -0.270432 -0.629042 0.72001 -0.293072 0.0303207 0.00277901 0 
273 -27.8756 38.1865 2.72054 22.1597 9 -0.97046 0.205647 0.126164 0.131799 0.889893 -0.436715 -0.0792274 0.0126288 0 
313 -42.8015 3.29604 5.8912 22.7817 9 -0.508301 0.783701 -0.35699 0.687653 0.618911 0.379581 -0.0338175 0.0221504 0 
253 -27.2051 44.1826 -0.480464 23.8206 9 -0.968988 0.184049 0.164886 0.0638072 0.830999 -0.552602 -0.0675318 0.0280676 0 
238 -3.43133 25.4445 11.6022 14.4314 9 0.925321 0.368858 -0.087894 -0.378966 0.891729 -0.247395 0.00790114 0.00568493 0 
310 -40.4706 9.70691 7.02017 27.8268 9 -0.647786 0.734444 -0.202398 0.692081 0.678384 0.246617 -0.0538443 0.0233399 0 
242 -10.5418 37.1284 6.58424 23.9028 9 0.684592 -0.607377 0.403022 0.711981 0.675699 -0.191088 0.0175304 0.00244457 0 
240 -8.03331 31.6584 9.19812 28.1708 9 0.882717 -0.411877 0.226201 0.464092 0.83962 -0.282236 0.0141525 0.00442574 0 
288 -32.6101 37.0136 5.40147 28.633 9 0.180414 0.887805 -0.423383 -0.858882 0.351973 0.372071 0.0287548 -0.0180807 0 
270 -33.8148 41.6986 4.12106 24.3177 9 -0.0739925 0.921224 -0.381932 -0.909678 0.0945946 0.404398 0.0259708 0.0116907 0 
247 -21.8697 51.5853 -7.23184 20.621 9 -0.992551 -0.0948714 -0.0764289 -0.0124731 0.703192 -0.710891 -0.041793 0.0192057 0 
331 -14.364 13.4417 14.6538 32.5383 9 0.813844 -0.503915 0.289356 0.550632 0.827865 -0.106978 0.0183597 0.0118088 0 
344 -17.2848 7.43935 15.3367 25.612 9 0.659949 -0.716549 0.225888 0.734086 0.678995 0.00918257 0.0240585 0.00476818 0 
327 -14.8106 19.3508 12.9506 29.5374 9 0.974907 0.211392 0.0697906 -0.183743 0.941103 -0.283837 0.0223387 0.00650874 0 
325 -24.0102 23.1749 9.32642 32.5555 9 0.433977 0.893013 -0.119126 -0.848437 0.360632 -0.387427 0.014357 -0.0104496 0 
285 -26.0236 26.9983 7.22622 20.5988 9 -0.902081 0.242647 -0.356893 0.346356 0.900401 -0.263279 -0.0529178 0.0173276 0 
326 -17.6061 23.9939 10.8559 26.5268 9 0.974573 0.188956 0.120428 -0.128754 0.912115 -0.389189 0.0169371 0.00969443 0 
282 -15.9665 29.1482 9.07638 33.8954 9 0.942397 -0.18973 0.275484 0.270279 0.917131 -0.292949 0.012748 0.000979197 0 
336 -8.11382 7.74825 16.0775 32.436 9 0.530751 0.846842 -0.0340826 -0.84723 0.529068 -0.0478431 0.0135207 0.00446106 0 
333 -10.1201 16.8369 14.2178 20.5831 9 0.970144 0.240812 -0.0288219 -0.234832 0.902989 -0.359812 0.0152588 0.00959347 0 
287 -30.4779 31.1748 5.97351 32.7969 9 -0.910344 0.382532 0.157935 0.323868 0.896074 -0.303579 -0.0718999 0.0233056 0 
298 -41.1372 21.5684 8.57822 18.2913 9 0.72484 0.688842 0.0101767 -0.672764 0.704587 0.225712 0.0288385 -0.0123219 0 
292 -43.5146 33.0428 9.3583 29.9993 9 -0.872612 0.481799 -0.0801107 -0.488321 -0.857427 0.162363 0.0366025 0.0264303 0 
291 -41.1926 40.8969 6.7023 35.6451 9 0.940329 0.255882 -0.22429 -0.323034 0.878431 -0.352149 0.0310099 0.0125458 0 
349 -20.7178 -3.46319 15.6701 32.8391 9 0.449331 0.890939 0.0657978 -0.886037 0.453849 -0.0946578 0.0208828 0.0104869 0 
281 -11.5752 30.1933 9.52724 16.1108 9 0.879207 -0.431466 0.202068 0.473167 0.840374 -0.264356 0.0196819 0.00526307 0 
316 -41.645 -0.11471 7.06399 23.2861 9 0.632163 0.647991 0.424826 -0.512607 0.760901 -0.397823 0.034146 -0.00282463 0 
328 -19.6994 19.6278 11.7699 24.364 9 0.930342 0.212658 0.298731 -0.118007 0.944956 -0.305177 0.0208096 0.00438417 0 
246 -18.7786 49.7357 -4.42936 24.9124 9 0.936463 0.344143 0.0678388 0.190888 -0.66226 0.72455 -0.0348057 0.0179963 0 
354 -39.8332 -10.6377 7.15045 58.2331 9 -0.00936826 0.984384 0.175786 -0.807479 0.0962443 -0.581992 0.0177445 0.0109625 0 
233 1.67205 24.4941 11.8688 21.9731 9 0.678528 0.689771 -0.252617 -0.734374 0.645008 -0.211328 0.0129987 0.00192671 0 
299 -38.0654 27.7176 8.70254 27.3502 9 0.635696 0.757246 -0.149897 -0.701302 0.647681 0.297799 0.0274028 0.000238792 0 
293 -39.9301 31.63 9.19482 29.1399 9 0.811408 -0.572026 -0.120013 0.544589 0.814477 -0.200127 0.038002 0.0296747 0 
290 -38.0432 38.3398 7.15298 32.7724 9 -0.957303 0.210189 0.198474 -0.125416 -0.920544 0.36996 0.0356906 0.0238206 0 
338 -12.7271 1.8787 16.1437 35.5076 9 -0.542763 0.83652 -0.0751142 0.837471 0.545811 0.0270738 -0.0138565 0.00449269 0 
337 -13.8055 6.64891 15.8798 14.6759 9 -0.624787 0.777686 -0.0696105 -0.78053 -0.624412 0.029709 0.0203989 0.00502181 0 
239 -2.23547 29.0102 10.3436 34.5392 9 -0.860745 0.480971 -0.16669 -0.508876 -0.80478 0.305574 0.00564959 0.00449966 0 
334 -6.95853 14.5559 14.9958 23.793 9 0.0945466 -0.950375 0.296393 0.99486 0.0793543 -0.062904 0.0184859 0.0124569 0 
235 -5.86158 20.6324 13.0309 25.9293 9 0.873905 -0.471073 0.119919 0.485992 0.841571 -0.235731 0.0055796 -0.00104075 0 
345 -21.4697 6.32511 14.8271 24.2923 9 -0.694824 0.657083 -0.29234 -0.685887 -0.727688 -0.0054087 0.0255233 0.00660171 0 
284 -22.2543 29.7345 7.31222 23.7821 9 -0.908895 0.161247 -0.384589 0.30169 0.890935 -0.339437 -0.0132416 0.0110225 0 
283 -20.2336 26.8298 9.20907 18.1056 9 0.603033 0.776931 -0.18091 -0.773843 0.514678 -0.369152 0.0153121 0.0065801 0 
277 -19.1397 34.3724 6.0563 28.1995 9 0.117122 0.924791 -0.362 -0.968543 0.0257784 -0.247508 0.00964298 -0.000460528 0 
276 -20.777 38.3889 3.60881 25.0464 9 0.157108 0.877851 -0.452431 -0.950072 0.00928782 -0.311893 0.0219647 -0.0195865 0 
252 -24.0155 41.7051 0.737868 20.4764 9 -0.974016 0.0232507 -0.225283 0.135395 0.85717 -0.496918 -0.074414 0.0208233 0 
251 -21.5087 43.9017 -0.214223 17.0375 9 0.981094 0.0200581 0.192489 -0.101732 -0.792661 0.601115 -0.0395035 0.0211166 0 
330 -19.0636 13.3459 13.7067 31.7589 9 0.83405 -0.453098 0.314742 0.50441 0.85737 -0.102405 0.0149513 0.00473976 0 
278 -17.9342 42.2827 1.88694 27.9069 9 -0.0470302 0.807321 -0.588235 -0.981213 -0.147644 -0.124184 0.0160355 -0.0074458 0 
250 -17.73 46.2793 -1.09085 20.9567 9 0.933227 0.359268 0.003663 0.275682 -0.722569 0.633951 -0.0275004 0.0147183 0 
280 -13.8888 33.4442 7.80307 22.9849 9 0.743312 -0.522117 0.418188 0.639043 0.739044 -0.213161 0.0173488 0.00886458 0 
272 -31.706 45.3473 0.945698 24.0262 9 -0.00514847 0.829086 -0.559097 -0.892098 0.248806 0.377169 0.02886 -0.00910466 0 
254 -28.1624 48.2508 -3.30719 23.7956 9 -0.945681 0.207062 0.250623 -0.0191459 0.734113 -0.678758 -0.0543034 0.0251253 0 
300 301
300 287
300 289
300 299
300 298
300 302
300 303
300 301
301 303
301 304
301 287
301 300
303 307
303 306
303 305
303 304
303 301
303 300
303 302
302 303
302 300
302 298
302 297
302 308
302 307
302 303
311 312
311 306
311 307
311 310
311 313
311 315
350 349
350 348
350 352
346 330
346 329
346 323
346 321
346 320
346 347
346 345
305 304
305 303
305 306
305 324
305 325
305 285
305 286
305 304
304 305
304 286
304 287
304 301
304 303
304 305
353 319
353 318
353 317
353 354
353 356
353 357
353 352
319 352
319 348
319 347
319 320
319 321
319 318
319 353
315 311
315 313
315 316
315 317
315 318
315 321
315 312
315 311
318 315
318 317
318 353
318 319
318 321
321 318
321 319
321 320
321 346
321 323
321 312
321 315
307 302
307 308
307 310
307 311
307 306
307 303
249 247
249 248
249 254
249 253
249 252
249 251
249 250
249 246
347 348
347 349
347 343
347 345
347 346
347 320
347 319
347 348
312 311
312 315
312 321
312 323
312 306
312 311
308 310
308 307
308 302
308 297
308 309
308 310
314 313
314 310
314 309
357 356
357 352
357 353
357 356
356 357
356 353
356 354
356 355
356 357
329 324
329 323
329 346
329 330
329 328
329 324
255 248
255 256
255 258
255 269
255 272
255 254
317 354
317 353
317 318
317 315
317 316
317 354
306 323
306 324
306 305
306 303
306 307
306 311
306 312
306 323
323 306
323 312
323 321
323 346
323 329
323 324
323 306
309 314
309 310
309 308
309 297
355 356
355 354
274 273
274 287
274 286
274 275
274 252
275 274
275 286
275 285
275 284
275 277
275 276
275 252
271 253
271 272
271 270
271 288
271 273
271 253
269 258
269 268
269 291
269 290
269 270
269 272
269 255
256 257
256 258
256 255
258 255
258 256
258 257
258 259
258 268
258 269
257 260
257 259
257 258
257 256
259 257
259 260
259 261
259 262
259 267
259 268
259 258
259 257
260 261
260 259
260 257
268 259
268 267
268 266
268 291
268 269
268 258
261 260
261 262
261 259
262 261
262 263
262 267
262 259
267 262
267 263
267 266
267 268
267 259
194 195
194 196
194 334
194 336
196 195
196 234
196 235
196 334
196 194
352 353
352 357
352 350
352 348
352 319
348 347
348 319
348 352
348 350
348 349
348 347
244 250
244 278
244 279
244 242
244 243
279 242
279 244
279 278
279 276
279 277
279 280
279 242
320 347
320 346
320 321
320 319
320 347
324 305
324 306
324 323
324 329
324 328
324 325
324 305
295 294
295 265
295 264
263 262
263 264
263 266
263 267
263 262
264 295
264 265
264 266
264 263
297 309
297 308
297 302
297 298
297 296
297 294
294 295
294 297
294 296
294 292
294 265
265 295
265 294
265 292
265 291
265 266
265 264
289 287
289 288
289 290
289 293
289 299
289 300
241 243
241 242
241 240
241 239
243 244
243 242
243 241
243 244
248 255
248 254
248 249
248 247
195 196
195 194
343 338
343 344
343 345
343 347
343 349
234 238
234 235
234 196
234 233
234 238
236 237
236 282
236 326
236 327
236 333
236 235
236 237
237 236
237 235
237 238
237 239
237 240
237 281
237 282
237 236
286 287
286 304
286 305
286 285
286 275
286 274
335 331
335 337
335 336
335 334
335 333
335 331
296 294
296 297
296 298
296 299
296 293
296 292
266 264
266 265
266 291
266 268
266 267
266 263
273 253
273 271
273 288
273 287
273 274
273 252
313 315
313 311
313 310
313 314
313 316
253 254
253 272
253 271
253 273
253 252
253 249
238 237
238 235
238 234
238 233
238 239
238 237
310 309
310 314
310 313
310 311
310 307
310 308
242 280
242 240
242 241
242 243
242 244
242 279
240 239
240 241
240 242
240 280
240 281
240 237
288 290
288 289
288 287
288 273
288 271
288 270
270 290
270 288
270 271
270 272
270 269
247 246
247 248
247 249
331 344
331 337
331 335
331 333
331 327
331 330
331 344
344 330
344 345
344 343
344 338
344 337
344 331
344 330
327 331
327 333
327 236
327 326
327 328
327 330
327 331
325 326
325 283
325 284
325 285
325 305
325 324
325 328
285 286
285 305
285 325
285 284
285 275
326 328
326 327
326 236
326 282
326 283
326 325
282 284
282 283
282 326
282 236
282 237
282 281
282 280
282 277
336 335
336 337
336 338
336 194
336 334
336 335
333 327
333 331
333 335
333 334
333 235
333 236
333 327
287 288
287 289
287 300
287 301
287 304
287 286
287 274
287 273
298 296
298 297
298 302
298 300
298 299
298 296
292 294
292 296
292 293
292 290
292 291
292 265
291 292
291 290
291 269
291 268
291 266
291 265
349 343
349 347
349 348
349 350
281 282
281 237
281 240
281 280
316 313
316 317
316 315
316 313
328 325
328 324
328 329
328 330
328 327
328 326
246 247
246 249
246 250
354 355
354 356
354 353
354 317
233 239
233 238
233 234
233 239
299 293
299 296
299 298
299 300
299 289
293 289
293 290
293 292
293 296
293 299
293 289
290 291
290 292
290 293
290 289
290 288
290 270
290 269
338 336
338 337
338 344
338 343
337 336
337 335
337 331
337 344
337 338
239 238
239 233
239 241
239 240
239 237
334 335
334 336
334 194
334 196
334 235
334 333
334 335
235 238
235 237
235 236
235 333
235 334
235 196
235 234
345 346
345 347
345 343
345 344
345 330
284 285
284 325
284 283
284 282
284 277
284 275
283 284
283 325
283 326
283 282
277 275
277 284
277 282
277 280
277 279
277 276
276 251
276 252
276 275
276 277
276 279
276 278
252 253
252 273
252 274
252 275
252 276
252 251
252 249
251 252
251 276
251 278
251 250
251 249
330 331
330 327
330 328
330 329
330 346
330 345
330 344
278 250
278 251
278 276
278 279
278 244
250 246
250 249
250 251
250 278
250 244
280 279
280 277
280 282
280 281
280 240
280 242
272 254
272 255
272 269
272 270
272 271
272 253
254 255
254 272
254 253
254 249
254 248
