ply
format ascii 1.0
comment Exported from MorphoGraphX 2.0 b722c27
comment Cell Graph: each vertex is a cell, each edge a wall
element vertex 115
property int label
property float x
property float y
property float z
property float Geometry/Area
property list uchar float /Cell Axis curv10microns
element edge 616
property uint source
property uint target
end_header
238 -28.343 14.1127 14.6308 36.9282 9 0.448946 0.889915 -0.0806188 -0.811695 0.368427 -0.453225 0.00510467 0.00106087 0 
239 -27.4846 19.7828 13.1549 36.8721 9 0.126532 0.952898 -0.275637 -0.921257 0.00985655 -0.38883 0.0110106 -0.00433308 0 
5 -39.7535 45.2336 -1.3046 41.3428 9 -0.0554624 -0.644571 0.76253 0.962926 -0.236462 -0.129845 0.0200855 -0.00441337 0 
4 -40.8769 48.5953 -4.83991 33.3748 9 -0.174067 -0.52174 0.835158 0.938959 -0.34351 -0.0188963 0.0216497 -0.00125226 0 
35 -47.4277 5.5441 9.85429 23.2165 9 -0.809395 0.587265 0.000358853 0.571873 0.788042 0.22793 -0.0397916 0.0216286 0 
2 -49.3029 52.2551 -7.18283 41.3935 9 -0.263077 -0.446234 0.855375 0.962618 -0.180664 0.201811 0.0148086 -0.0010468 0 
19 -50.022 43.8292 2.64444 37.7638 9 0.772635 0.480973 -0.414368 -0.634772 0.595604 -0.49226 0.0356221 0.00978518 0 
32 -45.3366 11.4336 10.9033 32.0375 9 -0.827678 0.554728 0.0850052 0.56116 0.819947 0.113082 -0.0359343 0.0193138 0 
31 -47.4351 14.2832 11.4089 23.6308 9 0.700704 0.711476 0.0530696 -0.712386 0.693653 0.106541 0.0210367 0.00307371 0 
101 -19.5184 -6.50802 21.1712 33.6315 9 -0.246045 0.968119 0.0469885 -0.958291 -0.235703 -0.161622 0.0274455 0.00623844 0 
108 -18.0493 -0.752253 21.1439 29.7954 9 -0.403145 0.897075 -0.180917 -0.906165 -0.418928 -0.0580035 0.0208775 0.00752606 0 
230 -0.894285 25.1356 15.8252 22.3487 9 0.912425 0.394488 -0.108901 0.406807 -0.845299 0.346378 -0.0128053 0.00696382 0 
227 -3.63453 17.7347 18.4541 30.6713 9 -0.556702 0.778681 -0.289376 -0.830606 -0.527338 0.178909 0.0122743 -0.00290111 0 
16 -39.682 40.0432 3.71295 32.7155 9 -0.0846719 0.843271 -0.530778 -0.920861 0.137239 0.364938 0.0269998 0.00735669 0 
7 -35.4801 43.5156 -1.0107 32.1399 9 -0.975597 0.115189 0.186927 -0.0578451 0.686425 -0.724896 -0.0397785 0.0303918 0 
182 -8.42142 7.01163 21.3286 35.9283 9 0.983963 0.177927 0.0125757 -0.175262 0.977513 -0.117271 0.0169307 0.0133686 0 
184 -12.1335 9.77442 20.5753 26.1474 9 0.94427 -0.252421 0.211274 0.286715 0.94601 -0.151196 0.0232586 0.0184477 0 
6 -34.0185 47.4391 -6.54643 25.9791 9 0.988351 -0.0289775 -0.14941 0.102412 -0.599573 0.79374 -0.0626704 0.00395615 0 
246 -15.4085 28.7943 13.3905 17.8257 9 0.951109 -0.222196 0.214525 0.281493 0.90945 -0.306045 0.023132 0.00882715 0 
247 -18.2908 31.5796 11.4135 24.5314 9 0.818809 -0.341863 0.461174 0.499828 0.819678 -0.279821 0.0214128 0.0109475 0 
241 -32.7425 23.066 9.91166 19.6083 9 -0.950212 0.225463 -0.215089 0.282518 0.914557 -0.28943 -0.0655417 0.00859069 0 
240 -30.3087 23.0716 10.6567 21.4896 9 -0.880999 0.0836354 -0.465666 0.234593 0.931957 -0.276446 -0.0512314 0.010646 0 
260 -11.957 30.9157 12.9255 29.1315 9 0.897541 -0.352265 0.265198 0.426103 0.847606 -0.316229 0.0173902 0.0050952 0 
253 -30.0829 43.9049 -1.92344 36.0503 9 -0.990155 -0.137037 -0.0285476 -0.0707071 0.665655 -0.742902 -0.0616985 0.0240186 0 
250 -23.5178 39.4666 4.52771 32.7408 9 0.0986764 -0.76344 0.638296 0.921422 0.312343 0.231135 0.0161913 -0.00721226 0 
249 -26.1039 35.1834 6.31496 28.5785 9 0.933964 0.182039 0.307527 -0.0131979 -0.842379 0.538724 -0.0226271 0.0180551 0 
9 -33.8156 39.7067 1.78367 26.9168 9 -0.988592 0.0821201 0.126265 -0.00363962 0.825029 -0.565078 -0.0589303 0.025741 0 
235 -14.0715 21.7131 16.3203 36.209 9 0.971666 0.209287 0.109839 -0.155402 0.915827 -0.370286 0.0164636 0.0017691 0 
233 -11.2688 25.1495 15.3528 31.9817 9 0.9893 0.144941 0.0166866 -0.125557 0.904035 -0.408603 0.0133118 0.00329197 0 
245 -19.7687 27.0423 12.9096 35.6634 9 0.873948 -0.300966 0.381619 0.407101 0.882226 -0.236531 0.0135276 0.00482145 0 
248 -23.7403 31.6094 9.3254 30.2996 9 -0.0366607 0.88252 -0.468845 -0.942697 -0.186233 -0.27684 0.0108314 -0.00160736 0 
244 -20.621 21.8591 14.8465 30.3954 9 0.957144 -0.057887 0.283767 0.146566 0.941902 -0.302223 0.0138574 0.00828349 0 
15 -36.9146 36.0245 5.07747 21.1904 9 -0.945296 0.241226 0.219604 0.0772833 0.819629 -0.567658 -0.0339681 0.0183539 0 
14 -33.9969 33.8219 5.59631 30.9193 9 -0.989732 0.127344 0.064908 0.0764876 0.8555 -0.512122 -0.0652848 0.0213288 0 
10 -29.9547 37.9329 2.98512 21.561 9 0.972208 0.0894025 0.216377 -0.044922 -0.83581 0.547178 -0.0655766 0.0138618 0 
229 -3.51266 22.4471 16.774 17.469 9 -0.556845 0.777407 -0.292511 -0.830556 -0.525386 0.184786 0.00689787 -0.00296347 0 
259 -15.2852 35.6596 9.98139 26.2102 9 0.801279 -0.422477 0.423633 0.565634 0.765667 -0.306287 0.0197758 0.00144645 0 
261 -8.8348 33.7057 11.9633 28.0485 9 0.72124 -0.612663 0.323198 0.688937 0.682939 -0.242817 0.0155526 -0.0129067 0 
12 -31.7098 30.9732 6.91748 27.1705 9 -0.99137 0.0712675 -0.110026 0.1115 0.899794 -0.421827 -0.0680674 0.0181174 0 
13 -29.0111 30.2783 7.94132 22.2534 9 -0.944446 -0.0078626 -0.328572 0.133831 0.90388 -0.406313 -0.0482261 0.0163552 0 
11 -27.4831 40.2058 2.06014 17.2929 9 -0.978218 -0.116998 -0.171465 0.0148216 0.784548 -0.619891 -0.0432919 0.0179896 0 
231 -5.51752 29.0261 14.1217 35.4011 9 -0.720313 -0.651917 0.236966 -0.692603 0.657196 -0.297313 -0.0096113 0.00556827 0 
102 -24.3274 -0.710156 19.8113 46.6451 9 -0.61193 0.735666 -0.29041 -0.739302 -0.66251 -0.12047 0.0210914 0.0153513 0 
251 -23.996 43.381 1.04554 22.6587 9 -0.881236 -0.466331 -0.0771876 -0.276324 0.64074 -0.716308 -0.025167 0.0136541 0 
25 -36.2448 26.3863 9.09847 39.3667 9 0.948273 -0.29193 -0.124717 -0.245119 -0.922975 0.296706 -0.0562586 0.0207883 0 
262 -12.4467 38.269 9.14971 18.2709 9 0.768534 -0.492337 0.408608 0.62036 0.729683 -0.287605 0.0195923 -0.0102089 0 
242 -26.6053 26.716 10.6784 28.8369 9 0.213975 0.90555 -0.366326 -0.920143 0.0609457 -0.38681 0.0140842 -0.0114584 0 
23 -39.9812 31.5976 8.47576 33.7996 9 -0.209588 -0.884105 0.41765 0.933465 -0.308063 -0.183688 0.028334 0.00282571 0 
17 -42.2128 35.9 7.11438 30.4227 9 -0.91616 -0.203331 0.34541 0.332663 -0.866444 0.372303 0.0277901 0.0190193 0 
103 -22.0832 3.65639 19.6205 23.7909 9 0.805882 -0.51908 0.284799 0.560263 0.824115 -0.0833047 0.0181942 0.00543858 0 
258 -20.13 36.0885 8.20611 29.4923 9 -0.748521 0.413134 -0.518687 -0.586875 -0.77687 0.228147 0.0155536 0.0065442 0 
20 -49.955 39.7012 5.64324 27.0533 9 0.81444 0.53124 -0.233392 -0.576599 0.69592 -0.428053 0.0412469 0.012227 0 
22 -47.057 31.5103 9.66137 40.7297 9 0.996333 0.0811344 -0.0271567 -0.0854595 0.928448 -0.361499 0.0371189 0.019227 0 
21 -51.034 33.2549 8.5011 42.0301 9 0.547725 0.808393 -0.215635 -0.816756 0.460751 -0.347301 0.0157482 0.00296542 0 
1 -46.6741 47.4687 -1.31704 49.6843 9 0.818722 0.274199 -0.504489 -0.54437 0.650133 -0.530084 0.0249969 0.0111822 0 
54 -44.5319 -18.9117 6.45826 37.0664 9 0.119031 0.824938 0.552548 -0.721531 0.454163 -0.522618 0.0258307 -0.00106514 0 
228 -7.93836 20.2671 17.4923 28.5745 9 0.9913 -0.114284 0.0652971 0.129531 0.935128 -0.329784 0.0123492 0.00330752 0 
38 -46.8072 -3.37471 8.263 27.5786 9 -0.713848 0.596512 -0.366871 0.466623 0.795794 0.385973 -0.053626 0.0211098 0 
39 -43.9526 -3.72565 9.98963 24.794 9 -0.685066 0.615664 -0.389412 0.520384 0.787664 0.329828 -0.0318113 0.0226717 0 
27 -45.2942 21.1763 11.6354 32.6755 9 0.599509 0.794849 -0.0938324 -0.787398 0.606747 0.108919 0.0228277 0.0193498 0 
252 -25.4157 46.6065 -2.80298 26.8187 9 0.860731 0.508918 0.0120104 0.311428 -0.545087 0.778391 -0.0322913 0.0134565 0 
18 -44.8008 40.5893 4.48771 44.0444 9 0.885861 0.301896 -0.352291 -0.453925 0.720985 -0.523578 0.0268773 0.0163842 0 
26 -48.5497 24.5355 11.4685 38.5647 9 0.819288 -0.552296 0.154067 0.568545 0.817329 -0.0934315 0.0377764 0.0150305 0 
3 -45.0074 51.1192 -6.29526 23.5309 9 0.393077 -0.585332 0.709138 0.882308 0.022961 -0.470113 0.0288525 0.0226497 0 
56 -42.6032 -25.0997 4.38639 30.5308 9 -0.433004 0.855311 0.284517 -0.608037 -0.044138 -0.792681 0.0258081 0.00669699 0 
51 -41.9667 -6.72931 11.3993 25.1322 9 0.487324 0.787568 0.377163 -0.66179 0.614889 -0.428888 0.0285838 -0.00490272 0 
243 -24.0107 23.9934 12.9192 19.8255 9 0.824238 -0.35301 0.442737 0.471598 0.860729 -0.191678 0.012667 0.0102148 0 
29 -38.489 19.2331 10.748 21.016 9 -0.89783 0.440035 -0.0164308 0.438137 0.888985 -0.133199 -0.0498824 0.0214581 0 
30 -35.9119 18.7534 10.8886 20.257 9 -0.922839 0.367483 -0.115429 0.383351 0.905446 -0.182236 -0.0613913 0.0203985 0 
40 -43.1176 3.08241 10.643 32.0822 9 -0.757378 0.589847 -0.280104 0.529689 0.805832 0.264697 -0.0506064 0.0198222 0 
34 -41.7274 8.55183 11.1494 28.7755 9 -0.811737 0.564179 -0.150949 0.556232 0.825622 0.0946294 -0.0535429 0.0225062 0 
28 -41.6958 19.6185 11.0466 34.6431 9 -0.86235 0.49035 0.12613 0.483147 0.871443 -0.0845938 -0.0271644 0.0222725 0 
24 -42.2397 27.2771 10.4381 34.9711 9 0.543646 0.791559 -0.279076 -0.812515 0.579695 0.061425 0.0273963 0.0179066 0 
104 -26.167 6.62033 17.6049 32.1884 9 0.891257 -0.22045 0.396311 0.295659 0.945099 -0.139188 0.0134033 0.00427791 0 
188 -4.47062 11.1252 20.5184 25.0249 9 0.253051 -0.942167 0.219745 0.963414 0.224675 -0.14613 0.0203571 0.00724027 0 
44 -33.3853 15.5179 12.2395 34.697 9 -0.8586 0.359547 -0.36542 0.42637 0.896605 -0.119615 -0.0390724 0.0134607 0 
43 -34.952 9.89471 13.0791 30.3895 9 -0.729623 0.504207 -0.461981 0.551038 0.833547 0.0394601 -0.0300718 0.00991345 0 
36 -49.7724 2.17251 8.65754 29.7831 9 -0.843027 0.537787 -0.00951588 0.505062 0.797565 0.329852 -0.041599 0.0234104 0 
37 -50.9398 -2.53845 6.77761 29.4631 9 -0.868685 0.483578 -0.107421 0.397086 0.809416 0.432629 -0.0565915 0.0325976 0 
41 -39.0948 3.79256 12.3898 29.115 9 -0.676825 0.557335 -0.480922 0.551696 0.816562 0.169875 -0.0357815 0.0189085 0 
50 -38.811 -3.59738 13.3172 34.9447 9 0.491178 0.836519 0.242858 -0.698478 0.544831 -0.463991 0.0143581 -0.00214045 0 
33 -39.4446 13.0073 11.3452 26.1349 9 -0.827784 0.544364 -0.135803 0.54877 0.835953 0.0058914 -0.0534362 0.0173012 0 
42 -36.1605 3.17215 14.1103 26.9638 9 0.560029 0.81854 0.127906 -0.705468 0.55211 -0.444397 0.020972 -0.010054 0 
46 -33.1255 1.55412 15.8568 37.2121 9 0.593316 0.794042 0.132188 -0.682036 0.583103 -0.441383 0.0175898 0.00320371 0 
257 -16.8549 40.5577 6.62725 30.9953 9 0.70565 -0.45793 0.540701 0.646739 0.727998 -0.22748 0.0237028 -0.00697226 0 
45 -31.0807 8.27249 15.2043 27.8699 9 0.731799 0.670489 0.122124 -0.57411 0.703047 -0.419669 0.00781655 -0.00119932 0 
105 -24.9113 11.6125 16.6951 26.8007 9 0.904236 -0.209767 0.371962 0.291993 0.939308 -0.180111 0.0117755 0.00268705 0 
49 -34.8092 -5.37648 15.8576 27.4886 9 0.565033 0.761863 0.316705 -0.642535 0.647117 -0.410353 0.0160432 0.0102112 0 
48 -30.1897 -4.17105 18.085 34.6277 9 0.917308 0.122559 0.378848 -0.0854178 0.98987 -0.113404 0.0179684 0.0158006 0 
47 -29.3591 1.4552 17.7023 21.8617 9 0.699974 0.699961 0.141741 -0.599351 0.683677 -0.416371 0.0173953 0.0116641 0 
107 -18.0195 5.22759 20.1274 24.1017 9 0.696733 -0.646454 0.310902 0.67328 0.738876 0.0275085 0.0146246 -0.00346723 0 
61 -32.5044 -11.9147 16.8305 47.5943 9 0.74879 -0.561899 0.351544 0.453291 0.82109 0.346897 0.0183125 0.016051 0 
63 -26.9452 -11.238 19.19 44.1871 9 0.87202 -0.447497 0.198312 0.411581 0.889663 0.197742 0.0308326 0.0109245 0 
65 -25.3392 -6.27821 20.0102 25.3639 9 0.672247 -0.712828 0.199901 0.684911 0.701327 0.197578 0.0296851 0.0142616 0 
232 -6.18601 25.4581 15.5298 14.787 9 0.805781 -0.54513 0.231407 0.591095 0.764322 -0.257718 0.00515455 0.0013276 0 
52 -38.7251 -11.3836 13.1677 50.7587 9 0.237494 0.940065 0.244695 -0.793936 0.332991 -0.508708 0.0191074 0.00727957 0 
53 -40.2052 -17.4484 10.9185 32.5139 9 0.179509 0.877905 0.443913 -0.764751 0.408378 -0.498381 0.0258643 0.0151005 0 
62 -36.0562 -16.5871 14.0776 27.553 9 -0.0988865 0.970602 0.219437 -0.883554 0.0158029 -0.468062 0.0274952 0.0134282 0 
256 -19.6167 42.7527 3.90425 15.0369 9 0.567212 -0.468886 0.677065 0.739003 0.652644 -0.167127 0.0186305 -0.0018869 0 
57 -40.0001 -23.1984 8.44062 31.95 9 0.0672403 0.822281 0.565096 -0.815538 0.371579 -0.443651 0.0266679 0.0207111 0 
185 -15.8333 11.7592 19.2774 32.7424 9 0.965917 0.19132 0.174357 -0.1367 0.949017 -0.284041 0.013172 0.0114171 0 
106 -20.4701 10.9957 18.2343 37.2423 9 0.823019 -0.445342 0.352576 0.495967 0.865987 -0.0639004 0.00939825 0.00439953 0 
55 -47.1499 -21.3775 2.22395 29.0814 9 -0.268914 0.903221 0.334481 -0.699862 0.055348 -0.71213 0.0219086 -0.0161046 0 
59 -31.4379 -20.1627 15.5273 36.4222 9 0.543139 0.607357 0.579756 -0.691529 0.715197 -0.101395 0.0279781 0.0162227 0 
58 -35.4096 -23.3511 11.5052 50.8014 9 0.0553544 0.842988 0.535078 -0.878324 0.295974 -0.375428 0.0174716 0.00315259 0 
183 -14.4215 5.08406 20.9804 16.3414 9 -0.78563 0.583699 -0.205136 -0.600434 -0.799276 0.0252632 0.0197993 0.00452621 0 
226 -1.35666 15.252 19.2679 13.9367 9 0.720294 -0.679152 0.141169 0.690841 0.683992 -0.234294 0.0308065 0.000950589 0 
237 -22.2717 17.1011 15.9443 25.2209 9 0.936911 0.262659 0.230668 -0.17875 0.92705 -0.329585 0.0137591 0.00452756 0 
236 -17.1029 17.63 17.2023 30.2144 9 0.913183 0.39915 0.0823192 -0.345388 0.865168 -0.363581 0.0158855 0.00433773 0 
109 -13.8465 -0.661956 21.7421 20.9607 9 -0.0342797 0.995641 -0.0867463 -0.986072 -0.047829 -0.159295 0.0105089 0.00823815 0 
110 -11.0948 1.41075 21.821 21.5308 9 0.954116 -0.291328 0.0692083 0.297146 0.949714 -0.0987348 0.0149128 0.00658337 0 
60 -28.4275 -16.7221 18.005 23.0207 9 0.94263 -0.272899 0.192289 0.219953 0.940988 0.257219 0.0402471 0.0286952 0 
187 -8.11287 14.0316 19.7514 22.7442 9 0.983243 -0.173026 0.057407 0.182229 0.924062 -0.336008 0.0188339 0.0140538 0 
186 -11.807 15.9261 18.7792 24.362 9 0.970626 0.23038 0.0693487 -0.189502 0.909661 -0.369603 0.0197055 0.00751324 0 
66 -20.9914 -11.4825 20.3187 28.191 9 -0.015538 0.984825 0.172851 -0.993964 0.00356209 -0.109645 0.0152295 -0.00649577 0 
238 44
238 43
238 45
238 105
238 237
238 239
239 238
239 237
239 244
239 243
239 242
239 240
239 44
239 238
5 18
5 16
5 7
5 6
5 4
5 1
4 5
4 3
4 1
35 32
35 36
35 40
35 34
35 32
2 3
2 1
19 20
19 18
19 1
32 31
32 35
32 34
32 33
32 28
31 32
31 28
31 27
101 108
101 102
101 65
101 66
101 108
108 101
108 109
108 107
108 103
108 102
108 101
230 231
230 232
230 229
227 228
227 187
227 188
227 226
227 229
227 228
16 18
16 17
16 15
16 9
16 7
16 5
7 16
7 9
7 253
7 6
7 5
182 184
182 183
182 110
182 188
182 187
182 184
184 182
184 187
184 186
184 185
184 183
184 182
6 7
6 253
6 5
246 245
246 233
246 260
246 247
247 246
247 260
247 259
247 258
247 248
247 245
247 246
241 240
241 13
241 12
241 25
241 30
241 44
241 240
240 44
240 239
240 242
240 13
240 241
260 231
260 261
260 259
260 247
260 246
260 233
260 231
253 7
253 9
253 10
253 11
253 251
253 252
253 6
250 249
250 258
250 257
250 256
250 251
250 11
250 249
249 11
249 10
249 13
249 248
249 258
249 250
9 7
9 16
9 15
9 14
9 10
9 253
9 7
235 245
235 244
235 236
235 186
235 228
235 233
233 235
233 228
233 232
233 231
233 260
233 246
233 245
245 248
245 242
245 243
245 244
245 235
245 233
245 246
245 247
245 248
248 247
248 258
248 249
248 13
248 242
248 245
244 245
244 243
244 239
244 237
244 236
244 235
244 245
15 16
15 17
15 23
15 14
15 9
14 15
14 23
14 25
14 12
14 10
14 9
10 14
10 12
10 13
10 249
10 11
10 253
10 9
229 232
229 228
229 227
229 230
229 232
259 261
259 262
259 257
259 258
259 247
259 260
261 260
261 231
261 262
261 259
12 14
12 25
12 241
12 13
12 10
13 12
13 241
13 240
13 242
13 248
13 249
13 10
11 249
11 250
11 251
11 253
11 10
231 233
231 232
231 230
231 261
231 260
102 108
102 103
102 104
102 47
102 48
102 65
102 101
251 11
251 250
251 256
251 252
251 253
25 12
25 14
25 23
25 24
25 28
25 29
25 30
25 241
25 12
262 261
262 257
262 259
242 240
242 239
242 243
242 245
242 248
242 13
23 15
23 17
23 22
23 24
23 25
23 14
17 15
17 16
17 18
17 22
17 23
103 108
103 107
103 106
103 104
103 102
258 247
258 259
258 257
258 250
258 249
258 248
258 247
20 19
20 21
20 18
22 17
22 18
22 21
22 26
22 24
22 23
22 17
21 20
21 22
21 18
1 5
1 4
1 3
1 2
1 19
1 18
54 53
54 55
54 56
54 57
54 53
228 233
228 235
228 186
228 187
228 227
228 229
228 232
228 233
38 37
38 39
38 40
38 36
39 51
39 50
39 41
39 40
39 38
27 26
27 31
27 28
27 24
252 251
252 253
252 251
18 19
18 20
18 21
18 22
18 17
18 16
18 5
18 1
26 27
26 24
26 22
3 4
3 2
3 1
56 55
56 57
56 54
51 52
51 50
51 39
243 245
243 242
243 239
243 244
243 245
29 28
29 33
29 30
29 25
30 29
30 33
30 44
30 241
30 25
40 34
40 35
40 36
40 38
40 39
40 41
34 35
34 40
34 41
34 43
34 33
34 32
28 27
28 31
28 32
28 33
28 29
28 25
28 24
24 26
24 27
24 28
24 25
24 23
24 22
104 103
104 106
104 105
104 45
104 46
104 47
104 102
188 226
188 227
188 187
188 182
44 33
44 43
44 238
44 239
44 240
44 241
44 30
43 34
43 41
43 42
43 45
43 238
43 44
43 33
36 37
36 38
36 40
36 35
37 38
37 36
41 40
41 39
41 50
41 42
41 43
41 34
50 51
50 52
50 49
50 46
50 42
50 41
50 39
33 32
33 34
33 43
33 44
33 30
33 29
33 28
42 50
42 46
42 45
42 43
42 41
46 42
46 50
46 49
46 48
46 47
46 104
46 45
46 42
257 256
257 250
257 258
257 259
257 262
45 46
45 104
45 105
45 238
45 43
45 42
105 104
105 106
105 237
105 238
105 45
49 50
49 52
49 61
49 48
49 46
48 102
48 47
48 46
48 49
48 61
48 63
48 65
48 102
47 102
47 104
47 46
47 48
47 102
107 108
107 109
107 183
107 185
107 106
107 103
61 49
61 52
61 62
61 59
61 60
61 63
61 48
63 61
63 60
63 66
63 65
63 48
65 63
65 66
65 101
65 102
65 48
232 233
232 228
232 229
232 230
232 231
52 50
52 51
52 53
52 62
52 61
52 49
53 54
53 57
53 58
53 62
53 52
62 53
62 58
62 59
62 61
62 52
256 251
256 250
256 257
57 54
57 56
57 58
57 53
185 184
185 186
185 236
185 106
185 107
185 183
185 184
106 107
106 185
106 236
106 237
106 105
106 104
106 103
55 54
55 56
59 60
59 61
59 62
59 58
58 57
58 59
58 62
58 53
183 184
183 185
183 107
183 109
183 110
183 182
226 227
226 188
226 227
237 106
237 236
237 244
237 239
237 238
237 105
236 244
236 237
236 106
236 185
236 186
236 235
236 244
109 108
109 110
109 183
109 107
110 182
110 183
110 109
60 63
60 61
60 59
187 184
187 182
187 188
187 227
187 228
187 186
187 184
186 185
186 184
186 187
186 228
186 235
186 236
186 185
66 101
66 65
66 63
