ply
format ascii 1.0
comment Exported from MorphoGraphX 2.0 b722c27
comment Cell Graph: each vertex is a cell, each edge a wall
element vertex 128
property int label
property float x
property float y
property float z
property float Geometry/Area
property list uchar float /Cell Axis curv10microns
element edge 699
property uint source
property uint target
end_header
125 -31.0042 48.4059 -13.6453 17.8555 9 -0.9743 -0.118126 0.191798 -0.224985 0.552114 -0.80284 -0.0434648 0.0179786 0 
1 -49.6861 41.5386 -6.22554 35.4152 9 -0.0341001 0.794843 -0.605857 -0.985921 -0.126046 -0.109872 0.0367754 0.0190892 0 
2 -51.4426 36.9918 -4.00247 38.3985 9 0.38968 0.874747 -0.288039 -0.889866 0.277065 -0.362455 0.0313722 0.017401 0 
127 -30.0036 42.7406 -7.13444 21.922 9 -0.99998 0.00610351 -0.00149971 0.00558373 0.753201 -0.657766 -0.0298749 0.0243449 0 
50 -35.1317 -5.95123 4.82904 35.3965 9 0.749336 0.436188 0.498233 -0.401528 0.897596 -0.181925 0.0178414 0.00993653 0 
76 -37.6931 7.93031 4.06405 26.4583 9 0.540842 0.820977 0.182991 -0.754508 0.569684 -0.325849 0.0262209 -0.0199694 0 
169 -16.3564 27.8277 5.23442 27.251 9 0.941791 -0.143637 0.303969 0.237307 0.924467 -0.298405 0.0115778 0.00806904 0 
164 -19.6708 32.1209 2.33289 25.5088 9 0.00220703 0.895757 -0.444537 -0.972926 -0.100812 -0.20797 0.0122782 0.00367039 0 
129 -25.0138 43.5206 -7.18054 31.7936 9 -0.981124 -0.160581 -0.10775 -0.0437695 0.727131 -0.685102 -0.0280911 0.0198953 0 
19 -43.2901 -14.4325 -3.82441 22.5986 9 -0.190577 0.929182 0.316704 -0.725185 0.0841907 -0.683388 0.0439255 0.00866367 0 
3 -54.9888 31.5371 -3.20121 33.5428 9 0.556522 0.830728 0.0131905 -0.760075 0.515473 -0.395695 0.0296991 -0.00357445 0 
45 -25.2947 -6.73551 9.6809 29.6955 9 0.937724 -0.158181 0.309277 0.103886 0.977262 0.184844 0.0185034 0.0132499 0 
163 -14.6524 31.9177 3.87795 21.5725 9 0.838196 -0.365986 0.404329 0.50039 0.810938 -0.303299 0.0170517 0.0103127 0 
97 -42.9036 20.7743 2.2615 25.7753 9 0.479197 0.877675 -0.00747052 -0.864505 0.470502 -0.176804 0.0249583 0.00617071 0 
183 -0.579324 24.7235 8.22339 34.0409 9 0.857495 0.49112 -0.153308 0.512398 -0.78835 0.340519 -0.00680361 0.00626159 0 
170 -12.3234 29.4902 5.47818 13.3489 9 0.967206 -0.197451 0.159769 0.243303 0.900823 -0.359613 0.0180362 0.00901978 0 
173 -3.36745 29.4314 6.21322 30.2515 9 0.733141 0.642405 -0.223205 0.677674 -0.662519 0.319103 -0.0098559 0.00641265 0 
189 -7.15728 15.6278 11.1126 21.5473 9 -0.481105 0.834442 -0.268782 -0.874411 -0.478719 0.0789478 0.0168344 0.0125196 0 
188 -2.55786 19.0936 10.2472 29.7289 9 -0.366615 0.864754 -0.343212 -0.928933 -0.360743 0.0833492 0.0149243 0.0029494 0 
181 -6.51863 21.4971 9.11541 24.286 9 0.913372 0.399892 -0.0764104 -0.402702 0.859797 -0.313975 0.00737973 0.00554971 0 
117 -44.4252 45.075 -8.62704 34.9043 9 -0.0934968 0.714849 -0.693001 -0.99553 -0.0764679 0.055434 0.0335333 0.0150997 0 
160 -21.5758 35.4284 -0.0815277 23.1179 9 0.117052 0.865804 -0.486499 -0.946631 -0.0508636 -0.31828 0.0191603 -0.00689317 0 
159 -15.9215 36.1343 1.20395 25.5675 9 0.515071 -0.656368 0.551256 0.817985 0.568576 -0.0873016 0.0162463 0.00496838 0 
157 -13.3485 40.7976 -1.05333 37.9247 9 0.717312 0.666352 -0.203564 0.638591 -0.511891 0.574604 -0.0228198 0.0205081 0 
121 -33.618 43.8264 -7.85248 27.1915 9 -0.0159645 0.735357 -0.677491 -0.993014 0.0675676 0.0967382 0.0288096 -0.011704 0 
130 -25.1069 38.0862 -2.91831 20.6977 9 -0.963774 -0.0841869 -0.253085 0.0657123 0.844684 -0.531216 -0.0281098 0.0187485 0 
180 -11.8996 22.8233 8.1075 30.9159 9 0.929447 0.368934 0.0041391 -0.342483 0.866873 -0.362266 0.0158443 0.00527481 0 
111 -41.6438 34.1689 -1.24565 24.5414 9 0.503123 0.819391 -0.27471 -0.859262 0.440308 -0.26038 0.0243927 0.00736402 0 
20 -40.8104 -12.0927 -0.597556 27.0955 9 0.0245729 0.94371 0.329859 -0.773857 0.226845 -0.591344 0.0233001 0.00985253 0 
7 -51.3239 18.5985 0.077912 46.8182 9 0.893208 -0.278322 0.353153 0.266668 0.960266 0.0823233 0.0182337 0.0104007 0 
118 -41.2177 40.7425 -4.89364 37.7615 9 0.272831 0.788061 -0.551836 -0.960602 0.191554 -0.201373 0.0287614 0.00733392 0 
131 -22.5079 40.289 -3.70431 15.6519 9 0.0238114 0.785254 -0.618715 -0.980752 -0.101626 -0.166726 0.017555 -0.0144203 0 
6 -50.3578 24.8342 -0.0118871 27.1788 9 0.760185 0.641935 0.100189 -0.593301 0.748731 -0.295626 0.0318279 0.0130117 0 
128 -28.8343 39.4928 -4.52741 21.7019 9 0.996286 -0.0224895 0.0831214 -0.0657185 -0.822328 0.565206 -0.0332769 0.0198395 0 
52 -34.646 1.06531 5.61634 25.3675 9 0.645184 0.689335 0.329477 -0.610852 0.724427 -0.319477 0.0258973 -0.00519341 0 
5 -53.1187 26.8927 -1.39026 19.678 9 0.759004 0.616515 0.209339 -0.497913 0.75679 -0.423499 0.034507 0.00693083 0 
73 -34.3698 7.88662 5.36602 22.5689 9 0.526586 0.839391 0.134645 -0.74214 0.53115 -0.408789 0.0217973 -0.0143235 0 
132 -18.9571 42.9715 -4.75718 17.8164 9 -0.907377 -0.420295 0.00434883 -0.31222 0.667053 -0.676431 -0.0199804 0.0119778 0 
133 -20.0789 46.0317 -7.83933 22.9823 9 -0.885743 -0.461787 0.0470397 -0.357378 0.613769 -0.703966 -0.0258437 0.0150905 0 
351 -3.85852 12.7302 11.9671 21.5792 9 -0.229422 0.952644 -0.199589 -0.973318 -0.223665 0.0512408 0.0174042 0.00810888 0 
176 -9.12538 26.1573 7.20422 27.1641 9 0.996776 0.0305069 0.0742096 0.0014349 0.917972 -0.396643 0.011868 0.00739294 0 
171 -8.97595 31.1848 5.02042 22.0994 9 0.83491 -0.457405 0.306115 0.53821 0.794855 -0.280241 0.0118762 0.00150893 0 
166 -26.8649 31.9935 0.217819 21.495 9 0.983927 -0.0429668 0.173325 -0.113369 -0.900227 0.420404 -0.0303212 0.0136738 0 
174 -6.03111 33.849 4.14894 23.0635 9 -0.690111 0.634999 -0.347165 -0.718586 -0.658188 0.22455 0.0119836 -0.00656777 0 
165 -24.4116 31.0841 1.26643 18.219 9 0.952285 0.00850856 0.305092 -0.120056 -0.908588 0.400069 -0.0234789 0.0123385 0 
172 -11.4827 35.737 2.49486 21.3679 9 0.726521 -0.559658 0.398685 0.670559 0.704154 -0.233493 0.0204313 -0.00263793 0 
96 -40.2981 18.6783 2.93507 14.9169 9 0.587592 0.808718 0.0266617 -0.792107 0.581626 -0.18514 0.0257518 -0.00100163 0 
18 -46.9036 -10.5458 -6.17523 40.4826 9 0.645025 -0.494574 0.582529 0.212619 0.848364 0.484842 0.0227714 -0.00503578 0 
126 -28.4069 46.7199 -11.2554 22.2557 9 0.986592 0.155859 -0.0484127 0.135818 -0.619597 0.77308 -0.0372728 0.0197587 0 
158 -18.8772 39.3874 -1.85723 26.2736 9 -0.138312 0.767224 -0.626289 -0.96016 -0.258919 -0.105139 0.015721 -0.00524268 0 
175 -8.68137 37.9786 1.81262 15.2329 9 -0.77609 0.509207 -0.372012 -0.620551 -0.721666 0.306782 0.0210528 0.00145407 0 
51 -37.5946 -1.45879 3.78165 21.3964 9 0.593262 0.635012 0.494774 -0.572483 0.764905 -0.29527 0.0219135 -0.00787095 0 
11 -47.9528 6.84711 -0.22384 22.4501 9 0.367022 0.824085 0.431484 -0.86145 0.47614 -0.176619 0.0335401 -0.0274083 0 
47 -29.2796 -14.2541 6.42589 26.0518 9 0.422665 0.770834 0.476623 -0.781021 0.576587 -0.239904 0.0238813 -0.00307998 0 
49 -29.9229 -6.97092 7.57223 33.6904 9 0.880144 -0.152134 0.44967 0.0781242 0.98076 0.178901 0.0142585 0.0131504 0 
8 -47.8442 12.4745 1.06995 27.8602 9 0.429557 0.872572 0.232593 -0.86109 0.473374 -0.185585 0.0292937 0.00610132 0 
4 -49.4868 31.8161 -1.63655 28.0837 9 0.773571 0.633453 -0.0180121 -0.597715 0.719896 -0.352826 0.0232956 0.00627868 0 
99 -46.0623 29.4273 -0.224319 29.4184 9 0.76141 0.644494 -0.0698763 -0.626286 0.70347 -0.336 0.0190845 0.00539889 0 
116 -48.1244 47.1219 -12.0261 58.9248 9 0.113078 -0.516815 0.848596 0.973773 0.227356 0.00870678 0.0233887 0.0014029 0 
17 -42.882 -7.64358 -1.3544 42.8361 9 0.491879 0.636916 0.593628 -0.566975 0.751748 -0.336772 0.0160771 -0.00586978 0 
100 -42.9654 27.4571 0.953647 19.4785 9 0.502471 0.843772 -0.188605 -0.850496 0.44314 -0.283343 0.0206395 0.00921569 0 
83 -17.6091 23.0091 6.91684 23.4258 9 0.94342 -0.146372 0.297546 0.23567 0.927208 -0.29111 0.0132705 0.010664 0 
21 -35.1178 -10.985 3.90154 47.724 9 -0.0522676 0.976263 0.210187 -0.847286 0.0680477 -0.526761 0.0191406 0.0133745 0 
59 -11.7316 3.09713 12.6594 33.4777 9 -0.738739 0.657475 -0.148296 0.662222 0.74899 0.0217977 -0.00772317 0.00648376 0 
16 -41.8158 -4.175 0.25116 42.8008 9 -0.487964 0.836728 -0.248548 0.655571 0.53932 0.528546 -0.0172654 0.0157994 0 
61 -16.8134 2.35724 12.0514 23.7562 9 0.528614 -0.834981 0.152882 0.836959 0.542734 0.0702769 0.014655 0.0104144 0 
182 -4.55891 26.1257 7.55148 12.6072 9 0.751717 -0.606953 0.257934 0.658825 0.708649 -0.25252 0.00620597 0.00406099 0 
56 -20.0889 -7.23094 11.218 23.9602 9 0.459636 0.843829 0.276926 -0.848272 0.509471 -0.144477 0.018342 -0.00942245 0 
190 -10.3667 17.2947 10.222 19.3117 9 0.98725 0.0865392 0.133595 -0.0364297 0.939862 -0.339605 0.0151843 0.00957351 0 
13 -45.9097 -0.126066 -1.49355 25.6686 9 0.651552 0.424937 0.628418 -0.509886 0.85867 -0.0519772 0.0373314 -0.020217 0 
46 -26.784 -11.3573 8.40078 16.4228 9 0.683835 0.621324 0.382526 -0.633855 0.765545 -0.110317 0.0206889 0.0113068 0 
54 -27.5734 -0.393988 9.09787 29.6235 9 0.416597 0.89564 0.155811 -0.801485 0.442737 -0.402003 0.0216867 0.0115837 0 
55 -23.5812 -2.64815 10.7775 19.2008 9 0.0859735 0.994049 0.0669002 -0.947048 0.10239 -0.304329 0.025447 0.0229641 0 
53 -31.5547 -1.11905 7.17315 19.4456 9 0.52218 0.805565 0.279989 -0.727001 0.592099 -0.347689 0.0173341 0.00355919 0 
192 -11.0474 11.458 11.7527 19.335 9 0.589534 -0.776544 0.222326 0.800057 0.599251 -0.0284093 0.0217966 0.0147275 0 
187 -0.56586 16.585 11.1328 12.2128 9 0.720249 -0.679255 0.140902 0.693272 0.697528 -0.181184 0.0417594 0.00914885 0 
71 -29.4759 5.11122 7.74341 26.4818 9 0.53862 0.834373 0.117089 -0.75889 0.540804 -0.362789 0.019913 -0.00165062 0 
72 -31.9687 6.87703 6.61434 20.7828 9 0.509507 0.852553 0.116429 -0.776687 0.513907 -0.364222 0.0242837 -0.00300414 0 
66 -22.4668 2.72791 10.7363 34.9741 9 0.650213 0.752701 0.103266 -0.699283 0.646048 -0.305982 0.0193282 0.0168519 0 
14 -41.2944 2.07588 1.72733 24.6073 9 -0.707197 0.672575 -0.217982 0.528858 0.707845 0.468257 -0.0227635 0.0204238 0 
194 -7.71504 9.17971 12.4018 29.207 9 0.563076 0.824114 -0.0614935 -0.82294 0.552352 -0.132956 0.0125546 0.00555086 0 
12 -44.8727 4.10536 0.511524 27.8482 9 0.528216 0.715133 0.45779 -0.709973 0.667704 -0.223853 0.0320663 -0.0171155 0 
60 -15.0545 7.68079 11.6192 32.7431 9 -0.634873 0.738725 -0.226324 -0.748288 -0.660839 -0.0579286 0.017207 0.00442954 0 
193 -14.065 13.5939 10.6438 27.0464 9 0.684958 -0.638025 0.351791 0.695132 0.716907 -0.0532457 0.0143846 0.0115348 0 
63 -18.2445 13.1135 9.69119 28.5331 9 0.847799 -0.408638 0.338013 0.471687 0.87236 -0.128447 0.00822013 0.0056948 0 
62 -19.9386 6.39178 10.8502 19.2222 9 0.800987 -0.514014 0.306936 0.557764 0.826989 -0.0706247 0.0173235 0.00824594 0 
9 -44.6346 15.1185 2.09543 26.2072 9 0.516728 0.844296 0.14197 -0.81953 0.535758 -0.203311 0.021594 -0.000852691 0 
65 -23.3311 9.36945 9.19784 23.635 9 0.42421 0.904764 -0.0380566 -0.853209 0.385249 -0.351592 0.0105119 0.00561513 0 
82 -14.9529 19.0452 8.79333 26.0219 9 0.896008 0.428981 0.114652 -0.37449 0.868785 -0.32399 0.0119094 0.0050723 0 
84 -19.4915 18.8389 7.69815 17.6938 9 0.975181 0.068058 0.210692 -0.010866 0.96515 -0.261471 0.00825126 0.00483207 0 
64 -21.9303 13.8689 8.54894 21.9122 9 0.908399 -0.27177 0.317729 0.335701 0.927083 -0.1668 0.00868491 0.00808074 0 
15 -39.0906 1.33358 2.78845 21.8384 9 -0.675429 0.668405 -0.311497 0.50263 0.726373 0.46877 -0.0227347 0.0166573 0 
79 -30.4278 13.0848 5.90832 22.5694 9 0.502127 0.862378 -0.0645921 -0.794229 0.430315 -0.428986 0.0150246 -0.0141956 0 
78 -34.0499 16.6592 4.12619 20.7711 9 -0.811619 0.53912 -0.225 0.566389 0.820533 -0.0770048 -0.0250825 0.0185979 0 
81 -24.7253 16.489 6.88731 28.6543 9 0.409203 0.899779 -0.151494 -0.855862 0.320943 -0.405581 0.00734506 0.00150389 0 
90 -31.0454 21.2406 3.5595 18.1349 9 -0.915859 0.348076 -0.200114 0.384886 0.903033 -0.190774 -0.0289723 0.0108326 0 
91 -33.2521 22.1999 3.04276 15.7628 9 -0.910033 0.367146 -0.192469 0.400832 0.897749 -0.182704 -0.0211922 0.0143576 0 
92 -35.8125 22.8368 2.73754 22.418 9 0.413306 0.897281 -0.155125 -0.909605 0.398893 -0.116202 0.0182078 -0.00769587 0 
10 -43.1304 8.27817 2.09725 22.6646 9 0.51108 0.808957 0.290493 -0.782676 0.577687 -0.231724 0.0345847 -0.0165097 0 
85 -23.6277 21.5726 5.63002 28.5692 9 0.215476 0.950412 -0.224246 -0.91872 0.119481 -0.376401 0.0106074 0.000963687 0 
88 -25.8997 24.7689 3.55461 17.5037 9 -0.923167 0.155628 -0.351487 0.263214 0.922312 -0.282947 -0.0244275 0.0105929 0 
75 -40.9243 11.2536 3.03083 20.2513 9 0.565026 0.806607 0.173579 -0.774262 0.591051 -0.226225 0.0270615 -0.0150951 0 
98 -46.4359 22.2508 1.37541 29.7684 9 0.591988 0.804365 0.0504778 -0.770975 0.583438 -0.25534 0.025247 0.0122797 0 
86 -20.2536 25.3603 5.32736 15.9295 9 0.0974318 0.925765 -0.365329 -0.972266 0.0101184 -0.233659 0.014224 0.00823884 0 
67 -26.3289 4.88349 9.09072 16.5 9 0.623156 0.776507 0.0933527 -0.70423 0.609022 -0.364901 0.0194665 0.00488936 0 
112 -45.1857 35.925 -2.4148 24.3953 9 0.465145 0.831523 -0.303661 -0.874701 0.378964 -0.302134 0.0257197 0.00835811 0 
87 -22.3925 27.6062 3.646 20.5313 9 0.209066 0.911128 -0.355158 -0.923689 0.0647476 -0.377632 0.0137202 -0.00421315 0 
69 -27.4195 11.16 7.48516 21.1068 9 0.464065 0.884627 -0.0455927 -0.833081 0.418375 -0.361853 0.0145261 0.00213981 0 
104 -30.989 28.1758 1.53651 30.3966 9 -0.971645 0.222465 -0.0801004 0.236382 0.921823 -0.307192 -0.0221101 0.0198971 0 
22 -33.0283 -16.6148 3.43385 35.7826 9 -0.00112247 0.907414 0.420235 -0.875035 0.202528 -0.439655 0.0209501 0.00874163 0 
103 -35.6754 29.0258 1.1459 18.7546 9 0.32477 0.910769 -0.254997 -0.939064 0.278416 -0.201601 0.0234996 0.00141474 0 
102 -38.3223 24.2286 2.25573 17.5612 9 0.425805 0.886764 -0.179832 -0.899902 0.39436 -0.186163 0.020315 0.00276818 0 
101 -39.9717 27.1115 1.38735 19.4887 9 0.37715 0.896031 -0.234279 -0.92469 0.350095 -0.149609 0.019063 0.00757132 0 
110 -38.838 32.5159 -0.407004 20.3786 9 0.530165 0.792102 -0.302487 -0.847894 0.495297 -0.189093 0.0210466 0.00479953 0 
108 -33.9346 32.3303 -0.143019 18.8714 9 0.298428 0.849984 -0.434128 -0.954426 0.264101 -0.139005 0.0259971 -0.00477579 0 
106 -29.0078 34.4604 -1.31976 24.0547 9 -0.995074 0.0381073 -0.091524 0.0786919 0.865119 -0.495356 -0.0310601 0.0173548 0 
107 -31.4346 36.1061 -2.27203 12.7457 9 -0.989095 0.14727 -0.00157169 0.125557 0.837588 -0.531679 -0.0225809 0.0203231 0 
115 -45.4259 39.7666 -4.46429 17.0585 9 -0.27728 -0.828086 0.487226 0.959741 -0.215035 0.180716 0.0298313 0.0125718 0 
109 -34.4965 37.4407 -3.04051 35.2463 9 -0.253646 -0.818358 0.515707 0.966019 -0.241707 0.0915708 0.0193461 -0.00804866 0 
120 -37.2556 39.7328 -4.19213 23.5413 9 0.232993 0.800941 -0.55155 -0.968245 0.243922 -0.0548048 0.0259072 0.00758364 0 
80 -28.8242 17.9995 4.96967 24.6432 9 -0.863795 0.332355 -0.378681 0.413769 0.896785 -0.156756 -0.0219648 0.00631117 0 
123 -39.7233 48.8468 -13.4785 44.0474 9 -0.692775 0.396116 -0.602623 -0.720784 -0.353562 0.596209 0.0195247 0.0046338 0 
89 -28.0726 24.8792 2.94189 16.831 9 -0.932264 0.209141 -0.295202 0.286801 0.924613 -0.250673 -0.0321632 0.0109762 0 
122 -38.8515 45.1424 -8.65538 27.919 9 -0.077254 -0.684732 0.724689 0.996925 -0.0626407 0.0470883 0.0304158 0.00852891 0 
124 -34.4934 46.7364 -10.8747 21.5871 9 0.086946 -0.606232 0.790521 0.991173 -0.0270812 -0.129783 0.0300158 -0.00656349 0 
58 -18.5549 -2.56949 12.0209 29.5969 9 0.476805 0.873021 0.102423 -0.856309 0.487637 -0.170132 0.0264938 0.00816328 0 
77 -35.9731 13.0594 4.24687 23.5374 9 0.579838 0.811015 0.0777386 -0.77549 0.578647 -0.25255 0.0232692 -0.022841 0 
95 -38.8699 16.2781 3.29393 19.7175 9 0.62545 0.778427 0.0535228 -0.765354 0.625398 -0.152023 0.0231436 -0.013072 0 
125 124
125 121
125 126
1 2
1 115
1 117
1 116
2 3
2 4
2 112
2 115
2 1
127 121
127 109
127 128
127 129
127 126
50 17
50 21
50 49
50 53
50 52
50 51
50 16
76 14
76 15
76 73
76 77
76 75
76 10
169 164
169 87
169 86
169 83
169 180
169 176
169 170
169 163
169 164
164 87
164 169
164 163
164 159
164 160
164 165
129 127
129 128
129 130
129 131
129 132
129 133
129 126
19 20
19 18
3 5
3 4
3 2
45 56
45 55
45 54
45 49
45 46
163 169
163 170
163 171
163 172
163 159
163 164
97 96
97 102
97 101
97 100
97 98
97 9
183 173
183 182
183 181
183 188
170 176
170 171
170 163
170 169
173 174
173 171
173 176
173 182
173 183
189 181
189 190
189 192
189 194
189 351
189 188
188 183
188 181
188 189
188 351
188 187
181 188
181 183
181 182
181 176
181 180
181 190
181 189
117 115
117 118
117 122
117 123
117 116
117 1
160 165
160 164
160 159
160 158
160 131
160 130
160 165
159 163
159 172
159 157
159 158
159 160
159 164
159 163
157 132
157 158
157 159
157 172
157 175
121 127
121 126
121 125
121 124
121 122
121 120
121 109
121 127
130 128
130 106
130 166
130 165
130 160
130 131
130 129
130 128
180 169
180 83
180 82
180 190
180 181
180 176
180 169
111 100
111 110
111 120
111 118
111 112
111 99
20 18
20 19
20 21
20 17
7 8
7 9
7 98
7 6
118 120
118 122
118 117
118 115
118 112
118 111
131 130
131 160
131 158
131 132
131 129
6 5
6 7
6 98
6 99
6 4
128 127
128 109
128 107
128 106
128 130
128 129
128 127
52 51
52 50
52 53
52 71
52 72
52 73
52 15
5 6
5 4
5 3
73 52
73 72
73 79
73 77
73 76
73 15
132 131
132 158
132 157
132 133
132 129
133 129
133 132
351 187
351 188
351 189
351 194
351 187
176 180
176 181
176 182
176 173
176 171
176 170
176 169
171 176
171 173
171 174
171 172
171 163
171 170
166 165
166 130
166 106
166 104
166 89
166 165
174 175
174 172
174 171
174 173
165 160
165 130
165 166
165 89
165 88
165 87
165 164
172 174
172 175
172 157
172 159
172 163
172 171
96 95
96 92
96 102
96 97
96 9
18 19
18 20
18 17
126 127
126 129
126 125
126 121
126 127
158 160
158 159
158 157
158 132
158 131
175 174
175 157
175 172
51 16
51 50
51 52
51 15
11 12
11 10
11 8
47 22
47 46
47 49
47 21
49 47
49 46
49 45
49 54
49 53
49 50
49 21
8 11
8 10
8 9
8 7
4 3
4 5
4 6
4 99
4 112
4 2
99 4
99 6
99 98
99 100
99 111
99 112
99 4
116 117
116 123
116 1
17 16
17 18
17 20
17 21
17 50
17 16
100 101
100 110
100 111
100 99
100 98
100 97
83 180
83 169
83 86
83 85
83 84
83 82
83 180
21 20
21 22
21 47
21 49
21 50
21 17
59 194
59 60
59 61
16 17
16 50
16 51
16 15
16 14
16 13
61 59
61 60
61 62
61 66
61 58
182 183
182 173
182 176
182 181
56 58
56 55
56 45
190 181
190 180
190 82
190 193
190 192
190 189
190 181
13 12
13 16
13 14
13 12
46 45
46 49
46 47
54 45
54 55
54 66
54 67
54 71
54 53
54 49
54 45
55 56
55 58
55 66
55 54
55 45
53 54
53 71
53 52
53 50
53 49
192 190
192 193
192 60
192 194
192 189
187 188
187 351
71 53
71 54
71 67
71 65
71 69
71 72
71 52
72 71
72 69
72 79
72 73
72 52
66 55
66 58
66 61
66 62
66 65
66 67
66 54
14 12
14 13
14 16
14 15
14 76
14 10
194 192
194 60
194 59
194 351
194 189
12 11
12 13
12 14
12 10
60 194
60 192
60 193
60 63
60 62
60 61
60 59
193 192
193 190
193 82
193 63
193 60
63 193
63 82
63 84
63 64
63 65
63 62
63 60
62 63
62 65
62 66
62 61
62 60
9 7
9 8
9 10
9 75
9 95
9 96
9 97
9 98
65 63
65 64
65 69
65 71
65 67
65 66
65 62
82 193
82 190
82 180
82 83
82 84
82 63
84 82
84 83
84 85
84 81
84 64
84 63
64 84
64 81
64 69
64 65
64 63
15 16
15 51
15 52
15 73
15 76
15 14
79 69
79 81
79 80
79 78
79 77
79 73
79 72
78 79
78 80
78 90
78 91
78 92
78 95
78 77
81 64
81 84
81 85
81 80
81 79
81 69
81 64
90 80
90 89
90 104
90 91
90 78
91 90
91 104
91 92
91 78
92 91
92 104
92 103
92 102
92 96
92 95
92 78
10 8
10 11
10 12
10 14
10 76
10 75
10 9
85 81
85 84
85 83
85 86
85 87
85 88
85 80
88 85
88 87
88 165
88 89
88 80
75 10
75 76
75 77
75 95
75 9
98 7
98 9
98 97
98 100
98 99
98 6
86 169
86 87
86 85
86 83
67 66
67 65
67 71
67 54
112 4
112 99
112 111
112 118
112 115
112 2
87 86
87 169
87 164
87 165
87 88
87 85
69 81
69 79
69 72
69 71
69 65
69 64
104 166
104 106
104 108
104 103
104 92
104 91
104 90
104 89
22 47
22 21
103 104
103 108
103 110
103 101
103 102
103 92
102 92
102 103
102 101
102 97
102 96
101 102
101 103
101 110
101 100
101 97
110 101
110 103
110 108
110 109
110 120
110 111
110 100
108 104
108 106
108 107
108 109
108 110
108 103
106 166
106 130
106 128
106 107
106 108
106 104
107 106
107 128
107 109
107 108
107 106
115 2
115 112
115 118
115 117
115 1
109 128
109 127
109 121
109 120
109 110
109 108
109 107
120 109
120 121
120 122
120 118
120 111
120 110
120 109
80 79
80 81
80 85
80 88
80 89
80 90
80 78
123 117
123 122
123 124
123 116
89 88
89 165
89 166
89 104
89 90
89 80
122 117
122 118
122 120
122 121
122 124
122 123
124 125
124 123
124 122
124 121
58 61
58 66
58 55
58 56
77 79
77 78
77 95
77 75
77 76
77 73
95 75
95 77
95 78
95 92
95 96
95 9
